<?xml version="1.0" encoding="UTF-8"?>
<svg id="Layer_2" data-name="Layer 2" xmlns="http://www.w3.org/2000/svg" viewBox="0 0 685.83 813.64">
  <defs>
    <style>
      .cls-1 {
        fill: #274a53;
        stroke-width: 0px;
      }
    </style>
  </defs>
  <g id="Layer_1-2" data-name="Layer 1">
    <g>
      <path class="cls-1" d="M196.81,320.91c12.39,0,24.35-.2,36.3.15,2.61.08,5.24,1.95,7.71,3.27,9.68,5.18,19.29,10.48,28.94,15.72.68.37,1.44.6,2.16.89.33-.37.65-.74.98-1.1-1.65-1.49-3.16-3.17-4.96-4.43-8.19-5.71-16.51-11.22-24.68-16.95-7.33-5.14-11.16-12.55-13.31-21.63,21.74,5.05,33.91,23.99,51.23,34.97.39-.48.79-.96,1.18-1.43-1.12-1.29-2.21-2.6-3.36-3.85-8.22-8.94-17.02-17.44-24.52-26.95-6.63-8.41-7.23-18.92-6.96-29.61,13.17.76,24.59,4.48,32.8,14.42,7.19,8.7,13.52,18.11,20.21,27.23,1.03,1.41,1.89,2.94,2.83,4.42.49-.26.98-.52,1.47-.78-3.83-7.84-7.47-15.77-11.53-23.48-4.96-9.42-8.72-19.08-7.94-29.98,1.11-15.6,9.76-27.33,20.11-37.95,4.4-4.52,9.95-7.89,14.71-12.09,5.91-5.2,11.61-10.65,17.27-16.12,4.63-4.47,7.18-4.59,11.64-.09,5,5.05,9.73,10.4,15.01,15.13,3.94,3.53,8.92,5.9,12.81,9.46,8.79,8.03,15.81,17.44,20.8,28.38,4.53,9.95,5.19,20.02.89,29.97-4.69,10.83-10.1,21.34-15.15,32.01-.71,1.5-1.16,3.13-1.72,4.71.46.22.92.45,1.39.67,3.71-5.76,7.4-11.53,11.14-17.26,5.67-8.69,11.84-16.91,20.94-22.4,7-4.22,14.75-5.53,23.07-6.47.79,11.3-.51,21.94-7.27,30.63-6.82,8.77-14.97,16.49-22.48,24.73-1.63,1.79-3,3.84-3.74,6.45,16.44-11.8,29.29-28.54,50.68-34.22-1.49,7.72-4.28,13.91-9.7,18.24-6.34,5.07-13.33,9.33-19.98,14.03-4.48,3.17-8.85,6.49-13.27,9.75.42.63.83,1.25,1.25,1.88,7.73-3.97,16.08-7.08,23.05-12.11,10.84-7.82,22.7-9.63,35.41-9.29,5.62.15,11.24.03,17.18.03,0,12.33-4.73,22.47-10.43,32.34,2.87,2.84,4.84.84,6.58-1.31,7.48-9.26,10.93-20.04,11.72-31.78.13-1.97.59-3.93.6-5.9,0-1.35-.2-3.68-.83-3.88-1.57-.49-4.17-.72-5.07.2-3.64,3.74-8.11,3.36-12.57,3.38-7.45.03-14.9,0-22.22,0,2.06-4.56,3.99-9.46,6.49-14.05.87-1.59,3.2-3.46,4.79-3.39,5.84.27,11.69,1.11,17.47,2.08,7.96,1.35,15.84,3.19,23.81,4.45,2.94.46,3.55,1.64,3.23,4.27-2.63,21.69-9.63,41.21-25.85,56.88-13.95,13.48-29.87,22.62-49.17,25.51-5.67.85-11.35,1.66-17.99,2.64,9.66,3.04,18.67,3.15,27.29.73,9.04-2.54,17.8-6.23,26.4-10.05,3.26-1.45,5.61-1.99,8.54.16,4.09,3,8.35,5.76,12.7,8.74-10.29,13.38-23.26,18.16-38.77,16.12-9.72-1.28-19.35-3.26-29.03-4.87-1.62-.27-3.29-.31-5.36.43,1.28.67,2.5,1.49,3.84,1.99,14.43,5.3,29.01,9.65,44.68,9.34,3.22-.06,6.81,1.52,9.69,3.24,17.75,10.67,29.22,26.08,34.34,46.25,1.01,3.98,2.92,7.73,4.58,12.03-18.38,3.7-35.66,11.94-54.82,8.97-1.41-.22-3.12-1.32-3.86-2.53-4.61-7.5-8.86-15.21-13.46-22.71-4.84-7.9-8.91-16.6-15.15-23.24-8.88-9.44-12.62-20.5-14.87-32.57-2.8-15.08-4.8-30.18-4.31-45.64.54-16.93-7.39-28.68-25.34-32.36-6.69-1.38-13.19-4.5-19.29-7.75-7.34-3.91-12.43-18.42-7.28-24.5,3.98-4.71,4.99-10.86,8.64-14.49,5.73-5.7,4.14-12.09,5.14-18.32.12-.75-.09-1.96-.61-2.35-4.45-3.32-2.95-8.01-2.78-12.24.35-8.96-3.23-16.31-9.33-22.35-5.89-5.85-12.34-11.13-19.19-17.23-7.67,7.67-15.58,14.98-22.73,22.95-5.34,5.95-4.99,13.8-5.08,21.36-.02,1.97-1.55,3.88-1.93,5.91-.59,3.17-1.26,6.45-1.04,9.63.32,4.6-.34,9.93,5.58,12.14.55.2.94,1.34,1.06,2.11.73,4.58.87,9.45,6.73,10.9.45.11.79,1.03,1.03,1.63,3.98,10.34-.98,22.77-11.32,27.32-5.13,2.26-10.58,3.93-16.02,5.32-17.34,4.42-25.29,13.67-25.05,31.59.22,16.6-1.77,32.83-5.02,49.04-2.46,12.26-7.86,22.64-16.47,31.83-4.79,5.12-8.08,11.71-11.71,17.84-3.72,6.28-7.57,12.59-10.39,19.29-4.13,9.83-12.18,10.63-20.85,10.09-5.11-.32-10.27-1.21-15.22-2.53-8.63-2.3-17.11-5.13-25.63-7.74,5.67-21.03,12.8-41.06,31.85-54.17,6.13-4.22,12.13-7.34,20.11-7.18,14.24.29,32.18-4.54,43.36-10.22-.04-.43-.07-.86-.11-1.29-5.68.71-11.36,1.39-17.03,2.14-8.07,1.08-16.1,2.6-24.2,3.24-13.56,1.08-22.76-6.79-31.89-16.96,5.58-3.35,10.81-6.73,16.3-9.58,1.16-.6,3.52.36,4.99,1.19,12.42,7.02,25.78,10.76,39.96,11.34,4.56.19,9.17-.69,13.72-2.16-6.72-1.12-13.42-2.38-20.17-3.35-28.17-4.07-64.2-31.96-68.73-66.77-.64-4.93-2.17-9.75-2.87-14.68-.18-1.3.94-3.81,1.94-4.1,6.86-1.98,13.76-4.02,20.8-5.04,7.23-1.05,14.62-1.05,21.95-1.28,1.25-.04,3.24.72,3.69,1.68,2.39,5.06,4.39,10.31,6.93,16.44-13.35-3.53-27.26,2.85-39.9-6.95.29,15.82.45,29.93,10.14,41.69,1.81,2.2,3.35,5.31,8.07,2.89-5.84-9.53-10.68-19.47-10.38-30.8ZM455.01,465.61c-.25.75-.5,1.5-.75,2.25,3.13,1.38,6.23,3.85,9.4,3.95,9.43.28,18.91,0,28.32-.76,7.75-.62,7.73-1.06,6.7-8.64-3.04-22.51-15.42-36.93-37.37-42.92-1.61-.44-3.5.14-5.26.25,0,.56,0,1.12,0,1.68,2.4,1.05,4.76,2.21,7.2,3.14,15.52,5.93,24.12,17.34,27.34,33.47,1.04,5.19-.21,7.08-5.38,6.93-2.64-.08-5.29.59-7.94.62-7.41.09-14.83.03-22.25.03ZM235.52,418.26c-29.41.67-46.65,21.05-48.03,48.82-.06,1.15,1.93,3.39,3.06,3.46,10.43.63,20.88,1.14,31.33,1.07,2.66-.02,5.3-2.24,7.94-3.44-.18-.62-.36-1.24-.54-1.85-1.9-.16-3.8-.36-5.71-.46-7.97-.43-15.94-.86-23.91-1.22-3.03-.14-4.55-1.19-4.1-4.59,1.86-14,8-25.19,20.76-32.05,6.1-3.28,12.35-6.27,19.19-9.73ZM266.88,366.02c-7.93-6.93-48.06-12.86-55.74-5.2,18.56,1.73,36.86,3.44,55.74,5.2ZM474.21,361.04c-14.69-5.82-44.92-2.51-53.15,4.94,18.04-1.68,35.59-3.31,53.15-4.94ZM462.85,372.08c-.14-.73-.28-1.46-.42-2.19-14.28,2.61-28.55,5.22-42.83,7.83.1.57.21,1.15.31,1.72,14.92,1.08,29.42-.28,42.94-7.37ZM454.2,334.33c-17.45,4.92-36.53,15.32-38.66,21.04,13.82-6,27.94-10.34,38.66-21.04ZM230.39,332.93c11.91,10.62,25.51,16.4,39.55,22.16-.83-5.08-28.57-20.52-39.55-22.16ZM265.3,378.38c-13.69-3.31-27.19-7.81-41.57-6.8,13.22,6.33,27.08,8.56,41.57,6.8ZM390.48,322.69c.3.61.6,1.21.9,1.82,1.51-.44,3.53-.4,4.46-1.39,5.78-6.15,11.46-12.41,16.84-18.91,2.01-2.43,3.09-5.63,4.6-8.48l-1.55-.92c-8.41,9.3-16.83,18.59-25.24,27.89ZM269.02,293.09c-.54.37-1.07.74-1.61,1.11,1.37,2.5,2.39,5.28,4.16,7.46,5.96,7.34,12.13,14.52,18.39,21.62.74.84,2.53.74,3.84,1.08.37-.59.75-1.17,1.12-1.76-8.63-9.84-17.27-19.67-25.9-29.51ZM422.95,415.67c9.43,9.3,20.74,15.57,32.95,20.41-9.48-9.21-20.22-16.41-32.95-20.41ZM297.61,266c.44,14.28,8.81,25.43,14.01,37.81-.22-14.3-7.84-25.81-14.01-37.81ZM228.71,436.26c.34.57.68,1.13,1.02,1.7,8.64-5.09,17.32-10.12,25.86-15.37,1.02-.63,1.25-2.54,1.85-3.85-10.93,4.32-21.18,8.86-28.73,17.53ZM388.97,265.96c-.45-.17-.91-.33-1.36-.5-3.32,8.7-8.7,16.64-10.26,26,.65.24,1.3.48,1.95.72l9.67-26.22ZM454.76,455.61c.3-.43.59-.85.89-1.28-3.58-5.75-8.45-8.7-13.19-6.26,4.1,2.51,8.2,5.03,12.3,7.54ZM237.63,452.59c-1.03.57-2.06,1.15-3.09,1.72-.12-1.53-.24-3.07-.4-5.17-2.35,1.99-4.74,4.02-7.13,6.04l.46.65c3.39-1.08,6.77-2.16,10.16-3.24ZM225.41,342.85c-.05.73-.1,1.47-.14,2.2l9.22.88c.06-.66.12-1.33.18-1.99-3.09-.36-6.17-.73-9.26-1.09Z"/>
      <path class="cls-1" d="M103.64,256.53c1.06,5.02,1.64,10.2,3.28,15.02,4.31,12.65,12.47,22.52,23.21,30.35.91.66,1.69,1.5,3.06,2.74-13.45,2.84-27.03,4.17-35.73,16.29,3.49,3.82,6.81,1.45,10.08.26,8.08-2.94,16.07-6.14,24.24-8.79,7.15-2.32,13.78-.12,19.89,3.73.86.54,1.81,2.18,1.58,3-2.57,9.42-5.35,18.77-8.35,29.07-9.75-2.41-19.82-4.39-29.57-7.41-33.96-10.51-60.47-31.19-81.03-59.98-9.65-13.52-17.15-28.05-23.06-43.52-1.69-4.43-.56-6.48,3.77-7.58,16.83-4.26,33.85-5.16,51-2.73,23.91,3.37,46.11,11.23,65.62,25.82,2.53,1.89,5,3.88,7.29,6.05,9.65,9.14,19.21,18.36,29.16,27.89-3.05,5.96-6.33,12.62-9.93,19.1-.48.86-2.91,1.44-4,1.02-18.53-7.06-32.7-18.71-39.8-37.91-1.97-5.34-5.19-10.02-10.85-12.33-3.16-4.42-6.97-7.71-12.46-8.14-.28.5-.56.99-.84,1.49,4.47,2.18,8.94,4.36,13.42,6.54ZM104.46,277.83c1.48-2.49,1.73-6.12-1.28-9.41-3.09-3.37-7.14-3.59-11.11-2.46-7.47,2.13-12.46,9.99-11.68,17.74.54,5.35,3.74,9.23,8.51,9.43,6.6.28,13.22.07,20.05.07-1.53-5.22-2.81-9.6-4.5-15.38ZM130.38,328.59c-2.36-1.24-4.01-2.73-4.74-2.37-1.58.78-2.68,2.52-3.98,3.86,1.15,1.05,2.71,3.18,3.37,2.93,1.69-.64,2.98-2.33,5.35-4.43ZM152.88,287.89c-.1-.58-.2-1.16-.3-1.74-1.22-.51-2.7-1.71-3.6-1.37-1.56.59-2.77,2.12-4.12,3.26,1.18,1.1,2.58,3.26,3.51,3.07,1.65-.33,3.02-2.07,4.51-3.22Z"/>
      <path class="cls-1" d="M584.86,255.25c-1.86.5-4.52.38-5.44,1.6-3.29,4.33-6.66,8.81-8.81,13.76-7.66,17.7-20.74,29.42-38.48,36.22-1.23.47-3.9,0-4.39-.88-3.54-6.38-6.68-12.98-10.06-19.74,18.33-15.3,33.39-34.86,55.78-45.29,27.28-12.71,55.74-18.45,85.84-13.42,4.09.68,8.17,1.46,12.22,2.33,3.33.72,4.62,2.29,3.3,6.05-6.49,18.52-16,35.3-27.85,50.89-22.44,29.51-51.92,48.11-87.62,57.22-6.08,1.55-12.29,2.61-18.74,3.96-2.69-10.33-5.26-20.21-7.84-30.12,8.68-8.24,18.84-6.6,28.87-3.58,5.84,1.76,11.33,4.66,16.98,7.06,3.05,1.3,6.09,2.79,9.59-.29-8.85-11.73-21.65-14.54-36.09-16.11,11.01-7.21,18.26-16.23,23.64-26.75,2.11-4.11,3.33-8.67,5.2-12.91,1.12-2.53,2.82-4.79,4.04-7.29.49-1.01.38-2.31.54-3.48,6.19-2.84,12.37-5.66,18.54-8.51.51-.24.93-.68,1.88-1.39-1.29-.67-2.28-1.59-2.78-1.38-5.91,2.55-11.81,5.17-17.54,8.1-.74.38-.54,2.6-.77,3.96ZM582.45,274.66c.29.14.58.29.87.43-2.26,5.69-4.51,11.39-7.09,17.9,3.03-.14,5.58-.35,8.13-.35,2.82,0,5.66.06,8.47.29,8.25.67,13.04-3.81,12.31-11.91-.48-5.38-2.92-9.87-7.34-13.08-3.85-2.8-8.15-4.09-12.55-1.61-4.45,2.5-5.72,6.77-5.55,12.06,1.12-1.51,1.94-2.62,2.75-3.72ZM555.55,328.94c2.37,2.1,3.73,4.18,4.82,4.04,1.41-.17,2.61-2.09,3.9-3.26-1.23-1.24-2.28-2.99-3.77-3.53-.87-.32-2.45,1.28-4.95,2.75ZM544.77,330.69c-.22.19-.46.37-.66.58-.03.04.13.25.21.39.22-.19.46-.36.65-.58.03-.04-.13-.26-.21-.39Z"/>
      <path class="cls-1" d="M145.26,428.42c1.25,6.59,2.4,12.69,3.65,19.27-12.05-1.11-22.04-8.65-35.29-6.92,2.27,1.32,3.35,2.15,4.56,2.61,10.1,3.78,20.25,7.43,30.32,11.29,1.17.45,2.36,1.7,2.85,2.87,1.41,3.35,2.47,6.85,3.78,10.63-12.16,3.87-24.64,4.38-36.84,1.73-14.08-3.06-27.83-7.66-41.76-11.45-1.31-.36-2.89.23-4.34.38.84,1.26,1.39,3.2,2.55,3.68,21.99,9.01,43.87,18.63,68.57,16.18,3.31-.33,6.74-.35,9.87-1.32,3.88-1.2,5.74.14,7.44,3.45,3.32,6.48,6.98,12.79,10.38,18.95-16.06,7.93-31.5,16.51-47.69,23.29-17.65,7.38-36.35,5.04-54.68,2.21-18.64-2.87-35.02-11.21-50.19-22.12-.79-.57-1.46-1.29-2.8-2.49,3.19-2.69,6.17-5.22,9.16-7.72,13.01-10.9,25.88-21.96,39.07-32.64,19.83-16.06,42.78-25.2,67.75-29.59,4.37-.77,8.76-1.46,13.66-2.28ZM95.43,482.8c-7.06-5.37-20.32-5.32-26.04.11,9.08,6.68,19.06,8.02,26.04-.11ZM38.3,497.47c.06.58.12,1.15.18,1.73,11.81.33,23.67,1.04,34.93-3.58-.07-.6-.13-1.2-.2-1.8-11.64,1.21-23.27,2.43-34.91,3.64ZM123.78,491.01c.1.7.21,1.4.31,2.11,2.63,0,5.67.86,7.79-.17,5-2.42,7.21-7,6.9-12.82-5.05,3.67-10.03,7.28-15,10.88Z"/>
      <path class="cls-1" d="M515.88,499.5c3.04-5.92,6.13-11.8,9.09-17.75,1.47-2.97,3.35-4.65,7-4.09,4.09.63,8.31.53,12.37,1.28,1.24.23,2.92,2.14,3.07,3.43.72,6.27,2.55,11.33,9.21,13.79,4,1.47,7.63,3.96,11.33,6.17.63.38.72,1.66,2.16,2.5,0-1.54.63-3.54-.1-4.55-4.59-6.37-9.11-12.87-16.71-16.23-1.64-.73-2.9-2.3-4.17-4.16,23.81-1.17,45.12-9.55,66.13-19.14-1.36-3.35-2.95-3.69-6-2.47-16.29,6.48-33.04,11.43-50.58,12.97-9.32.82-18.53-.13-27.74-3.39,1.7-6.47,2.69-12.21,10.74-14.37,9.41-2.53,18.31-6.91,27.41-10.55.84-.33,1.49-1.12,2.04-2.35-11.91-2.03-21.81,5.83-33.86,7.16,1.13-6.47,2.2-12.56,3.45-19.66,7.89,1.4,15.56,2.5,23.11,4.15,28.53,6.23,52.52,20.86,73.99,40.18,9.03,8.12,18.34,15.92,27.51,23.87,1.47,1.28,2.91,2.6,4.82,4.31-1.65,1.56-2.8,2.95-4.22,3.95-28.03,19.8-59.09,26.83-92.79,20.97-7.54-1.31-14.83-4.79-21.85-8.09-11.88-5.58-23.44-11.82-35.39-17.92ZM617.53,483.14c-4.51-6.42-21.16-5.15-26.96.11,10.2,7.14,17.52,7.11,26.96-.11ZM612.15,493.93c-.08.63-.15,1.27-.23,1.9,11.41,5.2,23.41,3.65,35.3,3.42.06-.59.11-1.19.17-1.78l-35.24-3.54ZM581.09,494.24c.44-.29,1.96-1.3,3.49-2.3-.03-.58-.07-1.16-.1-1.74-3.93-.91-7.85-1.82-11.78-2.73-.17.46-.34.93-.51,1.39,2.55,1.54,5.1,3.09,8.9,5.39Z"/>
      <path class="cls-1" d="M109.67,93.21c4.19.9,7.91,1.59,11.56,2.51,19.9,5.04,39.27,11.44,56.68,22.7,1.4.9,2.71,1.93,4.09,2.86,4.55,3.08,6.83,6.87,6.68,12.85-.43,17.75-.15,35.51-.15,53.61-5.37-4.03-11.48-8.24-17.03-13.07-1.17-1.02-.65-4.36-.39-6.58,1.47-12.62,2.57-25.23-.69-37.72-.64-2.46-2.22-4.69-4.03-6.45v41.29c-15.19-20.06-27.72-41.01-46.51-56.91,14.78,21.32,29.55,42.65,44.33,63.97-.49.6-.98,1.19-1.47,1.79-14.01-5.14-28.02-10.29-43.16-15.84,1.84,1.97,2.83,3.79,4.34,4.51,9.38,4.51,18.59,9.67,28.42,12.92,17.32,5.73,31.13,16.18,43.59,28.93.42.43.67,1.04,1.1,1.73-21.13-5.82-42.57-7.8-63.91-10.44l-.51,2.46c4.78,1.13,9.53,2.35,14.34,3.36,15.27,3.22,30.56,6.37,45.84,9.52,11.13,2.29,17.6,10.69,24.92,18.77-7.01,6.25-13.89,12.39-21.06,18.78-2.46-3.25-4.75-6.49-7.26-9.55-13.09-15.93-29.26-27.03-50.51-25.25-8.72.73-11.31-3.17-14.42-8.77-9.23-16.56-14.3-34.57-15.56-53.25-1.2-17.72-.29-35.58-.24-53.39,0-1.46.54-2.91,1.04-5.37Z"/>
      <path class="cls-1" d="M563.46,109.77c-2.22,2-4.8,3.73-6.6,6.06-8.56,11.05-16.99,22.2-25.31,33.43-3.94,5.31-7.55,10.85-11.86,17.1-2.32-14.69-1.82-28.41,1.42-42.09-.44-.25-.88-.5-1.32-.75-1.27,1.76-2.99,3.34-3.73,5.3-3.97,10.6-4.02,21.76-2.06,32.54,1.7,9.36.97,16.37-8.31,20.94-3.07,1.51-5.65,4.02-9,6.47,0-4.57-.05-8.59,0-12.6.2-14.32.63-28.64.52-42.96-.04-4.33,1.38-7.13,4.53-9.83,10.56-9.07,22.96-14.7,35.88-19.18,10.97-3.8,22.23-6.8,33.38-10.06,1.53-.45,3.2-.38,5.05-.58.32,1.5.68,2.6.77,3.72,2.7,32.4,3.43,64.65-9.66,95.39-2.91,6.83-7.06,13.15-10.88,19.55-.66,1.12-2.68,2.33-3.82,2.13-21.2-3.78-37.66,4.77-51.56,19.76-4.06,4.38-7.51,9.32-11.52,14.36-6.6-5.87-13.37-11.9-20.37-18.14,7.29-10.59,16.8-17.89,29.42-20.56,15.13-3.19,30.34-5.98,45.48-9.11,3.12-.65,6.09-2.03,9.12-3.07l-.53-2.15c-21.06,3.31-42.11,6.62-63.18,9.93,13.23-12.52,27.07-24.21,45.38-29.93,9.54-2.98,18.33-8.37,27.46-12.69,1.79-.85,3.56-1.74,5.34-2.62l-1.84-1.82c-14.29,5.35-28.57,10.69-42.86,16.04-.37-.55-.73-1.1-1.1-1.64,14.3-20.55,28.61-41.11,42.91-61.66-.4-.42-.8-.84-1.2-1.26Z"/>
      <path class="cls-1" d="M295.97,590.16c13.1,1.09,25.95,2.16,39.48,3.29-.96,2.72-1.83,5.12-2.65,7.54-2.09,6.23-2,12.2,2.83,17.21,5.11,5.3,12.53,4.36,16.33-1.97,2.49-4.14,3.56-8.55,1.76-13.31-1.05-2.78-2.1-5.56-3.51-9.3,13.77-1.2,27.13-2.37,40.48-3.53,5.79,28.33-8.59,57.79-34.31,72.85-9.05,5.3-16.38,5.55-25.65.31-23.77-13.42-38.73-40.42-35.94-67.43.2-1.94.79-3.84,1.19-5.67ZM356.44,634.49c-3,6.99.68,12.15,1.82,17.92,4.97-2.65,4.47-6.83-1.82-17.92ZM330.23,630.03c-2.54,5.67-4.74,10.12-6.48,14.74-.47,1.24-.02,3.41.86,4.38.6.67,2.67.01,3.97-.05-6.04-7.14,2.64-11.84,1.65-19.08ZM374.54,633.8c-3.59.42-6.05.7-8.77,1.02,1.05,1.58,2.33,3.51,4.18,6.3,1.88-3,3.24-5.16,4.59-7.31ZM340.57,633.92c.67.09,1.33.18,2,.27.34-2.96.68-5.92,1.01-8.88-.67-.08-1.34-.15-2.01-.23-.33,2.95-.67,5.89-1,8.84Z"/>
      <path class="cls-1" d="M286.98,194.19c-3.38,1.22-6.45,2.34-9.67,3.5-10.75-15.76-24.81-27.93-39.81-39.06-4.6-3.41-5.23-7.52-4.91-12.61.14-2.31,1.71-5.74-3.04-7.06-.34,4.01-.66,7.71-1.01,11.74-9.57-6.04-18.86-11.9-28.15-17.77-.5.47-.99.94-1.49,1.41.97,1.56,1.6,3.56,2.97,4.62,8.41,6.51,16.96,12.84,25.52,19.17,2.72,2.02,2.81,4.3,2.89,7.72.37,15.75,1.49,31.5,2.74,47.22.36,4.47-3.04,10.38-7.44,10.54-1.06.04-2.35-.98-3.22-1.83-5.36-5.24-10.59-10.6-15.93-15.85-6.14-6.04-9.26-13.66-9.69-21.93-1.1-20.94-1.52-41.92-2.25-62.88-.17-5,3.04-5.19,6.29-4.02,9.05,3.26,18.09,6.62,26.92,10.43,28.51,12.29,47.35,33.65,57.95,62.59.44,1.22.8,2.46,1.31,4.05Z"/>
      <path class="cls-1" d="M460.94,224.33c-8.59-5.43-7.88-5.36-6.87-15.07,1.4-13.55,2.74-27.3,1.82-40.82-.45-6.61,1.93-9.27,6.06-12.27,7.4-5.38,14.93-10.58,22.23-16.08,1.46-1.1,2.17-3.22,3.22-4.86-.55-.53-1.09-1.05-1.64-1.58-8.89,5.6-17.78,11.19-27.22,17.14-.66-3.89-1.3-7.62-1.94-11.36-.55-.02-1.1-.05-1.65-.07-.21,2.03-.92,4.16-.55,6.08,1.29,6.7-1.82,10.75-6.98,14.5-13.78,10.02-26.2,21.54-36.5,35.23-.67.89-2.4,1.3-3.66,1.35-1.26.05-2.57-.56-3.81-1.01-1.36-.49-2.67-1.12-4.48-1.9,8.19-21.3,19.51-39.99,38.29-53.2,14.67-10.32,31.06-17.3,47.91-23.22,3.68-1.29,6.32-.89,6.19,3.87-.57,20.47-.97,40.94-1.79,61.39-.48,11.97-6.21,21.5-15.14,29.31-4.62,4.04-8.99,8.35-13.49,12.55Z"/>
      <path class="cls-1" d="M394.5,157.79c3.35-7.35,6.61-13.35,8.84-19.71,2.01-5.75,2.95-11.88,4.25-17.86.64-2.92-.42-5.15-3.15-6.6-7.61-4.05-12.25-10.74-17.09-17.69-7.87-11.31-16.96-21.76-25.42-32.66-5.51-7.09-10.82-14.34-16.24-21.51-.77-1.02-1.61-2-2.93-3.62-3.94,5.32-7.46,10.25-11.17,15.03-9.8,12.61-19.7,25.14-29.51,37.73-1.83,2.35-3.67,4.74-5.13,7.33-3.58,6.39-8.13,11.63-14.79,15.09-1.57.82-2.87,3.61-2.97,5.57-.44,8.16,2.14,15.69,5.77,22.89,2.52,5.01,5.01,10.03,7.77,15.53-3.15.19-5.6.63-7.97.38-1.5-.16-3.73-.99-4.19-2.12-4.75-11.68-10.23-23.18-9.92-36.27.22-9.15,3.1-16.79,10.94-22.33,12.69-8.99,21.59-21.61,30.92-33.71,9.03-11.71,17.61-23.77,26.44-35.64,3.6-4.84,4.64-4.57,8.32.13,16.39,20.9,32.83,41.75,49.54,62.4,2.87,3.55,7.1,5.99,10.71,8.94,4.61,3.78,7.1,8.62,7.69,14.57,1.48,14.97-3.49,28.61-9.16,41.93-2.04,4.79-6.98,1.37-11.55,2.2Z"/>
      <path class="cls-1" d="M334.82,179.73c.09-2,.53-4.06.23-6-2.42-15.4-15.63-32.24-37.11-34.24-7.75-.72-14.57-11.02-11.9-18.49.82-2.28,3.91-3.75,6.38-5.96,4.25,10.54,12.06,16.73,22.37,19.99,1.1.35,2.26.87,3.34.77.96-.09,2.41-.75,2.63-1.47.24-.78-.43-2.32-1.18-2.82-2.77-1.83-5.78-3.29-8.62-5.02-8.28-5.04-10.84-10.21-9.84-17.78.66-5.03,4.5-6.85,7.8-9.39.87-.67,2-1.25,2.47-2.15,2.01-3.88,3.8-7.88,5.73-11.81.28-.57.9-1.42,1.32-1.4,4.59.3,5.21-3.71,7.21-6.32,2.8-3.66,5.84-7.14,9.62-11.73,1.7,4.6,3.96,8.16,4.21,11.85.68,9.95.66,19.96.54,29.94-.03,2.19-1.08,4.97-2.63,6.45-9.56,9.11-10.38,19.79-5.43,31.07,4.13,9.4,6.69,19.08,7.84,29.19.74,6.51-5.29,7.93-9.08,12.5-2.65-12.12-11.36-17.33-20.29-22.35-6.92-3.89-11.54-9.79-14.81-17.42,8.21-1.4,14.96,1.37,20.98,6.41,6.29,5.27,10.24,12.1,12.75,19.86.77,2.36,2.13,4.53,3.23,6.79.76-.16,1.52-.32,2.27-.48Z"/>
      <path class="cls-1" d="M343.25,680.1c4.39,7.64,8.71,15.46,13.33,23.1,4.9,8.11,10.45,15.85,15.08,24.11,7.58,13.51,8.69,27.2-1.34,40.17-10.79,13.96-30.13,17.52-45.29,8.61-15.11-8.88-20.89-26.22-13.64-42.81,2.77-6.34,6.89-12.11,10.5-18.07,7.05-11.67,14.17-23.29,21.36-35.1ZM325.82,752.57c4.35,5.01,8.22,9.14,14.5,9.28,7.31.15,13.41-2.37,17.6-8.48,5.35-7.81,5.31-17.07,2.25-24.89-4.25-10.86-11.07-20.71-16.85-31.11-2.32,3.51-4.64,6.68-6.61,10.05-5.61,9.58-11.38,19.1-16.52,28.93-3.92,7.49-2.18,18.04,2.85,22.19.82-1.76,1.63-3.51,2.77-5.97Z"/>
      <path class="cls-1" d="M188.9,524.83c-2.63.66-5.25,1.08-7.66,2.04-1.21.48-2.78,1.9-2.81,2.95-.04,1.06,1.41,2.71,2.57,3.15,2.26.87,4.8,1.61,7.16,1.45,8.56-.57,8.55-.71,16.05,6.23-4.62,4.26-8.57,8.84-16.14,7.38-8.62-1.66-17.39-2.93-26.15-3.38-22.87-1.18-39.26,9.83-49.92,29.23-4.42,8.03-6.85,17.2-9.75,26-2.04,6.2-2.94,7.26-11.43,7.92,1.94-8.19,2.89-16.34,5.8-23.7,10.5-26.5,27.07-48.41,51.85-63.17,7.78-4.64,16.47-7.79,24.88-11.29,1.21-.5,3.78.37,4.74,1.47,3.69,4.24,6.99,8.82,10.8,13.74Z"/>
      <path class="cls-1" d="M482.35,540.39c4.16-4.96,8.92-7.43,15.42-6.25,2.35.43,5.05-.06,7.36-.82,1.27-.42,2.06-2.29,3.07-3.5-1.07-.84-2.02-1.99-3.24-2.45-2.31-.89-4.78-1.39-7.78-2.22,4.16-5.24,7.98-10.42,12.27-15.17.85-.94,3.72-.78,5.31-.19,20.38,7.53,38.08,18.99,51.77,36.1,10.01,12.51,19.56,25.37,23.88,41.15,1.82,6.66,2.91,13.52,4.37,20.46-7.55.14-9.37-1.24-10.86-7.43-3.09-12.88-7.36-25.23-15.92-35.67-13.75-16.78-31.66-22.27-52.63-19.27-4.44.64-8.98,1.12-13.25,2.41-8.36,2.51-14.53-.36-19.77-7.13Z"/>
      <path class="cls-1" d="M350.29,180.29c-2.72-2.01-4.93-3.81-3.8-7.74,2.52-8.74,4.94-17.52,7.06-26.37,1.34-5.59,3.13-11.42,2.7-16.98-.35-4.55-3.1-9.31-5.92-13.14-2.16-2.94-3.97-5.4-3.92-9.19.13-11.77.05-23.54.05-34.66,2.05-.85,3.85-1.6,5.74-2.39-1.02,3.35-2.79,7.51,3.9,6.98.58-.05,1.18,1.37,1.91,1.93,4.15,3.2,8.34,6.34,12.51,9.5.52-.27,1.05-.55,1.57-.82-.23,3.21-.45,6.41-.68,9.62-.41-.02-.83-.03-1.24-.05.24.19.57.6.71.55q6.67-2.86,10.62,3.31c6.03,9.42,4.88,16.46-4.14,23.25-3.43,2.58-7.44,4.39-10.89,6.95-1.25.92-1.64,3-2.42,4.55,1.44.21,3.05.96,4.29.56,10.46-3.33,19.34-8.82,24.3-19.3,1.94.64,3.5,1.05,4.99,1.65,2.33.94,4.01,2.11,2.84,5.22-.8,2.14-.69,4.61-1.36,6.81-1.45,4.75-3.78,8.6-10.11,9.27-24.15,2.53-34.74,13.88-38.71,40.49Z"/>
      <path class="cls-1" d="M242.69,569.35c8.55,4.08,17.02,8.11,25.44,12.13-3.94,27.18-49.22,73.57-74.49,76.24.32-8.92,1.87-16.54,9.45-23.15,14.91-13,26.57-28.86,34.21-47.29,2.27-5.47,3.46-11.38,5.4-17.93Z"/>
      <path class="cls-1" d="M493.33,657.99c-2.24-.58-3.55-.76-4.73-1.26-31.93-13.61-54.7-36.54-68.71-68.16-2.91-6.57-2.45-6.69,4.23-9.73,6.34-2.89,12.59-5.96,19.21-9.1.96,3.56,1.81,7.05,2.84,10.5,6.57,21.92,20.29,39.11,36.76,54.25,4.89,4.49,8.66,8.87,8.73,15.8.02,2.23.93,4.46,1.67,7.71Z"/>
      <path class="cls-1" d="M90.54,388.77c-9.83,4.06-15.26,11.42-20.03,19.6-6.94,11.9-18.13,16.62-30.39,13.23-5.94-1.64-10.15-6.03-10.63-11.26-.58-6.33,1.83-11.58,7.74-13.7,7.36-2.65,15.15-4.11,23.36-6.25-1.62,8.86-7.66,14.38-15.23,15.09-2.66.25-6.3.09-5.44,3.75.38,1.62,4.45,3.61,6.6,3.36,7.97-.93,14.45-4.69,18.06-12.34,5.92-12.57,3.98-25.43-5.14-34.64-4.51-4.56-10.05-5.91-16.03-4.8-1.58.3-2.71,3.02-4.04,4.63,1.36,1.08,2.58,2.78,4.1,3.13,3.38.78,7.98-.36,10.15,1.52,3.82,3.32,6.19,8.31,9.17,12.6-.38.52-.77,1.04-1.15,1.55-8.55-2.44-17.33-4.32-25.59-7.53-5.42-2.1-7.26-7.51-6.63-13.36.61-5.69,3.84-9.48,9.04-11.53,11.33-4.47,21.91-.8,29.36,10.21,1.95,2.88,3.7,5.94,5.19,9.08,3.62,7.69,9.66,12.93,17.52,17.64Z"/>
      <path class="cls-1" d="M624.77,390.53c7.06,1.5,13.24,2.55,19.27,4.15,8.46,2.24,13.14,8.24,12.38,15.16-.75,6.74-7.54,12.28-15.77,12.66-10.57.48-19.03-3.68-24.17-12.87-5.12-9.14-11.63-16.52-21.79-21.27,10.09-4.18,16.04-11.55,20.32-20.62,4.58-9.72,11.27-16.89,22.89-17.41,5.66-.25,10.97.74,14.99,5.21,6.72,7.47,5.09,18.02-4.18,21.89-7.53,3.14-15.73,4.66-23.63,6.9-.43-.44-.86-.87-1.29-1.31,2.65-4.2,4.84-8.84,8.16-12.41,1.57-1.68,5.4-1.98,8.09-1.72,3.59.35,6.26-.33,6.77-3.93.54-3.77-3.1-4.27-5.46-4.23-3.52.07-7.68.24-10.42,2.09-14.7,9.91-19.76,31.31-3.35,44.71,3.48,2.84,8.63,3.95,13.22,4.96,1.59.35,3.77-2,5.69-3.12-1.59-1.26-3.05-3.39-4.78-3.63-8.5-1.18-13.84-5.73-16.92-15.21Z"/>
      <path class="cls-1" d="M500.53,568.65c-12.54,16.83-18.14,34.83-14.12,56.36-16.75-16.94-30.66-34-33.52-57.45-.21-1.68.83-4.15,2.14-5.28,5.76-5,11.75-9.74,17.86-14.31,1.05-.79,3.71-.98,4.57-.24,7.74,6.73,15.24,13.74,23.09,20.92Z"/>
      <path class="cls-1" d="M199.31,625.91c4.99-21.7-.51-39.88-13.59-57,8.43-7.73,16.7-15.32,24.85-22.8,7.21,5.33,14.21,10.34,20.98,15.66,1.12.88,2,3.22,1.68,4.58-1.76,7.4-3.07,15.09-6.14,21.96-6.3,14.08-15.76,26.1-27.78,37.6Z"/>
      <path class="cls-1" d="M412.46,478.68c-9.64,1.42-24.37-6.86-28.11-16.44-7.01-18-8.69-36.44-3.35-55.26,1.52-5.35,2.8-10.77,4.4-16.95,4.93,16.28,8.79,31.91,14.52,46.82,3,7.81,8.59,14.97,14.24,21.33,9.7,10.93,20.38,21,30.58,31.48,1.72,1.76,3.14,3.82,5.46,6.67-7.75-3.7-14.41-6.94-21.13-10.05-5.55-2.57-11.17-4.98-16.76-7.46-4.62-9.86-11.48-18.04-19.07-25.86-.23,1.91-.07,3.69.81,4.95,3.59,5.15,7.19,10.31,11.21,15.12,1.91,2.29,4.76,3.79,7.18,5.66Z"/>
      <path class="cls-1" d="M233.69,497.52c6.03-6.55,11.06-12.18,16.28-17.63,9.32-9.73,19.26-18.92,27.92-29.19,4.45-5.29,7.28-12.2,9.81-18.78,3.39-8.81,5.81-18,8.57-27.05,1.39-4.55,2.63-9.15,3.92-13.65,8.04,24.05,11.27,48.22.19,72.46-2.97,6.5-8.35,10.2-14.83,12.48-2.78.98-5.69,1.57-9.31,2.54,7.56-9.19,15.69-17.21,18.88-28.32-.5-.35-1-.69-1.5-1.04-5.12,7.23-10.58,14.25-15.25,21.75-3.86,6.2-8.63,10.22-15.64,12.81-9.51,3.53-18.46,8.56-29.06,13.62Z"/>
      <path class="cls-1" d="M523.35,589.46c16.44,7.24,32.88,14.48,49.63,21.85-5.52,17.16-2.17,34.53,5.13,52.79-8.39-1.41-15.69-2.58-22.96-3.93-.79-.15-1.64-1.17-2.05-2-4.38-8.72-8.69-17.49-13.01-26.24.36-.23.71-.46,1.07-.68,8.03,7.31,16.06,14.63,24.08,21.94.61-.49,1.22-.98,1.84-1.47-1.27-2.27-2.22-4.82-3.87-6.77-3.23-3.79-6.62-7.53-10.37-10.8-12.33-10.73-20.64-24.24-27.52-38.8-.77-1.64-1.69-3.21-2.54-4.82.19-.36.39-.72.58-1.09Z"/>
      <path class="cls-1" d="M145.85,632.41c-4.37,8.83-8.69,17.68-13.18,26.46-.43.85-1.81,1.55-2.84,1.71-6.86,1.05-13.74,1.93-21.85,3.04,7.1-17.83,10.49-34.81,5.28-51.78,16.24-7.34,32.43-14.66,49.91-22.57-7.15,15.78-14.08,29.96-25.88,41.24-5.29,5.06-10.24,10.48-15.09,15.96-1.25,1.42-1.53,3.69-2.26,5.57.62.4,1.24.79,1.86,1.19,7.63-7.12,15.26-14.24,22.89-21.36.39.18.77.37,1.16.55Z"/>
      <path class="cls-1" d="M402.47,619.25c9.48,11.16,18.34,23.07,28.71,33.47,14.97,15.01,32.08,27.5,52.04,35.28,8.25,3.22,11.05,10.32,15.76,17.83-3.19-.33-5.47-.21-7.53-.82-39.54-11.72-70.18-34.96-90.91-70.8-.98-1.7-.78-4.25-.64-6.36.11-1.6,1.05-3.12,1.53-4.71.48-1.58.86-3.2,1.04-3.89Z"/>
      <path class="cls-1" d="M186.83,705.93c4.85-8.47,9.23-14.79,17.95-18.4,23.06-9.53,42.57-24.5,58.98-43.26,7.09-8.1,13.33-16.95,19.97-25.49,1.1,3.23,2.61,6.81,3.47,10.55.35,1.52-.31,3.61-1.17,5.04-15.62,25.73-36.06,46.51-63.38,59.7-9.08,4.38-18.81,7.43-28.31,10.89-1.95.71-4.21.57-7.5.96Z"/>
      <path class="cls-1" d="M277.26,584.48c2.5.94,4.78,1.8,6.58,2.48-1.95,31.19-19.72,52.74-42.09,71.07-10.08,8.26-21.67,14.69-32.6,21.91-1.06.7-2.34,1.05-4.12,1.83,1.48-6.02,2.72-11.47,4.24-16.84.31-1.1,1.47-2.19,2.52-2.81,30.39-17.94,51.2-43.97,64.68-76.24.12-.29.31-.55.79-1.4Z"/>
      <path class="cls-1" d="M481.14,680.47c-30.62-4.59-77.51-59.33-79.58-93.25,2.53-.71,5.17-1.46,6.78-1.91,6.22,11.11,11.43,22.27,18.31,32.3,12.26,17.85,27.88,32.43,46.59,43.61,1.9,1.13,3.24,3.78,4.05,6.01,1.57,4.29,2.58,8.79,3.84,13.26Z"/>
      <path class="cls-1" d="M119.23,579.52c8.35-18.4,27.3-33.97,69.1-23.09-2.11,1.96-4.11,3.6-5.84,5.48-3.14,3.42-6.82,6.61-9,10.59-3.7,6.78-8.66,11.12-16.41,11.7-2.94.22-5.97-.03-8.9-.45-8.19-1.18-16.36-2.58-24.54-3.85-1.43-.22-2.89-.25-4.42-.38Z"/>
      <path class="cls-1" d="M567.07,578.73c-10.92,2.23-21.18,5.49-31.57,6-6.27.31-13.95-.27-18.81-6.67-5.6-7.38-11.47-14.55-17.03-21.59,24.35-7.04,46.41-5.27,61.29,13.32,2.44,3.05,4.43,6.45,6.12,8.94Z"/>
      <path class="cls-1" d="M236.34,238.9c9.79,1.74,19.38,3.31,28.91,5.2,2.89.57,5.9,1.55,8.31,3.16,1.94,1.3,4.15,3.74,4.33,5.84.56,6.55.2,13.17.2,18.51-7.3-2.84-15.84-6.15-25.12-9.76,0,.09-.17-1.02-.17-2.14,0-3.48-.61-6.15-5.06-6.41-4.57-.26-5.91,2.4-6.27,6.01-1.13,11.4-1.97,22.81,2.73,34.3-5.28-1.59-10.05-2.81-14.62-4.57-1.08-.42-1.93-2.56-2.12-4.01-1.41-10.45.94-20.5,3.7-30.45,1.41-5.08,3.29-10.04,5.17-15.7Z"/>
      <path class="cls-1" d="M158.96,660.72c3.03,6.23,2.14,9.25-4.74,11.27-9.06,2.66-18.36,4.53-27.62,6.43-8.29,1.7-16.66,3.01-25.01,4.41-2.44.41-4.93.75-7.4.74-4.29-.01-7.79-1.73-9.75-5.74-1.95-3.98-1.23-7.67,1.34-11.21,9.5-13.09,12.28-27.79,10.06-43.57-1.12-7.96-1.14-8.1,8.11-10.71,1.08,4.94,2.79,9.8,3.11,14.75.91,13.79-2.14,26.77-9.6,38.56-2.02,3.19-4.36,5.62-8.49,2.42,1.18,8.06,4.37,8.99,11.21,5.67,4.86-2.36,10.69-3.14,16.18-3.71,14.58-1.53,28.93-3.86,42.61-9.31Z"/>
      <path class="cls-1" d="M449.7,239.39c5.45,14.93,10.37,29.32,9.57,45.01-.14,2.68-.8,4.31-3.55,5.14-4.41,1.32-8.72,2.98-13.99,4.81,4.23-11.32,4.04-22.16,3-33.09-.56-5.82-2.56-8.3-6.72-7.77-2.98.38-4.96,1.77-5,5.1-.02,1.48-.2,2.95-.25,3.68-8.81,3.15-17.14,6.12-24.93,8.91,0-5.4.04-11.79-.01-18.19-.04-4.72,4.44-6.62,6.9-6.43,4.42.35,6.83-3.11,10.7-3.5,8.06-.81,16.05-2.38,24.29-3.68Z"/>
      <path class="cls-1" d="M597.43,667.01c-4.86,3.3-6.58,3.33-9.4-1.54-9.65-16.65-12.2-34.19-5.89-52.65,7.83.66,8.95,2.26,7.91,9.29-2.4,16.25-.01,31.46,10.24,44.9,4.15,5.44,1.94,12.97-4.76,15.49-2.68,1-5.96,1.35-8.78.89-14.75-2.4-29.46-5.05-44.13-7.86-3.88-.75-7.69-2.17-11.35-3.69-6.15-2.57-6.63-3.88-4.92-10.96,6.81,1.91,13.53,4.28,20.45,5.6,9.62,1.83,19.41,2.73,29.08,4.32,3.53.58,7.15,1.59,10.33,3.19,6.49,3.26,11.06.61,11.24-6.96Z"/>
      <path class="cls-1" d="M200.63,374.71c-6.35,4.72-12.22,9.07-17.36,12.89-3.77-1.52-7-3.29-10.44-4-1.44-.29-3.69,1.35-4.96,2.69-2.79,2.92-1.84,7.57,1.78,10.44,3.81,3.03,8.18,1.9,12.66-3.14,3.01,2.76,5.91,5.65,9.05,8.25,3.18,2.64,6.59,5,9.91,7.48-5.19,7.25-12.65,9.37-20.7,6.02-12.27-5.11-20.26-15.33-30.04-24.25,9.33-11.11,18.98-21.12,32.52-26.22,2.97-1.12,6.29-1.32,8.97,1.95,2.38,2.9,5.55,5.14,8.61,7.89Z"/>
      <path class="cls-1" d="M484.05,409.96c6.65-5.28,13.44-10.67,20.14-15.99,2.67,4.41,7.38,5.79,11.71,2.81,3.68-2.53,4.63-7.23,2.12-10.47-3.44-4.43-8.95-3.8-14.94,1.88-5.86-4.42-11.78-8.89-17.75-13.4,4.41-3.8,9.23-7.96,13.62-11.75,14.52,5.54,26.15,15.49,36.63,28.29-7.96,6.74-15.36,14.21-23.91,19.97-14.6,9.85-17.44,7.52-27.6-1.34Z"/>
      <path class="cls-1" d="M169.15,646.72c6.46-17.18,6.24-33.79,1.52-50.56-.5-1.77.2-4.31,1.19-5.99,3.03-5.15,6.48-10.05,10.02-15.43,11.29,14.33,15.47,30.04,11.36,47.64-2.51,10.73-12.83,21.21-24.08,24.34Z"/>
      <path class="cls-1" d="M517.22,646.59c-31.79-13.14-32.43-45.62-12.96-71.9,3.54,5.21,7.07,10.17,10.29,15.32.78,1.26,1.05,3.27.7,4.73-4.04,17.09-5.81,34.09,1.97,51.84Z"/>
      <path class="cls-1" d="M191.3,254.43c-1.45,3.07-2.91,5.22-6.48,2.98-17.71-11.17-36.74-18.45-57.89-19.38-1.09-.05-2.17-.43-3.3-.66,6.25-16.01,17.65-21,33.55-14.74,13.34,5.25,23.09,14.73,30.79,26.55,1.09,1.67,2.13,3.36,3.32,5.24Z"/>
      <path class="cls-1" d="M561.5,238.48c-23.34-.32-43.57,8.02-62.58,20.09-3.6-1.68-3.98-3.64-2.04-7.09,5.66-10.03,12.77-18.61,22.66-24.67,7.52-4.6,15.59-7.47,24.54-6.25,8.35,1.14,15.55,8.45,17.42,17.92Z"/>
      <path class="cls-1" d="M123.25,392.65c-4.17,5.36-8.62,10.62-12.55,16.22-9.86,14.05-22.65,23.25-40.08,25.04-2.23.23-4.5.03-8.18.03,1.94-1.82,2.65-2.62,3.49-3.26,6.01-4.6,9.94-10.62,12.56-17.66,5.14-13.82,15.3-20.4,29.91-20.38,5.16,0,10.31,0,14.86,0Z"/>
      <path class="cls-1" d="M620.39,342.89c-8.41,5.17-11.5,13.47-14.18,22.03-.25.79-.63,1.54-.97,2.29-4.67,10.45-12.86,16.47-24.07,17.69-6.7.73-13.55.13-18.91.13,5.92-7.43,12.42-15.82,19.18-23.99,7.33-8.87,16.06-15.91,27.56-18.58,3.39-.78,6.96-.73,10.45-1.07.31.5.62.99.92,1.49Z"/>
      <path class="cls-1" d="M623.04,433.32c-18.42.91-33.09-6.05-44.39-20.15-3.01-3.75-5.47-7.93-8.29-11.83-2.52-3.47-5.2-6.83-7.01-9.2,5.73.34,13.61.44,21.4,1.37,9.85,1.18,16.91,7,20.93,15.79,4.2,9.17,8.47,18.05,17.37,24.01Z"/>
      <path class="cls-1" d="M124.12,385.31c-4.84,0-10.66.23-16.45-.05-13.79-.65-23.26-7.88-27.86-20.56-3.03-8.35-5.81-16.53-14.18-22.63,11.76-1.75,20.5,2.24,28.17,8.56,4.57,3.77,8.4,8.5,12.29,13.02,6.21,7.22,12.2,14.62,18.04,21.65Z"/>
      <path class="cls-1" d="M239.48,214.21c-4.13-15.78-4.03-31.82-4.65-49.07,14.12,10.04,25.73,20.85,35.2,34.69-10.3,4.85-20.24,9.53-30.54,14.38Z"/>
      <path class="cls-1" d="M416.47,199.7c8.9-13.46,20.41-23.84,33.95-33.99.47,16.96.46,32.93-3.8,48.84-10.2-5.02-19.94-9.82-30.15-14.84Z"/>
      <path class="cls-1" d="M520.99,603.08c5.14,9.9,12.71,18.36,15.01,30,1.32,6.67,5.26,12.82,8.09,19.17.7,1.57,1.66,3.01,2.71,4.89-16.9-1.57-26.14-10.41-28.03-27.64-.94-8.6-.06-17.39,0-26.1.74-.11,1.48-.22,2.22-.33Z"/>
      <path class="cls-1" d="M139.79,657.37c11.04-16.96,11.53-38.68,26.16-53.7,2.59,8.74,2.5,18.19,1.07,27.72-.02.16-.09.32-.12.48-3.46,17.38-9.01,22.64-27.11,25.49Z"/>
      <path class="cls-1" d="M343.44,579.87c-5.82-7.85-13.25-13.03-13.22-22.81.02-5.63,1.94-10.01,7.38-12.4,5.04-2.21,10.86-1.31,14.77,2.55,4.2,4.15,5.72,9.45,3.07,14.56-3.15,6.08-7.55,11.51-12,18.1Z"/>
      <path class="cls-1" d="M49.35,387.95c-2.39.47-4.88.65-7.15,1.45-5.56,1.97-11.33,3.67-16.45,6.5-7.63,4.22-21.99.58-25.6-7.39-.47-1.03.31-3.56,1.26-4.14,5.04-3.04,10.24-5.85,15.58-8.32,1.42-.66,3.75-.31,5.28.4,4.5,2.11,8.63,5.06,13.22,6.88,4.42,1.74,9.23,2.47,13.87,3.65,0,.32-.01.65-.02.97Z"/>
      <path class="cls-1" d="M635.32,386.76c9.47-.4,17.64-4,25.55-8.95,6.84-4.27,21.47.87,24.81,8.12.44.95-.15,2.84-.9,3.8-6.96,8.83-17.14,10.14-26.83,4.87-5.38-2.93-11.74-4.07-17.7-5.89-1.51-.46-3.17-.44-4.76-.64-.05-.44-.11-.88-.16-1.31Z"/>
      <path class="cls-1" d="M285.82,165.54c14.55-2.01,34.27,9.84,37.07,22.74-5.36.72-10.68,1.48-16,2.14q-10.76,1.34-15.03-8.83c-1.99-4.74-3.96-9.48-5.9-14.23-.18-.43-.09-.97-.14-1.82Z"/>
      <path class="cls-1" d="M401.18,165.78c-3.43,8.28-6.58,16.12-10.01,23.83-.41.92-2.38,1.75-3.53,1.63-7.9-.84-15.77-1.94-23.63-2.95.43-10.88,23.39-25,37.17-22.51Z"/>
      <path class="cls-1" d="M576.1,354.47c-14.41,21.48-20.23,27.13-31.07,30.1-.79-8.5-1.57-16.93-2.42-26.13,11.11-1.32,22.03-2.62,33.48-3.98Z"/>
      <path class="cls-1" d="M109.34,354.38c12.12,1.41,22.92,2.66,33.65,3.91-.7,9.16-1.34,17.41-2.02,26.25-15.63-4.26-21.82-18.12-31.63-30.16Z"/>
      <path class="cls-1" d="M356.33,517.23c.06,6.71-5.81,12.32-13.01,12.4-7.28.09-12.85-4.91-12.99-11.66-.16-7.66,5.49-13.97,12.61-14.1,7.25-.13,13.32,5.92,13.39,13.35Z"/>
      <path class="cls-1" d="M425,133.2c-1.09-6.96,3.44-10.51,8.24-13.52,5.47-3.44,11.44-6.08,16.9-9.54,7.27-4.6,12.04-11.33,14.91-19.42.44-1.24.74-2.77,1.64-3.56,1.21-1.06,2.94-1.54,4.44-2.27.63,1.51,2,3.14,1.78,4.51-1.43,8.62-5.22,16.36-11.88,21.92-5.68,4.74-12.27,8.45-18.64,12.3-5.5,3.33-11.27,6.23-17.39,9.57Z"/>
      <path class="cls-1" d="M261.18,132.81c-8.74-4.76-17.44-9.19-25.83-14.14-11.34-6.68-19.53-15.96-21.73-29.43-.21-1.3,1.04-2.84,1.61-4.27,1.66.89,4.43,1.44,4.8,2.71,4.39,14.95,15.27,23.21,28.78,29.05,7.12,3.07,12,7.98,12.37,16.09Z"/>
      <path class="cls-1" d="M110.34,423.07c9.27-11.91,14.31-26.07,30.6-29.4.54,7.48,1.16,14.83,1.5,22.19.04.79-1.47,2.23-2.43,2.4-9.47,1.65-18.97,3.1-29.66,4.8Z"/>
      <path class="cls-1" d="M543.34,417.57c.54-8.49,1.02-16.25,1.53-24.31,16.11,3.53,21.2,18.17,31.3,29.72-11.66-1.92-21.99-3.62-32.84-5.41Z"/>
      <path class="cls-1" d="M342.44,413.97c-7.07-.12-12-5.33-11.89-12.59.1-6.85,6.05-12.55,12.97-12.41,7.01.14,12.67,5.86,12.69,12.81.02,6.8-6.22,12.32-13.77,12.19Z"/>
      <path class="cls-1" d="M390.94,146.75c-3.22,10.17-9.53,16.14-17.98,20.16-7.45,3.54-13.32,8.42-16.08,16.69-1.38,4.12-3.5,2.1-4.52.64,2.27-5.6,4.21-10.43,6.19-15.24,4.55-11.07,11.75-19.25,24.05-21.65,2.55-.5,5.21-.39,8.34-.6Z"/>
      <path class="cls-1" d="M330.41,363.41c.05-7.43,5.18-12.59,12.51-12.58,7.31.01,13.23,5.71,13.26,12.76.02,6.64-6.06,12.64-12.89,12.7-7.44.07-12.92-5.42-12.87-12.89ZM335.52,361.39c.39.08.78.17,1.17.25.45-.64.76-1.61,1.36-1.85,1.8-.7,3.77-.97,5.5-1.78.24-.11-.54-2.37-.85-3.64-1.98.57-4.4.63-5.8,1.87-1.11.98-.96,3.38-1.38,5.15Z"/>
      <path class="cls-1" d="M184.37,263.78c-3.87,5.15-7.43,9.89-11.52,15.32-9.61-8.2-18.87-16.11-28.14-24.02.23-.43.46-.86.69-1.3,13.63-.27,26.32,3.35,38.97,10Z"/>
      <path class="cls-1" d="M541.41,254.81c-9.32,8.1-18.64,16.21-28.27,24.58-4.03-5.57-7.41-10.23-11.15-15.39,12.18-7.5,25.25-9.88,38.8-10.45.2.42.41.84.61,1.26Z"/>
      <path class="cls-1" d="M117.71,225.22c-5.79-5.03-12.26-7.88-20.15-7.98-9.19-.11-17.86-2.22-23.37-10.71-.8-1.24-1.84-2.65-1.84-3.99,0-1.46.72-3.39,1.81-4.22.73-.56,3.45,0,3.91.83,6.04,10.76,16.66,9.56,26.59,11.09,4.88.75,9.66,3.85,13.84,6.8,3.2,2.27,2.93,5.72-.79,8.18Z"/>
      <path class="cls-1" d="M568.35,225.47c-4.04-2.27-4.22-4.55-1.41-7.73,4.49-5.08,10.21-7.23,16.69-7.84,3.63-.34,7.29-.41,10.93-.7,5.32-.42,8.52-3.93,11.58-7.83,1.52-1.94,3.18-5,6.42-2.61,2.98,2.2,1.23,4.76-.12,7.05-4.49,7.6-11.74,10.86-20.03,11.12-9.13.28-17.46,1.98-24.05,8.54Z"/>
      <path class="cls-1" d="M101.04,539.4c-.7,9.43-5.09,16.86-11.53,23.18-5.38,5.27-10.86,10.31-11.63,18.54-.1,1.08-2.99,3.02-3.54,2.71-1.59-.9-3.58-2.64-3.75-4.23-.75-7.1,3.71-12.07,7.92-17.04,4.26-5.03,8.6-10,12.73-15.14,1-1.24,1.56-2.96,1.9-4.56,1.04-4.85,4-4.86,7.89-3.46Z"/>
      <path class="cls-1" d="M616.43,580.04c-.97.99-2.19,3.27-3.68,3.46-1.31.17-3.89-1.77-4.24-3.19-1.8-7.3-6.34-12.45-11.46-17.65-4.35-4.41-7.65-9.89-11.09-15.11-1.01-1.54-1.36-3.83-1.2-5.71.1-1.14,1.68-2.94,2.71-3.02,1.39-.1,3.96.92,4.17,1.87,1.72,7.78,7.18,12.86,12.26,18.33,4.81,5.18,10.42,9.9,11.7,17.48.14.81.37,1.61.82,3.53Z"/>
      <path class="cls-1" d="M27.77,451.28c-.1,6.18-5.31,11.15-11.65,11.11-6.22-.04-11.04-5.2-10.94-11.7.1-6.19,5.33-10.92,11.86-10.73,6.2.18,10.83,5.06,10.73,11.32Z"/>
      <path class="cls-1" d="M658.58,451.76c-.04-6.79,4.34-11.52,10.82-11.69,6.3-.16,11.69,4.97,11.62,11.08-.06,5.82-5.59,11.14-11.76,11.3-5.91.15-10.65-4.59-10.69-10.69Z"/>
      <path class="cls-1" d="M339.79,314.67c7.37-1.6,13.99,1.9,15.35,8.13,1.54,7.01-2.41,13.24-9.29,14.63-7.3,1.48-13.92-2.65-14.89-9.62-.87-6.26,3.58-9.57,7.85-12.86-.78,1.49-1.72,2.92-2.31,4.48-.47,1.26-.93,2.77-.64,3.99.19.83,1.85,2.04,2.57,1.87,2.06-.46,4.14-1.31,5.89-2.48,1.05-.71,2.2-2.43,2.03-3.49-.17-1.07-1.84-2-2.99-2.79-1.1-.76-2.38-1.25-3.58-1.86Z"/>
      <path class="cls-1" d="M341.02,249.19c7.77-.53,12.99,2.84,14.16,9.12,1.16,6.16-2.5,12.23-8.43,14-5.45,1.63-12.3-1.08-14.59-5.77-2.43-4.99-1.44-10.52,2.76-13.14.16,1.89.3,3.54.4,4.62,2.63.27,4.95.78,7.24.63,1.22-.08,2.74-1.05,3.43-2.08.49-.73.23-2.56-.39-3.32-1.27-1.55-3.01-2.71-4.58-4.05Z"/>
      <path class="cls-1" d="M145.12,588.98c-10.65,7.35-22.11,12.78-35.59,14.77,1.09-3.67,1.91-7,3.06-10.21,3.67-10.21,1.16-9.23,12.6-8.4,6.61.48,13.17,1.62,19.75,2.46.06.46.12.92.18,1.39Z"/>
      <path class="cls-1" d="M650.4,543.48c.09-6.42,5.16-11.7,11.18-11.64,5.62.05,10.91,5.78,10.72,11.6-.17,5.57-5.88,11.09-11.47,11.08-5.76,0-10.52-5.05-10.43-11.04Z"/>
      <path class="cls-1" d="M35.38,543.23c.08,5.94-4.69,11.08-10.41,11.23-5.97.15-11.21-5.04-11.19-11.07.03-5.99,5.2-11.23,11.11-11.25,5.69-.02,10.41,4.96,10.49,11.09Z"/>
      <path class="cls-1" d="M541.89,587.41c8.84-.85,17.67-1.76,26.52-2.43.89-.07,2.43,1.19,2.76,2.14,1.86,5.26,3.45,10.62,5.44,16.93-13.04-3.24-24.55-7.37-34.88-14.35.05-.76.1-1.53.15-2.29Z"/>
      <path class="cls-1" d="M346.69,465.09c8.36,3.95,11.72,10.91,8.33,17.25-3.61,6.77-11.94,9.42-18.31,5.84-6.35-3.57-7.78-10.88-3.72-17.73.96,1.4,1.71,3.29,3.1,4.3,1.56,1.13,3.8,2.25,5.56,2.01,6.22-.83,6.96-2.89,5.02-11.67Z"/>
      <path class="cls-1" d="M49.9,557.31c9.68.71,16.53-3.41,20.69-11.83.73-1.49.98-3.4,2.08-4.47,1.17-1.14,3.08-1.51,4.67-2.22.56,1.34,1.78,2.78,1.58,3.99-2,12.39-16.01,24.41-28.6,24.36-2.21,0-4.68-1.33-6.49-2.73-.71-.55-.58-3.67.26-4.42,1.51-1.37,3.83-1.84,5.81-2.69Z"/>
      <path class="cls-1" d="M607.03,539.52c4.22-1.72,6.45-1.51,7.46,3.64,1.68,8.61,10.53,14.85,19.45,14.79.66,0,1.33,0,1.99-.06,3.46-.34,6.82.27,6.96,4.34.13,3.8-3.42,4.58-6.42,4.89-13.27,1.4-29.79-14.04-29.43-27.6Z"/>
      <path class="cls-1" d="M342.53,155.59c-2.18-6.55-4.64-13.02-6.43-19.67-1.32-4.91.37-9.5,3.55-13.43,2.48-3.06,5.26-2.93,7.66.26,3.26,4.31,3.77,9.17,2.36,14.17-1.75,6.2-3.82,12.3-5.75,18.44-.46.08-.93.15-1.39.23Z"/>
      <path class="cls-1" d="M450.04,738.03c-6.14-3.27-11.91-5.31-16.33-8.98-4.65-3.86-8.17-9.15-11.78-14.11-.76-1.04.26-3.37.46-5.1,1.71.21,3.64,0,5.06.76,1.36.71,2.29,2.36,3.24,3.71,4.6,6.56,10.4,10.99,18.74,11.75,2.88.26,6.55,1.31,5.54,5.42-.52,2.11-2.78,3.8-4.94,6.55Z"/>
      <path class="cls-1" d="M236.06,736.87c-1.22-1.25-3.69-2.69-4.35-4.72-.9-2.78.71-5.05,4.07-5.51,9.33-1.28,16.11-6.44,21.32-14.04,1.45-2.12,2.85-4.93,6.19-2.68,3.65,2.46,1.21,4.75-.31,7.07-5.72,8.77-12.18,16.62-23.18,18.92-.81.17-1.6.41-3.74.95Z"/>
      <path class="cls-1" d="M342.94,793.66c6.15-.04,10.22,3.66,10.38,9.46.17,6.04-4.36,10.52-10.64,10.51-5.84,0-10.03-4.14-10.08-9.93-.05-6.17,3.89-10,10.34-10.04Z"/>
      <path class="cls-1" d="M333.5,432.18c1.17,9.63,1.95,12.64,9.9,8.82-1.05-1.11-1.98-2.09-3.01-3.18.38-.14.8-.28,1.2-.45,2.98-1.25,6.52-1.89,6.23-6.47-.02-.39,2.71-1.66,3.31-1.25,1.57,1.06,3.03,2.63,3.9,4.32,2.6,5.03.84,10.83-4.06,14.45-4.98,3.67-12.7,3.32-17.01-.77-3.95-3.75-4.28-9.5-.46-15.47Z"/>
      <path class="cls-1" d="M424.62,683.99c2.16,1.98,4.51,3.8,6.45,5.98,5.51,6.18,11.82,11.13,19.53,14.33,2.4,1,5.86,2.08,4.01,6.06-1.7,3.65-4.64,3.12-7.63,1.84-10.86-4.68-18.3-13-24.09-22.95-.68-1.17-.09-3.07-.09-4.63.61-.21,1.21-.42,1.82-.63Z"/>
      <path class="cls-1" d="M260.5,104.02c-2.64.75-4.55,2.01-5.78,1.53-11.34-4.42-19.78-11.84-23.19-23.97-.53-1.88-1.07-4.05-.6-5.83.37-1.39,2.12-2.84,3.58-3.37.9-.32,3.45,1.01,3.48,1.68.63,13.55,10.38,20.42,19.82,27.54.5.38.94.83,2.7,2.4Z"/>
      <path class="cls-1" d="M234.29,713.77c-.9-.89-2.86-1.97-3.23-3.44-.29-1.16,1.03-3.6,2.23-4.12,10.24-4.5,18.74-11.09,25.78-19.76.81-1,3.03-.85,4.59-1.23.04,1.52.7,3.45.01,4.5-6.55,10.01-14.75,18.29-25.9,23.2-.74.33-1.59.4-3.48.86Z"/>
      <path class="cls-1" d="M160.49,695.05c-.07-5.89,4.15-10.27,9.84-10.2,5.17.06,9.7,4.51,9.65,9.49-.05,5.49-4.36,10.07-9.57,10.18-5.8.12-9.85-3.75-9.92-9.46Z"/>
      <path class="cls-1" d="M455.02,74.92c-.68,14.96-11.04,27.65-24.56,30.91-.95.23-2.74-.29-3.06-.97-.39-.83,0-2.63.71-3.24,2.36-2.05,4.91-3.95,7.59-5.57,6.24-3.74,9.56-9.32,11.04-16.26.41-1.92.7-4.16,1.88-5.54.89-1.04,3.11-1.3,4.71-1.23.76.03,1.45,1.64,1.68,1.91Z"/>
      <path class="cls-1" d="M506.43,695.29c-.06-5.99,3.7-9.71,9.92-9.83,5.64-.1,9.05,3.46,8.99,9.4-.04,5.15-4.23,9.46-9.4,9.66-5.24.2-9.47-3.89-9.52-9.24Z"/>
      <path class="cls-1" d="M685.15,348.05c-.06,4.83-4.45,9.35-8.82,9.1-4.61-.27-8.08-4.35-7.91-9.29.15-4.58,4.21-8.18,9.04-8.02,4.19.14,7.75,3.94,7.69,8.21Z"/>
      <path class="cls-1" d="M9.01,339.7c3.71.07,8.12,4.77,8.04,8.58-.11,5.38-3.8,9.2-8.64,8.97-4.19-.2-7.83-4.28-7.86-8.81-.03-4.6,4.06-8.82,8.46-8.74Z"/>
      <path class="cls-1" d="M499.65,647.98c6.96,3.52,12.63,6.23,18.1,9.31.99.56,1.92,3.04,1.47,3.95-1.16,2.35-2.67,5.27-4.82,6.22-3.9,1.73-9.19-.71-10.83-4.83-1.72-4.32-2.47-9.02-3.93-14.65Z"/>
      <path class="cls-1" d="M185.75,649.11c-.82,4.69-1.28,8.63-2.23,12.44-1.28,5.14-5.55,5.97-10.02,6.29-4.38.31-5.74-2.9-6.42-6.14-.29-1.35.72-3.84,1.88-4.47,5.17-2.84,10.61-5.19,16.8-8.12Z"/>
      <path class="cls-1" d="M337.76,234.17c4.24-3.77,8.33-7.4,12.48-11.08,3.99,3.38,5.12,7.22,3.11,11.36-2.12,4.36-7.8,7.01-12.6,5.87-5.22-1.23-8.2-4.95-8.09-10.5,1.86,1.59,3.56,3.03,5.1,4.35Z"/>
      <path class="cls-1" d="M410.6,687.01c-.67,3.29-.93,6.14-1.92,8.7-.46,1.19-2.34,2.55-3.54,2.52-1.1-.03-2.86-1.7-3.09-2.89-1.01-5.19-1.95-10.46-2.1-15.72-.05-1.82,2.3-3.7,3.56-5.55,1.66,1.24,4.05,2.15,4.8,3.8,1.32,2.92,1.63,6.29,2.29,9.14Z"/>
      <path class="cls-1" d="M275.78,685.92c.79-2.56,1.64-6.38,3.24-9.85.52-1.13,3.19-2.16,4.47-1.8,1.21.34,2.71,2.63,2.64,3.98-.33,5.92-1.05,11.83-1.97,17.69-.16,1.02-2,2.55-2.97,2.48-1.33-.09-3.33-1.23-3.7-2.35-.9-2.77-1.04-5.79-1.7-10.14Z"/>
      <path class="cls-1" d="M351.08,7.54c.11,3.49-4.35,8.54-7.71,8.72-3.83.21-8.35-4.34-8.39-8.47-.04-3.64,3.86-7.56,7.75-7.78,4.15-.24,8.22,3.44,8.35,7.53Z"/>
      <path class="cls-1" d="M253.43,750.11c0,4.64-3.28,8.28-7.46,8.28-3.97,0-7.48-3.62-7.52-7.77-.05-4.66,3.13-7.98,7.61-7.95,4.7.03,7.38,2.73,7.38,7.44Z"/>
      <path class="cls-1" d="M170.83,78.66c4.13.1,7.36,3.23,7.39,7.16.03,4.63-3.71,8.44-8.09,8.25-4.07-.18-7.01-3.61-6.98-8.12.04-4.32,3.28-7.39,7.68-7.29Z"/>
      <path class="cls-1" d="M522.6,86.25c-.15,4.74-3.28,7.63-8.05,7.42-3.95-.17-6.96-3.22-6.92-7,.05-4.59,3.82-8.2,8.33-7.98,4.38.22,6.78,2.95,6.63,7.56Z"/>
      <path class="cls-1" d="M447.66,750.07c.01,4.45-3.45,8.09-7.62,8.01-3.92-.07-7.41-4.12-7.31-8.47.09-3.94,3.35-6.91,7.53-6.84,4.9.08,7.39,2.53,7.4,7.3Z"/>
      <path class="cls-1" d="M466.57,68.41c.02-4.09,3.57-7.67,7.53-7.57,3.82.09,7.1,3.47,7.2,7.41.1,4.22-3.18,7.62-7.38,7.65-4.47.03-7.36-2.92-7.35-7.49Z"/>
      <path class="cls-1" d="M212.23,75.71c-4.27.01-7.34-2.85-7.46-6.95-.11-4.02,3.97-8.07,8-7.92,3.81.14,7.26,3.75,7.2,7.55-.06,4.21-3.33,7.3-7.74,7.32Z"/>
      <path class="cls-1" d="M87.35,153.94c.03,4.03-3.5,7.59-7.56,7.62-3.94.03-7.26-3.23-7.34-7.2-.08-4.16,3.27-7.53,7.49-7.54,4.01,0,7.39,3.24,7.41,7.13Z"/>
      <path class="cls-1" d="M82.12,610.64c-.06,3.45-3.7,6.97-7.14,6.88-4-.09-7.39-3.39-7.36-7.16.03-4.48,3.35-7.64,7.95-7.58,3.49.05,6.62,3.8,6.55,7.85Z"/>
      <path class="cls-1" d="M618.33,610.16c-.06,4.55-2.65,7.28-6.95,7.32-3.88.03-7.29-3.02-7.37-6.61-.1-4.5,3.38-8.03,7.82-7.91,3.95.11,6.55,2.98,6.49,7.2Z"/>
      <path class="cls-1" d="M613.16,154.05c-.09,4.1-3.63,7.57-7.67,7.54-3.86-.03-7.11-3.55-6.92-7.5.19-4.06,3.49-7.36,7.26-7.25,4.09.11,7.41,3.38,7.32,7.21Z"/>
      <path class="cls-1" d="M105.59,191.13c-.8,1.41-1.31,3.51-2.4,3.87-.98.33-3.31-.91-3.82-2.02-2.12-4.62-4.02-9.39-5.44-14.26-.38-1.31,1.19-4.53,1.93-4.56,1.78-.06,4.7.82,5.23,2.11,1.9,4.68,3.01,9.68,4.5,14.86Z"/>
      <path class="cls-1" d="M580.01,190.26c1.61-4.81,2.64-9.36,4.72-13.38.81-1.57,3.95-1.93,6.03-2.85.23,1.94,1.02,4.02.57,5.79-1.01,3.98-2.37,7.94-4.14,11.64-.68,1.41-2.89,2.08-4.4,3.09-.89-1.37-1.78-2.75-2.78-4.29Z"/>
      <path class="cls-1" d="M401.35,656.17c-.09,4.07-2.89,6.66-7.02,6.5-3.64-.14-6.86-3.64-6.65-7.21.24-3.98,3.15-6.78,7.03-6.76,4.16.02,6.73,2.92,6.64,7.46Z"/>
      <path class="cls-1" d="M291.37,648.82c3.86-.03,6.71,3.06,6.6,7.16-.09,3.37-3.35,6.52-6.86,6.62-4.12.11-6.55-2.23-6.58-6.34-.04-4.55,2.59-7.41,6.84-7.44Z"/>
      <path class="cls-1" d="M195.21,99.68c-4.21.07-6.78-2.23-6.85-6.12-.08-4.25,2.8-7.59,6.69-7.77,3.63-.17,6.83,2.72,7,6.32.2,4.15-2.84,7.5-6.84,7.57Z"/>
      <path class="cls-1" d="M490.71,99.6c-3.86,0-6.39-2.55-6.44-6.51-.05-4.42,2.71-7.42,6.92-7.27,4.16.15,6.31,2.55,6.5,6.62.21,4.29-2.66,7.16-6.98,7.17Z"/>
      <path class="cls-1" d="M262.05,73.47c-.1,5.97-3.06,9.83-6.11,9.8-2.77-.02-6.19-4.16-6.1-7.37.12-4.18,3.3-8.76,5.95-7.71,2.76,1.1,4.82,3.98,6.27,5.28Z"/>
      <path class="cls-1" d="M435.35,75.86c-.07,4.17-3.05,7.9-6.38,7.48-4.15-.52-5.02-3.91-5.15-7.32-.17-4.25,2.79-7.92,6-7.94,2.82-.01,5.59,3.89,5.53,7.77Z"/>
      <path class="cls-1" d="M675.53,290.53c-4.11.15-6.14-2.22-6.54-5.93-.34-3.14,3.44-6.57,6.81-6.6,3.25-.03,6.35,3.25,6.14,6.5-.24,3.72-2.77,6.11-6.41,6.03Z"/>
      <path class="cls-1" d="M16.53,284.28c-.34,3.27-1.91,5.88-5.93,6.22-3.05.25-6.53-2.93-6.7-6.01-.18-3.13,2.92-6.47,6.1-6.6,3.49-.14,6.46,2.59,6.53,6.39Z"/>
      <path class="cls-1" d="M73.8,178.05c1.03-1.55,1.72-3.68,2.69-3.82,1.65-.23,4.57.33,5.03,1.39,1.41,3.26,2.92,7.06,2.47,10.39-.5,3.74-4.41,4.09-6.36.8-1.56-2.62-2.48-5.61-3.83-8.76Z"/>
      <path class="cls-1" d="M611.9,177.91c-1.35,3.08-2.18,5.82-3.7,8.1-.82,1.23-3.11,2.58-4.21,2.23-1.33-.42-3.16-2.79-2.93-3.96.6-3.13,1.91-6.23,3.53-9.01.59-1.02,3.13-1.83,4.23-1.39,1.31.53,2.02,2.53,3.08,4.02Z"/>
      <path class="cls-1" d="M281.46,69c-5.53-.29-7.27-2.7-7.62-6.19-.35-3.51,2.55-6.23,6.25-6.12,3.96.11,6.14,2.85,5.61,6.1-.4,2.51-3.11,4.65-4.25,6.21Z"/>
      <path class="cls-1" d="M412.39,62.72c-.46,3.55-2.28,5.94-6.01,6.04-3.98.11-5.54-2.67-5.71-6.12-.18-3.77,1.99-5.95,5.75-5.97,3.84-.03,5.5,2.47,5.96,6.05Z"/>
      <path class="cls-1" d="M502.09,489.77c-10.03,13.02-13.47,9.84-19.99,4.86,6.66-1.62,13.32-3.24,19.99-4.86Z"/>
      <path class="cls-1" d="M640.37,448.78c-1.51,1.23-3.71,4.38-5.67,4.24-2.11-.15-5.49-3.32-5.57-5.29-.08-1.9,2.99-4.98,5.27-5.71,3.65-1.17,5.01,2.1,5.97,6.77Z"/>
      <path class="cls-1" d="M58.61,447.11c-3.42,2.9-5.3,5.77-7.47,6.02-3.02.34-6.07-2.35-5.29-5.62.53-2.22,3.28-4.84,5.52-5.41,1.49-.38,3.83,2.52,7.24,5.01Z"/>
      <path class="cls-1" d="M410.06,731.58c1.12,2.17,3.08,4.3,3.19,6.52.18,3.79-2.75,5.59-6.3,5.13-3.14-.41-5.35-2.8-4.23-5.95.82-2.3,3.23-4.03,4.93-6.02l2.41.32Z"/>
      <path class="cls-1" d="M272.55,738.74c.78-4.75,2.99-6.29,6.14-6.38,3.13-.09,5.56,1.42,5.58,4.91.03,3.76-2.38,6.26-5.86,5.84-2.1-.25-3.91-2.84-5.86-4.37Z"/>
      <path class="cls-1" d="M297.4,38.45c.95,1.32,3.23,3.11,3.47,5.13.36,3.04-1.22,5.89-5.07,5.89-3.29,0-5.14-1.62-5.25-5.1-.12-3.76,1.95-5.31,6.85-5.92Z"/>
      <path class="cls-1" d="M56.42,324.8c-2.07,1.61-4.12,4.44-6.2,4.45-1.85.02-4.89-2.86-5.3-4.88-.6-2.95,1.36-5.81,5.13-5.78,3.19.03,5.33,1.55,6.37,6.2Z"/>
      <path class="cls-1" d="M396.29,42.86c-.73,4.9-2.9,6.76-6.25,6.96-3.37.2-4.65-2.27-4.64-5.21.01-3.44,1.82-6.11,5.39-5.64,1.97.26,3.67,2.53,5.5,3.9Z"/>
      <path class="cls-1" d="M634.4,317.74c4.56,1.09,6.41,2.89,6.16,6.26-.24,3.26-1.86,6.31-5.42,5.44-2.07-.5-4.92-3.42-4.95-5.29-.04-2.11,2.69-4.28,4.21-6.42Z"/>
      <path class="cls-1" d="M310.82,702.39c-1.4-1.86-3.68-3.59-4.01-5.62-.52-3.27,1.7-6.17,5.12-5.76,1.96.24,5.1,2.96,5.07,4.52-.04,2.28-2.45,4.52-3.84,6.77-.78.03-1.56.06-2.34.09Z"/>
      <path class="cls-1" d="M653.81,318.52c-1.38-2.08-3.88-4.21-3.8-6.24.07-1.78,2.84-4.55,4.76-4.89,2.75-.48,5.96,1.4,5.44,4.84-.34,2.24-2.57,4.19-3.95,6.27-.82,0-1.63,0-2.45.01Z"/>
      <path class="cls-1" d="M55.82,207.5c-1.37-1.86-3.68-3.62-3.9-5.61-.39-3.4,2.02-5.47,5.6-5.5,3.29-.03,4.98,1.87,4.73,5.02-.24,3.05-1.55,5.47-6.42,6.09Z"/>
      <path class="cls-1" d="M37.68,312.12c-3.28,2.86-5.04,5.64-7.16,5.95-2.98.44-4.94-2.15-4.95-5.43-.01-3.35,1.9-5.64,5.09-5.23,2.01.26,3.77,2.43,7.02,4.71Z"/>
      <path class="cls-1" d="M380.29,697.7c-1.95,1.28-3.78,3.38-5.86,3.65-3.29.43-5.08-1.99-5.02-5.32.06-3.33,1.92-5.79,5.2-5.08,2.15.46,3.87,2.9,5.78,4.46-.03.77-.07,1.53-.1,2.3Z"/>
      <path class="cls-1" d="M634.81,202.79c-2.14,1.33-4.17,3.44-6.46,3.78-2.96.43-5.36-2-4.55-4.96.55-2.01,3.12-4.84,4.77-4.83,2.1,0,4.18,2.52,6.27,3.96-.01.69-.03,1.37-.04,2.06Z"/>
      <path class="cls-1" d="M377.78,673.49c1.96-1.2,4.2-3.65,5.81-3.29,1.87.42,4.52,3.43,4.37,5.09-.16,1.8-3.05,4.47-4.96,4.65-1.63.16-3.55-2.66-5.34-4.15.04-.77.08-1.54.12-2.3Z"/>
      <path class="cls-1" d="M301.15,680.52c-1.23-1.91-3.64-4.01-3.38-5.7.29-1.88,3-4.67,4.68-4.69,1.65-.02,4.46,2.82,4.68,4.64.2,1.74-2.29,3.8-3.6,5.71-.79.01-1.58.02-2.37.03Z"/>
      <path class="cls-1" d="M61.42,584.44c-3.4,2.39-5.32,4.75-7.3,4.81-1.49.04-3.95-2.66-4.4-4.51-.77-3.21,1.91-5.1,4.76-4.76,1.93.23,3.65,2.25,6.94,4.47Z"/>
      <path class="cls-1" d="M211.84,720.72c.51-4.84,2.46-6.88,5.44-5.75,1.76.66,4.19,3.86,3.78,5.01-.67,1.9-3.3,4-5.31,4.23-1.38.16-3.1-2.71-3.91-3.49Z"/>
      <path class="cls-1" d="M277.79,719.43c-1.29-1.71-3.7-3.51-3.58-5.12.13-1.86,2.3-4.81,3.92-5.06,2.67-.41,5.89,1.11,5.2,4.82-.36,1.92-2.21,3.56-3.38,5.33-.72,0-1.44.02-2.16.02Z"/>
      <path class="cls-1" d="M632.92,579c1.2,1.76,3.62,3.79,3.31,5.22-.44,2.01-2.9,3.59-4.5,5.35-1.51-1.55-4.13-3.01-4.25-4.66-.13-1.88,1.95-3.92,3.08-5.9.79,0,1.57,0,2.36-.01Z"/>
      <path class="cls-1" d="M476.17,719.66c-3.11,2.25-5.23,4.88-6.66,4.55-1.89-.43-4.13-3.04-4.49-5.03-.22-1.22,2.82-4.32,4.31-4.26,1.93.08,3.76,2.46,6.85,4.74Z"/>
      <path class="cls-1" d="M412.26,712.75c-.84,4.22-2.55,6.45-5.59,5.66-1.71-.45-3.69-2.94-4.06-4.81-.7-3.52,2.42-4.58,5.06-4.24,1.65.21,3.07,2.2,4.59,3.39Z"/>
      <path class="cls-1" d="M433.98,58.57c-1.74.99-3.67,2.97-5.17,2.68-1.52-.29-3.8-3.02-3.58-4.31.27-1.57,2.72-3.65,4.39-3.81,1.39-.14,3.03,2.17,4.55,3.4-.06.68-.13,1.36-.19,2.04Z"/>
      <path class="cls-1" d="M261.96,57.84c-1.8,1.24-3.51,3.22-5.43,3.44-1.12.13-3.6-2.54-3.59-3.93.01-1.5,2.07-3.99,3.51-4.21,1.61-.24,3.53,1.59,5.32,2.53.06.72.12,1.45.19,2.17Z"/>
      <path class="cls-1" d="M245.54,59.26c-3.04,1.98-4.59,3.73-6.34,3.96-3.03.4-4.78-2.12-4.16-4.67.39-1.61,2.85-3.64,4.52-3.76,1.45-.11,3.09,2.18,5.99,4.48Z"/>
      <path class="cls-1" d="M447.89,54.08c1.07,1.67,3.34,3.75,2.95,4.93-.63,1.85-3.05,3.08-4.71,4.58-1.26-1.42-3.61-2.91-3.53-4.25.12-1.84,2.07-3.57,3.24-5.34l2.05.09Z"/>
      <path class="cls-1" d="M60.86,177.03c-1.88,1.64-2.94,3.3-4.05,3.33-1.04.03-2.13-1.66-3.19-2.6,1.02-1.07,1.87-2.6,3.11-3.04.77-.27,2.13,1.12,4.13,2.3Z"/>
      <path class="cls-1" d="M676.7,421.43c-2.1,1.48-3.21,2.79-4.47,2.96-.74.1-2.61-1.94-2.42-2.46.45-1.26,1.65-2.64,2.86-3.07.7-.25,2.03,1.23,4.03,2.57Z"/>
      <path class="cls-1" d="M629.36,172.37c1.4,2.37,2.88,3.77,2.66,4.78-.27,1.19-2.03,2.05-3.14,3.05-.8-1.05-2.25-2.1-2.24-3.14.01-1.2,1.3-2.39,2.72-4.69Z"/>
      <path class="cls-1" d="M17.38,422.05c-1.81,1.13-2.98,2.44-3.95,2.31-1-.14-1.81-1.69-2.7-2.63,1.04-.97,1.97-2.45,3.17-2.72.72-.16,1.87,1.56,3.48,3.05Z"/>
      <path class="cls-1" d="M343.63,712.85c3.77,8.22,7.85,15.66,10.62,23.56,3,8.56-3.02,16.86-11.48,16.98-3.34.05-6.36-.7-7.05-5.25.98.07,1.81.18,2.65.19,5.64.08,10.15-4.34,9.03-9.87-1.01-4.95-3.23-9.68-5.14-14.41-1.43-3.54-2.53-6.91,1.37-11.2Z"/>
    </g>
  </g>
</svg>