<?xml version="1.0" encoding="UTF-8"?>
<svg id="Layer_2" data-name="Layer 2" xmlns="http://www.w3.org/2000/svg" viewBox="0 0 801.82 856.57">
  <defs>
    <style>
      .cls-1 {
        fill: #274a53;
        stroke-width: 0px;
      }
    </style>
  </defs>
  <g id="Layer_1-2" data-name="Layer 1">
    <g>
      <path class="cls-1" d="M344.45,121.77c7.53-6.08,11.63-12.25,10.27-21.48-.89-6.04-.43-12.32-.09-18.46.09-1.61,1.72-4.13,3.09-4.47,3.22-.81,3.14,2.22,3.17,4.27.11,8.3.05,16.61.05,25.82,4.31-2.63,7.93-4.56,11.17-7,1.01-.76,1.35-2.89,1.36-4.4.08-11.16,0-22.33-.03-33.49,0-1.5-.4-3.18.14-4.45.72-1.7,2.18-3.09,3.32-4.62,1.09,1.53,3.07,3.02,3.12,4.59.35,9.82.27,19.66.32,29.49.01,1.76,0,3.53,0,5.29.61.28,1.21.55,1.82.83,3.73-5.29,7.55-10.52,11.16-15.89,1.1-1.63,1.3-3.9,2.51-5.4,1.22-1.53,3.17-3.42,4.8-3.42,1.58,0,3.65,1.9,4.63,3.51,2.94,4.8,5.22,10,8.22,14.76,1.72,2.73,4.32,4.89,7.59,8.48.19-3.4.38-5.28.39-7.16.04-10.16.04-20.33.06-30.49,0-2.47-.48-5.49,3.33-5.37,3.7.11,3.26,3.18,3.28,5.6.08,12.16.28,24.33-.01,36.49-.1,4.24,1.17,6.84,4.93,8.63,2.22,1.06,4.18,2.66,7.01,4.52.19-3.71.48-6.91.49-10.11.05-17,.02-34,.04-50.99,0-1.66-.21-3.47.38-4.93.44-1.11,2.01-2.46,3.05-2.44,1.1.02,2.46,1.37,3.14,2.48.54.87.28,2.27.27,3.43-.01,18.33.38,36.68-.24,54.99-.3,8.76,1.35,15.95,9.47,21.83.92-6.96,2.32-13.69,2.6-20.47.85-20.13,1.2-40.28,1.91-60.41.1-2.98-1.43-7.82,3.6-7.8,5.08.03,3.41,4.8,3.47,7.83.16,7.64.05,15.28.05,22.75,13.23,3.11,26.09,5.77,38.76,9.18,37.44,10.07,72.08,26.46,104.93,46.89,42.49,26.43,78.84,59.64,108.9,99.54,39.65,52.61,65.8,111.26,76.46,176.47,5.65,34.56,5.42,69.28,2.37,104.1-2.62,29.85-8.31,59-18.49,87.16-24.55,67.93-63.04,126.32-118.89,172.78-48.7,40.51-104.2,67.8-165.14,83.97-41.5,11.01-83.89,14.65-126.78,11.16-56.23-4.57-108.85-21.1-158.67-47.32-44.11-23.22-82.96-53.03-115.57-90.78-41.89-48.47-71.05-103.72-85.9-166.07C.62,510.69-1.79,469.51,1.21,428.03c3.55-49.06,16.1-95.75,37.59-139.92,19.67-40.43,45.42-76.69,77.01-108.79,37.86-38.48,81.85-68.05,131.11-89.72,25.65-11.28,52.46-19.32,80.17-23.94,4.86-.81,6.68-2.65,6.36-7.65-.43-6.64-.35-13.34.05-19.98.11-1.82,2-4.89,3.31-5.02,3.1-.31,3.65,2.51,3.69,5.26.21,17.82.18,35.66.85,53.47.37,9.75,1.96,19.46,3.09,30.04ZM598.55,614.36c-.08-.65-.16-1.3-.24-1.95-2.47-.25-5.7-1.65-7.29-.59-15.05,10.12-29.9,20.56-44.65,31.12-7.58,5.42-14.8,11.34-22.3,16.87-1.07.79-2.86.62-4.31.89.25-1.64.36-3.32.82-4.91.2-.71,1.04-1.27,1.66-1.83,7.8-7.01,15.41-14.26,23.48-20.94,8.02-6.63,16.52-12.68,24.75-18.93-2.11-4.64-8.53-5.6-9.23-12.91,6.32,3.78,11.49,6.87,17.06,10.19,1.62-1.44,3.3-2.94,5.32-4.75-7.12-4.59-13.46-8.5-19.61-12.7-3.35-2.29-6.25-1.92-9.68-.15-22.04,11.38-44.16,22.62-66.27,33.87-1.54.78-3.23,1.26-4.89,1.9-2.89-5.88.23-8.97,4.22-11.08,22.67-11.95,45.46-23.67,68.17-35.54,3.83-2,7.14-1.49,10.77.67,10.15,6.05,20.92,11.19,30.56,17.95,7.64,5.36,14.23,6.38,21.86.97,1.72-1.22,3.88-2.22,5.95-2.47,3.1-.38,6.59-.82,9.39.2,5.1,1.86,9.81,4.77,14.62,7.21,37.45-34.69,76.16-28.02,115.68-3.1,1.7-4.11,3.25-7.75,4.68-11.43.27-.7.35-2.16.03-2.31-3.45-1.73-3.49-7.16-8.33-7.46-1.63-.1-3.19-1.25-4.78-1.92.07-.23.15-.46.22-.69,5.05,1.34,10.09,2.67,15.88,4.2,3.21-11.17,6.28-21.85,9.54-33.18-2.34,0-3.49,0-4.64,0-34.16,0-68.33.03-102.49.02-12.5,0-25.01.21-37.49-.16-9.27-.28-16.17-5.11-20.04-13.48-3.55-7.7-2.68-15.27,2.53-22.14,5.07-6.69,15.35-9.48,20.76-5.21,1.49,1.18,1.63,4.07,2.39,6.17-1.86.44-3.95,1.65-5.55,1.17-7.22-2.14-12.77,1.24-13.69,8.81-1.1,8.99,5.75,16.08,16.03,16.1,33.83.09,67.66.06,101.5.01,12.83-.02,25.67-.41,38.49-.17,4.82.09,4.63-3.09,5.56-6.01,1.1-3.46-1.64-3.8-3.63-4.8-5.75-2.89-10.47-.88-15.19,2.73-1.28.98-3.77.39-5.71.52.29-1.9-.07-4.32.98-5.6,4.84-5.96,11.38-7.74,18.8-6.4,2.21.4,4.37,1.1,8.38,2.13-1.26-3.76-1.33-7.21-2.96-8.27-7.46-4.87-20.62-2.02-26.12,5.11-1.73,2.24-3.16,4.8-5.23,6.64-.98.87-3.17.39-4.81.52-.05-1.44-.42-2.96-.05-4.28.39-1.39,1.51-2.56,2.27-3.85,7.87-13.42,6.83-27.47-2.91-39.5-12.47-15.41-37.77-19.17-55.09-9.11-15.44,8.97-19.44,25.22-16.84,36.85.51,2.29,1.82,4.98-1.86,6.19-3.81,1.25-4.58-1.45-5.48-4.02-3.01-8.6-9.06-14.29-17.38-17.47-19.22-7.36-40.89,2.86-47.82,22.45-1.07,3.01-2.14,5.04-6.01,5.37-18.6,1.57-26.08,23.02-17.08,34.02.86,1.05,1.16,3.19.71,4.46-.28.79-2.52,1.38-3.79,1.25-10.49-1.07-18.06,3.28-23.23,12.2-1.57,2.71-3.56,4.88-6.76,3.13-3.67-2-1.53-5.13-.28-7.37,4.01-7.23,9.97-12.51,17.79-15.29,3.03-1.08,4.02-2.37,3.75-5.67-1.39-17.49,6.88-29.47,23.47-34.83,1.62-.52,3.09-2.06,4.21-3.47,4.22-5.3,7.56-11.53,12.52-15.97,12.33-11.03,36.54-17.41,58.04-1.89,2.77-6.97,4.88-14.36,8.54-20.89,3.77-6.72,9.06-12.58,14.34-19.7-4.28-1.54-8.3-3.69-12.56-4.37-12.23-1.98-22.12,4.26-29.65,17.51-.87,1.54-3.63,3.27-5.08,2.95-2.84-.62-3.3-3.21-2.16-6.03,3.71-9.2,9.65-16.39,18.91-20.24,13.5-5.61,25.93-3.18,37.12,5.86,16.08-9.4,33.16-12.08,51.09-8.02,18.05,4.1,32.04,14.66,43.26,29.48v-44.81c-3.16,0-5.45,0-7.73,0-26.5-.04-53-.04-79.49-.2-3.35-.02-8.65,1.22-8.43-4.22.21-5.11,5.35-3.94,8.79-3.95,24.67-.05,49.33.06,74,.06,3.58,0,7.17-.29,11.4-.48-.83-5.95-1.87-11.19-2.21-16.46-.31-4.91-2.61-5.85-7.1-5.6-10.81.6-21.65.82-32.48.83-1.6,0-4.32-1.75-4.59-3.08-.63-3.08,1.99-3.53,4.57-3.6,5.16-.14,10.32-.46,15.48-.67,7.1-.3,14.2-.57,22.04-.88-2-8.43-3.78-15.93-5.69-23.96-10.26,1.75-19.88,3.56-29.57,4.88-1.92.26-5.52-.95-5.89-2.2-.96-3.29,2.12-3.69,4.69-4.16,9.29-1.7,18.56-3.5,28.91-5.46-2.7-8.07-5.24-15.65-7.8-23.3-2.21.53-3.67.81-5.09,1.23-8.78,2.56-17.56,5.15-26.33,7.75-2.5.74-5.19,1.5-6.23-1.83-.97-3.13,1.57-3.89,3.9-4.61,3.97-1.23,7.92-2.56,11.89-3.8,6.15-1.92,12.31-3.8,19.09-5.89-2.08-5.24-3.78-9.88-5.75-14.41-2.94-6.75-3-6.64-9.89-4.23-27.48,9.61-54.96,19.23-82.51,28.64-1.66.57-5.02-.05-5.71-1.22-1.51-2.57.64-4.15,3.18-4.91,1.11-.33,2.15-.9,3.25-1.28,16.2-5.58,32.43-11.09,48.6-16.75,12.23-4.27,24.39-8.72,37.36-13.37-3.78-7.23-7.27-13.88-10.81-20.64-6.11,2.75-11.42,5.15-16.73,7.51-10.34,4.6-20.65,9.26-31.08,13.66-1.29.54-3.18-.36-4.8-.59.46-1.59.67-3.33,1.46-4.73.5-.89,1.8-1.43,2.85-1.9,5.77-2.59,11.61-5.03,17.36-7.67,9.02-4.14,17.98-8.39,28.19-13.17-8.26-12.31-16.22-23.74-23.66-35.5-2.69-4.26-4.65-3.65-8.13-1.21-24.8,17.41-49.7,34.68-74.63,51.92-6.57,4.55-13.26,8.95-20.08,13.11-1.33.81-3.53.18-5.33.22.65-1.8.99-3.82,2.05-5.34.89-1.29,2.6-2.03,3.97-2.97,27-18.63,54.02-37.23,80.97-55.93,4.56-3.16,8.83-6.74,13.9-10.64-12.31-13.84-23.98-26.96-36.97-41.57-1.5,2.43-2.11,4.12-3.29,5.23-11.86,11.22-23.75,22.4-35.82,33.38-1.17,1.07-4.19,1.62-5.35.87-2.8-1.81-.49-3.71.98-5.19,3.28-3.31,6.66-6.53,10.02-9.76,9.6-9.19,19.21-18.36,29.69-28.38-13.71-11.54-26.87-22.61-40.11-33.74-1.53,1.72-2.25,2.41-2.83,3.2-14.58,19.87-29.18,39.73-43.65,59.68-1.32,1.81-2.08,4.17-2.6,6.39-1.05,4.5-1.77,9.08-2.69,14,1.59,1.14,3.48,2.48,5.34,3.85,32.65,23.93,29.58,75.91-5.79,95.55-4.25,2.36-6.24,4.47-4.56,9.53.9,2.72.42,5.95.27,8.94-.44,8.59.19,16.93,4.02,24.86.72,1.5.8,4.4-.13,5.32-1.06,1.05-3.59.69-5.49.77-3.25.14-6.72-.54-9.73.36-4.56,1.37-8.93,3.58-13.17,5.83-20.21,10.78-41.18,13.6-63.21,6.51-3.21-1.03-6.45-1.95-9.82-2.96v25.62c-13.77-3.04-26.99-5.95-40.71-8.98-1.58,11.15-8.89,19.37-19.03,25.44-6.32,3.79-10.01,9.51-12.5,16.3-.7,1.92-2.51,3.44-3.8,5.14-1.45-1.79-3.42-3.38-4.25-5.42-2.5-6.13-5.33-12.03-11.28-15.42-10.78-6.13-18.4-14.64-21.21-27.42-12.74,5.9-25.77,8.34-39.85,9.07v-24.21c-.9.05-1.25-.01-1.54.1-26.78,10.49-52.33,8.8-76.73-7.17-5.05-3.31-11.01-4.57-17.26-2.98-1.6.41-4.33.56-4.93-.3-.89-1.26-.95-3.81-.28-5.33,3.81-8.63,4.67-17.57,4.06-26.86-.23-3.44.73-6.95.71-10.43-.01-1.45-.78-3.65-1.87-4.22-21.4-11.14-31.27-29.06-31.27-52.77,0-16.64,5.07-31.66,18.62-41.76,7.12-5.31,10.8-9.8,7.01-18.4-1.17-2.66-1.07-6-2.59-8.35-3.8-5.86-8.23-11.3-12.34-16.96-2.64-3.64-5.33-7.26-7.62-11.12-.66-1.11,0-3,.07-4.53,1.63.25,3.47.12,4.83.86,1.19.65,1.85,2.28,2.75,3.47,4.24,5.62,8.48,11.24,12.72,16.86.39-2.52-.41-4.6-.43-6.69-.02-2.22.03-5.83,1.23-6.41,3.24-1.56,5.34,1.25,6.16,4.05,1.35,4.59,2.71,9.31,3.06,14.05.72,9.91,1.95,19.55,7.9,27.94.35.49.33,1.24.58,2.25-22.88,7.85-34.75,24.1-33.39,48.04,1.26,22.15,13.2,37.45,34.12,44.37-1.03,14.77-2.03,29.17-3.06,43.87,7.34-.97,13.6,1.85,19.63,5.7,21.16,13.51,43.29,13.11,65.97,4.39,2.97-1.14,4.55-2.88,4.64-6.2.2-7.32,4.16-12.72,9.11-17.73,6.37-6.45,12.45-13.19,18.65-19.81-.27-.45-.54-.91-.81-1.36-4.39,2.07-9.11,3.65-13.1,6.33-4.95,3.33-8.98,8.05-13.98,11.28-4.78,3.08-10.06,6.01-15.52,7.27-15.23,3.52-28.96-2.78-42.99-7.51,1.19-5.86,1.8-11.38,3.46-16.56,3.34-10.43,7.07-20.73,11-30.95,1.44-3.74,4.06-5.51,8.6-3.16,4.54,2.35,9.5,4.14,14.47,5.35,9.32,2.27,18.78,3.94,28.25,5.87-.74,18.45-23.21,34.29-47.25,26.95,6.79-9.95,13.33-19.54,20.6-30.2-2.89.75-6.17.58-7.59,2.13-8.53,9.29-13.7,20.58-18.31,32.21,37.11,11.8,59.56-11.2,58.33-35.74-17.81-1.6-35.19-5.19-52.06-13.26,4.47-3.64,8.62-6.93,12.65-10.37,2.54-2.17,4.83-2.02,7.64-.37,4.44,2.61,9.39,4.43,13.61,7.33,4.41,3.03,8.2,6.97,12.32,10.45,1.06.89,2.32,1.54,4.52,2.97-1.7-8.35-5.07-13.6-11.48-16.96-5.84-3.06-11.45-6.54-17.82-10.21,2.04-1.35,3.32-2.34,4.72-3.12,5.54-3.05,11.1-6.06,16.67-9.05,3.14-1.68,5.1-4.02,4.89-7.86-9.77,4.76-19.25,9.47-28.85,13.92-1.3.6-3.86.6-4.68-.24-4.38-4.51-9.68-8.76-12.31-14.22-7.96-16.55-14.84-33.63-22.45-51.21,8.2-3.05,15.49-6.49,23.14-8.46,15.82-4.07,30.76-2.69,43.09,9.66,1.52,1.53,3.22,2.91,4.95,4.2,4.92,3.68,10.12,6.76,16.33,7.53-5.35-6.07-9.9-12.58-15.74-17.58-10.11-8.66-13.09-19.39-12.69-32.07.26-8.29-.68-16.61-1-24.92-.06-1.64.23-3.3.36-4.95,1.66.41,3.64.38,4.92,1.31,3.21,2.33,5.27,1.33,7.67-1.3,3.16-3.47,2.48-7.44,2.08-11.35-1.64-15.73-3.41-31.44-5.16-47.16-.18-1.6-.5-3.18-.83-5.18-7.51,1.69-14.55,3.28-22.03,4.97,2.44,8.58,4.72,16.54,6.97,24.51,2.07,7.36,4.25,14.7,6.02,22.14.34,1.44-1,3.28-1.56,4.94-1.49-1.12-3.33-1.99-4.35-3.44-1-1.42-1.2-3.42-1.71-5.18-3.55-12.32-7.07-24.64-10.65-36.95-.65-2.23-1.23-4.99-4.6-3.47-5.63,2.54-12.69,1.61-17.14,7.07-.31.38-1.24.4-1.86.35-9.45-.7-16.67,5.07-25.3,7.8,2.69,5.53,5.11,10.25,7.29,15.08.87,1.93,2.77,4.75-.75,5.63-1.41.35-3.76-1.54-5.14-2.95-1.21-1.24-1.61-3.24-2.46-4.87-1.76-3.36-3.57-6.7-5.65-10.57-5.81,2.86-11.21,5.53-16.31,8.04.1,1.24.02,1.62.16,1.89,10.16,18.91,20.3,37.83,30.59,56.67.5.91,2.41,1.66,3.52,1.5,4.02-.6,7.98-1.62,12.29-2.55-1.67-4.17-3.28-7.81-4.55-11.56-.76-2.24-3.38-5.19.66-6.71,4.05-1.52,4.46,2.23,5.54,4.69,1.6,3.66,2.86,7.5,4.83,10.95.84,1.47,2.98,2.7,4.72,3.04,5.7,1.11,11.5,1.73,17.25,2.58,4.95.73,7.55,3.06,5.51,8.63-5.84-.7-11.72-1.49-17.63-2.1-15.09-1.58-29.38,2.3-43.72,6.24-4.34,1.19-9.22,1.18-13.72.65-2.14-.25-5.59-3-5.63-4.68-.08-3.56,3.65-2.66,6.21-3,6.14-.81,12.25-1.88,19.75-3.06-11.34-20.72-21.92-40.05-32.71-59.76-8.57,4.84-16.3,9.21-24.43,13.81,3.42,5.17,6.31,9.61,9.27,14.01,5.56,8.29,11.28,16.48,16.62,24.91.83,1.32,0,3.69-.08,5.58-1.76-.65-3.64-1.1-5.23-2.04-.9-.53-1.3-1.88-1.97-2.84-8.11-11.73-16.22-23.45-24.5-35.41-4.73,2.98-8.84,5.46-12.84,8.11-5.68,3.75-5.72,3.85-1.72,9.48,3.86,5.42,8.05,10.62,11.71,16.17.71,1.07-.37,3.31-.62,5.01-1.54-.45-3.25-.62-4.57-1.43-1.05-.64-1.61-2.07-2.43-3.12-4.56-5.89-9.13-11.77-14.25-18.38-13.26,11.21-26.15,22.11-39.63,33.52,5.75,5.49,10.77,9.84,15.19,14.73,1.75,1.94,6.98,3.35,3.82,7.17-3.56,4.32-6.15-.41-8.49-2.41-5.12-4.39-9.93-9.15-15.67-14.49-12.2,13.82-23.91,27.08-35.98,40.76,3.35,2.63,5.72,4.68,8.28,6.46,13.94,9.71,27.88,19.41,41.92,28.97,3.57,2.43,4.17,4.83.79,8.53-18.26-12.37-36.5-24.71-55.48-37.56-8.99,13.56-17.54,26.47-26.09,39.36,1.45,1.08,1.81,1.46,2.24,1.65,24.19,10.69,48.39,21.36,72.58,32.06,2.73,1.21,5.58,2.31,8.02,3.97.96.65,1.47,2.84,1.18,4.1-.18.75-2.27,1.29-3.56,1.47-.89.12-1.91-.49-2.83-.88-15.32-6.49-30.66-12.94-45.94-19.51-11.57-4.97-23.07-10.11-34.92-15.31-3.04,5.63-5.65,11.02-8.8,16.07-2.24,3.6-.91,4.92,2.41,6.11,9.09,3.24,18.14,6.61,27.19,9.97,3.27,1.22,6.61,2.35,9.67,3.98,1.01.54,2.02,2.83,1.64,3.77-.43,1.06-2.35,1.89-3.73,2.08-1.19.17-2.53-.65-3.78-1.1-11.44-4.08-22.86-8.24-34.35-12.18-1.48-.51-4.5-.51-4.83.19-2.92,6.24-5.4,12.69-8.06,19.18,16.3,6.33,33.07,8.57,48.31,15.79-2.27,3.89-4.66,4.45-8.08,3.45-12.78-3.72-25.65-7.11-38.45-10.76-3.2-.91-4.91-.22-5.86,3.14-1.46,5.11-3.23,10.14-5.04,15.14-1.03,2.84-.44,4.43,2.69,4.92,2.79.44,5.55,1.12,8.33,1.59,6.24,1.06,12.52,1.9,18.7,3.21,1.43.3,2.52,2.17,3.77,3.32-1.63,1.07-3.19,2.27-4.92,3.14-.59.3-1.6-.23-2.42-.36-8.39-1.26-16.76-2.65-25.19-3.65-1.4-.17-4.01,1.08-4.34,2.18-1.92,6.45-3.32,13.05-5.08,20.36,8.89.43,17.01.82,25.12,1.21,4.49.22,9.03.15,13.46.8,1.49.22,2.71,2.25,4.06,3.45-1.45,1.03-2.81,2.71-4.38,2.95-2.92.44-5.98,0-8.98,0-9.97-.02-19.93,0-30.45,0-.98,6.71-2.02,13.8-3.18,21.74,3.79,0,6.42,0,9.06,0,47.66-.1,95.33-.23,142.99-.27,3.43,0,8.63-1.24,8.82,3.84.21,5.53-5.08,4.51-8.75,4.52-48.5.08-96.99.12-145.49.17-2.29,0-4.59,0-7.89,0v44.44c25.87-31.68,57.55-39.67,95.4-21.14.2-.13.66-.34,1.03-.65,17.39-14.55,43.47-8.78,53.03,11.77.76,1.64,1.63,3.52,1.47,5.2-.14,1.5-1.35,3.63-2.6,4.07-1.09.39-3.31-.8-4.27-1.93-1.48-1.73-2.21-4.08-3.44-6.05-8.78-14.09-28.17-17.3-39.31-6.12,11.58,10.45,18.29,23.75,21.66,39.22,7.87-5.42,15.92-9.17,25.19-9.55,20.46-.84,35.56,7.72,45.55,25.64,1.12,2,3.49,3.79,5.68,4.62,12.24,4.67,20.94,12.32,22.57,25.99.5,4.19.08,8.48.08,12.98,9.37,2.69,17.52,7.65,22.2,16.79.94,1.84.89,5.83-.33,6.79-2.72,2.16-5.07.04-6.71-2.71-5.27-8.81-12.95-13.03-23.35-12.24-1.58.12-3.25-.89-4.88-1.38.46-1.52.58-3.26,1.42-4.53,4.95-7.44,4.95-14.99.59-22.56-4.86-8.47-12.41-12.18-22.28-11.43-1.99-9.08-6.6-16.18-13.63-21.79-19.19-15.32-52.25-8.85-55.11,19.92-.05.5.01,1.16-.28,1.45-1.46,1.44-2.95,3.84-4.55,3.94-3.13.2-4-2.45-3.42-5.29.76-3.75,1.65-7.47,2.52-11.19,2.4-10.28.26-19.82-6.43-27.64-11.12-13.01-26.03-16.16-42.18-13.19-20.5,3.77-34.78,24.8-29.86,43.69,1.23,4.7,4.37,8.88,6.34,13.43.51,1.17.2,3.92-.24,4.04-1.62.43-3.55.36-5.17-.14-.88-.27-1.48-1.73-2.02-2.75-5.73-10.82-14.05-12.54-25.37-10.41-6.22,1.17-6.9,2.87-4.16,9.15,1.21-.32,2.46-.66,3.71-.99,8.43-2.23,17.44.23,21.67,6.26.83,1.19,1.19,3.88.45,4.7-.85.94-3.33,1.12-4.78.65-1.99-.65-3.65-2.27-5.49-3.4-4.43-2.7-9.26-1.96-12.51,1.09-1.73,1.62-.81,6.07-1.13,9.68,3.04,0,4.69,0,6.35,0,45.83.07,91.66.14,137.49.2,1.5,0,3-.05,4.49-.22,7.72-.9,13.26-7.48,12.85-15.21-.38-7.2-6.99-11.92-13.48-10-1.6.48-4.48.07-5.34-1.04-1.86-2.4-.47-4.86,2.09-6.09,1.88-.91,4.05-1.66,6.1-1.71,9.81-.22,18.6,8.61,19,18.81.51,13.26-9.65,23.94-23.26,23.98-45.5.15-91,.16-136.49.25-2.24,0-4.47.26-7.3.44,3.51,11.35,6.8,21.99,10.1,32.67,6.52-1.65,12.02-3.04,17.51-4.43.1.39.19.78.29,1.17-1.78.47-3.78.58-5.26,1.52-1.25.8-1.63,3.33-2.86,3.76-8.18,2.85-8.17,2.69-4.5,11.34.9,2.13,2.06,4.14,3.19,6.38,1.09-.58,1.97-1.01,2.81-1.51,15.73-9.26,31.88-17.39,50.53-18.78,17.22-1.28,33.57,1.22,47.91,11.62,4.95,3.59,9.55,7.67,14.4,11.6,1.34-.78,2.67-1.44,3.9-2.27,9.45-6.41,18.97-8.65,28.84-.8,1.01.81,2.35,1.54,3.6,1.65,2.24.19,4.95.64,6.72-.35,11.78-6.56,23.54-13.19,34.92-20.4,6.18-3.91,11.7-4.32,18.05-.85,20.87,11.42,41.83,22.69,62.81,33.92,4.33,2.32,5.32,5.53,3.42,10.4-1.41-.49-2.83-.83-4.09-1.46-5.21-2.6-10.37-5.29-15.55-7.94-17.19-8.79-34.36-17.61-51.6-26.3-1.49-.75-3.92-1.57-5-.89-7.4,4.62-14.55,9.63-21.83,14.54,3.01,4.29,5.95,4.15,9.61,1.78,3.56-2.3,7.47-4.04,11.23-6.03.45.69.9,1.39,1.36,2.08-3.46,3.04-6.92,6.09-10.03,8.83,12.85,10.35,25.73,20.54,38.38,31,4.6,3.8,8.76,8.16,12.9,12.48.74.78.43,2.57.6,3.9-1.33-.03-2.82.33-3.95-.17-1.64-.71-3.04-2-4.5-3.1-20.44-15.42-40.03-32.02-62.46-44.68-4.64-2.62-4.57-2.81-8.23,1.71,14.94,10.61,31.37,19.2,44.78,32.29-1.41,1.58-2.37,2.66-3.41,3.82-10.36-6.45-20.41-12.92-30.69-19.03-12.44-7.4-25.02-14.55-37.65-21.62-1.51-.85-4.13-1.26-5.5-.51-3.69,2-6.98,4.74-10.81,7.45,9.56,12.31,18.92,23.8,27.63,35.76,7.31,10.04,16.85,16.73,27.92,21.85,18.58,8.59,37.01,17.48,55.5,26.26,1.83.87,3.59,1.88,5.38,2.82-.16.68-.32,1.37-.49,2.05-1.99-.1-4.19.31-5.94-.4-9.23-3.73-18.35-7.73-27.5-11.64-7.86-3.37-15.72-6.75-24.44-10.49.82,1.11.96,1.42,1.19,1.6,24.95,18.51,52.47,30.43,83.63,33.86,10.32,1.14,19.29-.15,28.59-5.09,15.75-8.36,32.44-14.71,50.22-17.57,4.87-.78,9.8-1.23,14.78-1.85.08-1,.28-1.67.15-2.28-5.09-23.19-6.14-47.31-15.97-69.43-4.76-10.71-4.36-21.36,1.17-31.77,1.17-2.2,2.21-4.48,3.22-6.77,3.33-7.51,3.49-15.11.82-22.88-4.06-11.8-7.78-23.72-12.01-35.45-5.61-15.54-2.41-28.41,10.7-38.68,6.81-5.34,11.25-12.11,12.64-20.82.3-1.91,1.54-3.66,2.73-6.35,1.31,2.01,2.29,2.87,2.46,3.87,2,11.93,9.7,20.01,18.04,27.92,8.1,7.69,11.07,17.29,7.66,28.28-4.33,13.97-8.56,27.98-13.31,41.81-4.7,13.7.48,29.64,12.24,37.94,7.45,5.26,14.49,11.17,21.31,17.23,3.67,3.26,6.39,7.8,4.39,12.96-2,5.15-7.19,5.44-11.84,5.83-8.13.69-16.28,1.17-24.43,1.65-4.37.25-7.17,2.46-8.46,6.52-.8,2.52-1.67,5.13-1.83,7.74-.82,13.46-1.43,26.93-2.07,40.4-.04.77.29,1.55.41,2.15,7.54,1.12,14.85,1.82,21.97,3.35,18.71,4.03,35.81,12.33,52.95,20.52,2.29,1.09,5.07,1.74,7.6,1.66,22.6-.69,44.21-5.76,64.34-16.15,11.04-5.7,21.66-12.21,32.47-18.36-.31-.57-.61-1.13-.92-1.7-7.46,3.17-14.91,6.32-22.37,9.5-9.49,4.04-18.93,8.24-28.51,12.05-2.08.83-5.14,3.2-7.21-1.08,1.37-.75,2.48-1.44,3.66-1.98,16.76-7.77,33.48-15.63,50.3-23.26,15.39-6.98,29.16-15.75,38.8-30.26,5.42-8.16,12.01-15.54,18.05-23.29,2.22-2.85,4.38-5.75,6.63-8.7-3-1.87-5.64-3.3-8.04-5.05-3.63-2.64-7.13-2.97-11.04-.57-3.83,2.35-7.93,4.24-11.78,6.55-17.27,10.37-34.45,20.89-51.79,31.14-1.57.93-4.03.33-6.08.44.85-1.75,1.28-4.01,2.64-5.17,4.05-3.45,8.35-6.62,12.75-9.61,9.75-6.64,19.62-13.1,29.44-19.63ZM464.77,299.94c.36.56.73,1.12,1.09,1.68,1.34-.96,2.85-1.75,3.99-2.91,2.27-2.3,3.93-5.47,6.57-7.1,6.64-4.1,13.66-7.6,20.6-11.2.83-.43,2.41-.48,3.1.03,5.29,3.86,10.46,7.91,16.05,12.2-17.65,7.95-35.36,11.42-53.4,13.11-.18,26.64,22.27,46.64,58.71,36.07-1.34-3.22-2.35-6.59-4.06-9.56-4.39-7.6-8.95-15.12-13.76-22.48-1.93-2.96-4.88-4.26-8.75-1.62,9.25,8.62,15.48,18.8,20.39,30.03-28.39,5.5-45.03-10.54-46.79-28.64,1.77-.2,3.54-.45,5.32-.61,12.85-1.18,25.34-3.89,37.09-9.29,4.6-2.11,7.1-1.49,9.82,3.12,8.63,14.57,9.77,31.26,14.8,47.22-7.93,2.39-15.3,5.02-22.87,6.81-14.76,3.49-28.4,1.52-39.92-9.38-3.14-2.97-6.6-5.61-10.03-8.25-4.04-3.09-8.39-5.52-14.84-5.58,7.41,7.93,14.46,14.76,20.59,22.35,3.19,3.95,5.45,9.04,6.78,13.98,1.01,3.74,2.09,6.27,5.81,7.75,20.7,8.21,41.25,8.77,61.27-1.76,7.94-4.18,15.28-9.47,24.02-8.58-.3-9.15-.52-17.74-.91-26.32-.14-3.15-.13-6.47-1.13-9.39-1.89-5.55-.19-7.88,5.22-10.21,28.45-12.25,37.86-49.76,18.99-74.15-5.98-7.73-13.94-12.64-24.13-16.14,8.88-10.99,7.87-23.97,9.62-36.38.47-3.33,2.16-6.65,3.94-9.58.8-1.32,3.2-1.68,4.88-2.47.54,1.73,1.52,3.47,1.51,5.2-.02,2.41-.79,4.81-1.24,7.22,8.8-10.16,16.56-20.54,24.27-30.95,4.95-6.69,9.81-13.45,14.75-20.15,1.92-2.59,2.11-4.49-1.15-6.36-5.01-2.88-9.77-6.2-14.72-9.38-7.9,11.16-15.47,21.89-23.08,32.6-1.44,2.03-2.81,4.19-4.59,5.88-.76.72-2.97.96-3.71.38-.85-.66-1.41-2.7-1.02-3.74.73-1.98,2.18-3.71,3.42-5.48,6.88-9.81,13.81-19.6,20.68-29.42,1.19-1.71,3.1-3.62.1-5.39-7.08-4.17-14.2-8.27-21.47-12.49-11.11,19.71-21.87,38.8-33.4,59.26,7.42,1.04,13.75,1.74,20,2.9,2.12.4,4.03,1.96,6.03,2.99-1.61,1.42-3.17,3.98-4.83,4.04-6.21.24-12.84.92-18.61-.85-18.05-5.55-36.12-7.42-54.68-3.62-1.05.21-2.18.03-3.23.03-.61-6.58-.25-7.22,6.3-8.48,12.52-2.41,25.13-3.55,37.65-.3,4.1,1.06,6.07-.29,7.9-3.68,4.66-8.64,9.56-17.15,14.35-25.73,5.41-9.7,10.79-19.42,16.44-29.6-6.33-2.94-12.23-5.67-18.28-8.48-1.19,2.4-2.1,4.17-2.95,5.96-7.57,15.94-15.13,31.88-22.69,47.82-1.1,2.32-2.35,5.16-5.34,3.25-1.04-.66-1.25-4.13-.54-5.76,3.77-8.7,7.93-17.23,11.98-25.8,4.32-9.14,8.67-18.26,13.37-28.14-7.72-2.83-14.8-5.43-22.18-8.14-1.09,2.73-1.92,4.88-2.8,7.01-.87,2.1-1.47,5.16-4.58,3.63-1.04-.51-1.35-3.47-1.19-5.24.23-2.4,1.24-4.73,2.07-7.68-6.66-1.88-13.11-3.71-19.91-5.63-1.78,6.25-3.26,12.02-5.15,17.66-.37,1.1-2.31,2.15-3.61,2.26-.68.06-2.06-1.9-2.2-3.06-.19-1.57.45-3.26.84-4.88,1.07-4.47,2.19-8.92,3.41-13.89-7.64-1.58-14.64-3.02-21.52-4.44-1.34,13.6-2.55,26-3.81,38.39-.66,6.45-1.82,12.89-2.02,19.35-.23,7.13,4.3,9.4,10.35,5.87,1.38-.81,3.24-.8,5.27-1.25-.76,4.49-1.64,7.73-1.81,11.01-.44,8.65-.54,17.31-.84,25.96-.29,8.26-2.84,15.57-8.67,21.73-6.59,6.96-12.9,14.2-19.86,21.92,9.18-1.76,15.85-6.49,21.91-12.19,10.58-9.96,23.12-13.38,37.25-11.2,10.39,1.61,20.03,5.42,28.48,10.21-3.83,9.6-7.39,18.52-10.94,27.44-5.37,13.48-10.73,26.92-22.24,36.75-2.4,2.05-3.93,2.42-6.85.9-9.18-4.81-18.61-9.15-27.96-13.69-.75,3.32.89,5.72,4.2,7.47,7.48,3.97,14.9,8.05,22.34,12.09-9.98,8.33-25.46,10.03-29.21,25.12ZM591.24,795.46c-3.07-.38-5.2-.84-7.34-.89-26.8-.55-51.96-7.64-75.65-19.77-19.69-10.08-38.93-21.04-58.49-31.39-26.39-13.95-53.99-18.94-82.17-6.78-19.35,8.35-38.14,18.23-56.44,28.71-29.97,17.17-61.28,29.06-96.26,29.4-1.12.01-2.24.45-3.36.69,6.52,4.44,13.18,7.76,19.82,11.12,5.7,2.88,11.61,3.37,17.94,2.48,16.19-2.29,31.38-7.65,45.77-15.09,19.07-9.85,37.8-20.36,56.73-30.49,12.55-6.72,25.6-12.1,39.91-13.57,1.36-.14,2.88,1.25,4.33,1.93-.9,1.68-1.63,3.5-2.79,4.98-.47.6-1.89.4-2.83.72-9.6,3.2-19.6,5.55-28.67,9.86-13.81,6.56-26.98,14.47-40.4,21.84-17.24,9.47-34.61,18.62-53.72,23.87-4.29,1.18-8.59,2.36-13.84,3.8,7.14,2.75,13.33,4.75,19.18,7.48,7.7,3.59,14.85,2.5,21.93-1.32,21.82-11.78,43.65-23.55,65.43-35.41,12.32-6.71,25.3-10.77,39.45-11.11,16.06-.39,30.35,5,44.08,12.6,19.51,10.8,38.98,21.69,58.65,32.2,4.89,2.61,10.82,6.08,15.7,5.34,9.78-1.48,19.17-5.59,28.72-8.61l-.4-1.4c-4.81-1.23-9.68-2.28-14.43-3.72-22.47-6.8-42.73-18.35-63.12-29.62-19.18-10.6-37.7-22.75-59.98-26.32-2.76-.44-4.6-2.14-3.3-4.76.67-1.35,3.45-2.78,4.89-2.46,7.76,1.75,15.92,2.96,22.98,6.36,17.68,8.5,34.9,17.95,52.18,27.26,17.32,9.33,35.01,17.53,53.88,23.52,19.51,6.2,35.44-.03,51.59-11.48ZM151.18,755.4c6.27,7.13,33.42,26.45,41.5,29.71.9.36,1.93.49,2.91.6,31.8,3.47,62.15-1.75,90.61-16.27,20.16-10.28,39.77-21.62,59.76-32.24,30.66-16.3,62.49-21.16,94.99-6.46,19.21,8.69,37.81,18.86,56.19,29.24,31.23,17.63,63.97,28.7,100.36,26.54,6.73-.4,13.14-1.35,18.92-5.31,6.45-4.42,13.29-8.26,19.71-12.73,5.17-3.59,9.96-7.73,14.87-11.6-15.12,2.73-29.71,6.13-44.5,7.87-29.86,3.51-58.96-.11-86.09-13.64-19.79-9.87-38.86-21.16-58.49-31.37-16.65-8.67-34.32-14.58-53.13-16.28-23.51-2.13-45.29,4.52-65.92,14.78-18.46,9.18-36.2,19.8-54.43,29.46-33.33,17.66-68.76,22.23-105.65,15.61-10.41-1.87-20.57-5.12-31.61-7.93ZM398.79,180.6c1.03.02,2.06.04,3.09.06,4.1,7.7,8.75,15.17,12.08,23.19,1.62,3.91,3.17,5.67,7.82,5.11-.99-12.31-7.77-21.98-13.81-31.88,13.37-15.4,27.44-29.67,48.63-33.5-2.88-10.89-8.93-18.66-17.09-24.79-5.17-3.89-10.63-7.43-16.15-10.83-9.78-6.05-17.08-14.47-23.28-24.66-7.2,13.22-17.34,22.31-29.69,29.15-2.9,1.61-5.7,3.47-8.33,5.49-8.4,6.43-14.14,14.72-17.41,25.32,20.75,4.83,35.14,18.06,48.04,33.58-5.97,10.19-12.71,19.95-13.14,32.33,4.24.36,5.67-1.4,7.16-4.88,3.49-8.13,7.99-15.82,12.07-23.69ZM505.18,831.94c-24.66-13.49-48.19-26.51-71.9-39.2-5.08-2.72-10.68-4.71-16.26-6.23-19.9-5.43-38.14-.32-55.61,9.33-18.36,10.14-36.8,20.12-55.19,30.19-3.24,1.77-6.44,3.62-10.37,5.84,7,1.72,12.9,3.45,18.91,4.52,2.37.42,5.33.03,7.45-1.08,16.06-8.42,31.85-17.37,47.97-25.66,20.87-10.73,41.85-10.59,62.61.64,15.8,8.56,31.58,17.16,47.44,25.62,1.6.86,3.82,1.44,5.52,1.08,6.15-1.33,12.21-3.12,19.44-5.05ZM336.35,398.96c10.92-2.48,22.42-5.1,34.13-7.75.13,1.56.19,3.37.44,5.16,1.23,8.98,5.2,16.33,12.57,21.85,6.14,4.6,12.1,9.44,18.04,14.09,2.03-5.81,8.14-9.24,13.82-12.91,9.32-6.03,13.56-14.66,14.31-25.45.23-3.3-.99-5.16-3.56-7.29-6.66-5.53-12.83-11.66-19.05-17.43,7.89-10.72,13.59-20.77,14.61-32.9-4.77-.71-6.49,1.26-7.48,5.15-2.29,8.96-7.36,16.41-13.41,23.66-7.24-7.25-12.07-15.15-14.38-24.34-1.03-4.12-3.21-5.06-7.29-4.98,1.15,12.59,7.16,22.62,14.42,32.97-7.49,7.26-14.78,14.32-22.07,21.37-.52-.42-1.04-.85-1.56-1.27.99-7.97,8.66-12.51,11.01-19.93-10.65,11.93-22.83,21.04-38.83,22.76-4.68-23.67,4.84-41.97,21.13-57.84-15.86,7.7-25.46,19.78-26.72,37.34-.64,8.89-.11,17.86-.11,27.75ZM331.72,840.05c7.42,1.15,13.72,1.81,19.88,3.16,6.36,1.4,11.59.58,17.22-3.33,19.56-13.57,40.25-15.53,60.65-2.23,8.6,5.6,16.88,7.33,26.54,4.86,4.31-1.1,8.77-1.64,14.35-2.65-12.71-7.15-24.18-13.51-35.56-20.02-20.07-11.48-40.6-14.37-61.77-3.23-12.51,6.58-24.83,13.51-37.21,20.34-1.22.67-2.26,1.69-4.12,3.1ZM188.41,754.1c13.27,4.12,41.88,3.6,61.48-.91,16.43-3.78,50.43-19.54,54.44-24.63-13.38-3.08-27.24-6.39-41.18-9.36-2.08-.44-4.91.02-6.67,1.17-15.18,9.94-30.35,19.87-47.42,26.38-6.63,2.53-13.38,4.77-20.64,7.34ZM497.24,728.92c32,22.52,90.6,35.27,115.86,24.68-4.96-1.56-9.9-2.93-14.7-4.66-18.91-6.84-35.61-17.76-52.49-28.39-1.78-1.12-4.38-2.11-6.28-1.69-14.36,3.19-28.64,6.75-42.39,10.06ZM340.22,271.8c-.45,31,27.17,58.37,59.27,58.73,32.76.37,61.46-26.33,61.77-57.47.32-31.8-27.52-59.87-59.76-60.26-34.08-.41-60.78,25.3-61.28,59ZM12.29,494.54c7.65-.37,15.26-.58,22.83-1.24,1.5-.13,3.66-1.68,4.15-3.07,8.59-24.27,33.44-35.49,58.7-30.19,3.35.7,6.61,1.83,9.92,2.75-13.09-13.1-28.66-19.03-46.92-16.06-20.03,3.27-34.6,14.53-46.19,32.71h20.57c.33,4.55-1.96,5.72-5.15,5.84-3.66.15-7.32.17-10.98.24-8.06.16-8.8,1.15-6.94,9.01ZM787.03,478.82c-11.3-17.78-25.87-28.68-45.13-32.08-19.03-3.37-35.61,2.5-49.15,16.47.83.07,1.56-.16,2.27-.44,29.01-11.27,60.76,1.95,68.38,28.02.31,1.05,1.96,2.34,3.07,2.42,7.57.54,15.16.79,23.26,1.16.19-2.35.4-4.89.63-7.62-2.34-.45-4.1-1.01-5.9-1.1-4.49-.24-9.03.06-13.45-.55-1.65-.23-3.04-2.37-4.55-3.64,1.53-.88,3.02-2.41,4.61-2.52,4.79-.34,9.61-.12,15.96-.12ZM760.32,613.85c-34.8-29.61-82.32-29.43-108.83,4.6,17.03-7.56,34.45-9.81,52.38-8.88,18.2.95,34.44,7.88,50.21,17.03,2.21-4.51,4.16-8.5,6.25-12.75ZM48.51,626.94c32.52-20.3,66.42-22.59,102.07-9.35-7.06-8.64-14.21-14.25-24.02-19.05-23.69-11.58-63.33-5.1-82.34,13.57-.79.77-1.23,2.72-.84,3.73,1.42,3.66,3.27,7.16,5.14,11.1ZM161.68,636.31c.27-.37.55-.75.82-1.12-2.85-2.14-5.5-4.63-8.58-6.37-16.59-9.35-34.64-12.32-53.41-11.32-16.14.87-30.88,6.28-44.39,15-1.32.85-2.68,3.65-2.23,4.89,1.34,3.65,3.58,6.98,5.55,10.57,32.83-18.05,66.83-21.17,102.24-11.64ZM638.82,637.16c36.68-10.38,71.11-7.76,103.94,10.51,1.55-2.68,2.84-4.8,4.04-6.98,3.51-6.36,3.48-6.39-2.93-10.13-26.58-15.48-54.43-16.85-83.15-7.21-8.02,2.69-15.75,6.17-21.9,13.81ZM616.15,664.26c39.36-17.61,77.98-20.22,116.79.04,1.81-3.09,3.56-6.06,5.3-9.04-.65-.49-1.01-.84-1.44-1.08-30.27-17.05-62.01-19.46-94.83-9.05-10.48,3.32-19.46,9.22-25.83,19.14ZM185.07,663.8c-6.98-10.46-17.84-17.8-31.18-21.01-23.01-5.53-45.92-5.33-68.44,2.22-7.43,2.49-14.42,6.29-22.07,9.69,1.62,2.61,2.44,4.02,3.34,5.37.97,1.46,2.01,2.88,2.87,4.11,38.74-18.54,76.9-19.19,115.47-.39ZM194.38,680.26c-34.84-28.96-91.87-27.84-120.34-8.21,2.15,2.85,4.29,5.69,6.36,8.45,13.69-7.31,27.94-11.56,43.05-12.42,21.96-1.25,42.69,2.53,60.73,16.25.89.68,2.8.96,3.74.47,2.28-1.19,4.26-2.94,6.47-4.53ZM615.93,685.82c34.79-22.94,69.92-23.09,106.41-5.9,1.84-2.55,3.83-5.31,6.38-8.85-42.22-20.56-81.92-17.04-121.13,8.64,3.26,2.39,6.09,4.46,8.35,6.11ZM120.88,727.65c-.09.42-.18.85-.27,1.27,3.2,2.22,6.3,6.14,9.62,6.35,10.74.67,21.69.97,32.32-.4,24.13-3.12,44.96-14.77,65.21-27.46,1.2-.75,2.18-1.86,3.51-3.01-2.83-1.74-5.49-2.88-7.51-4.72-2.3-2.11-4.04-2.03-6.51-.41-4.73,3.1-9.63,5.94-14.52,8.77-19.86,11.51-40.9,19.21-64.16,19.6-5.9.1-11.79.02-17.69.02ZM682.02,728.1c-2.66-.17-3.94-.3-5.23-.32-1.33-.02-2.66.1-3.98.11-17.44.07-34.65-1.8-50.61-9.2-12.78-5.93-25.06-12.95-37.62-19.37-1.39-.71-3.61-1.42-4.69-.8-3.05,1.72-5.71,4.13-9.23,6.8,8.59,4.82,16.44,9.46,24.5,13.71,22.28,11.75,45.57,18.93,71.28,16.84,6.38-.52,10.28-3.59,15.58-7.76ZM105.95,711.22c-.23.66-.46,1.31-.69,1.97,3.17,2.1,6.09,5.33,9.55,6.05,5.96,1.25,12.24,1.11,18.39,1.24,24.28.52,46.08-7.5,66.61-19.71,4.22-2.51,8.35-5.15,13.12-8.09-2.49-1.49-4.22-2.4-5.81-3.5-1.77-1.21-3.43-2.59-5.53-4.19-27.77,23.22-60.37,29.58-95.64,26.23ZM697.28,711.24c-36.72,3.67-69.14-4.14-97.26-26.46-3.36,2.77-6.35,5.22-9.95,8.18,1.25.8,1.81,1.15,2.36,1.51,28.24,18.92,58.76,29.22,93.23,25.02,4.93-.6,8.04-3.25,11.62-8.26ZM652.65,744.04c-34.58-2.39-62.57-17.54-89.42-35.12-3.54,1.98-6.99,3.91-10.9,6.1,3.22,2.21,5.99,4.28,8.92,6.1,18.27,11.37,37.12,21.51,58.49,25.83,10.66,2.15,21.33,3.18,32.91-2.91ZM286.56,213.2c25.41-6.2,47.43,7.08,44.28,25.75l-27.93-16.42c-.32.32-.63.64-.95.96,1.59,1.91,2.84,4.32,4.82,5.65,4.96,3.31,10.17,6.25,15.42,9.09,4.21,2.28,8.61,4.19,12.93,6.27-16.88-1.66-32.91-1.66-47.22,8.75,1.84.77,3.64.85,5.21.3,11.94-4.21,24.19-5.85,36.82-4.91,6.59.49,7.78-.33,7.53-6.87-.51-13.6-5.66-25.16-17.74-32.16-12.93-7.49-26.13-3.8-39.79.33,5.51,9.85,10.54,19.02,15.77,28.07,1.88,3.25,4.32,6.1,8.48,4.38-5.74-9.5-11.53-19.08-17.64-29.19ZM153.27,744.5c4.71,3.24,14.27,4.6,21.88,3.65,17.13-2.15,32.82-8.45,47.86-16.49,9.17-4.9,17.95-10.53,27.98-16.47-3.32-1.72-5.33-2.49-7.03-3.7-3.49-2.48-6.2-1.82-9.71.56-18.13,12.33-37.6,22.06-58.8,27.94-7.25,2.01-14.78,3.04-22.18,4.51ZM624.82,689.89c.47.52.65.83.93.99,1.85,1.12,3.62,2.5,5.62,3.2,1.46.51,3.52.67,4.84.02,25.25-12.42,50.79-10.12,76.97-1.91,1.19-1.41,2.68-3.17,4.18-4.95-26.4-16.62-69.11-15.35-92.53,2.64ZM178.28,689.97c-22.8-18.42-67.68-19.22-93.13-2.53,2.05,3.2,3.66,5.93,8.53,3.71,3.87-1.76,8.26-2.55,12.5-3.33,19.29-3.53,38.61-4.7,56.7,4.44,6.34,3.21,10.56,1.84,15.4-2.3ZM400.15,481.26c-3.31,3.8-6.34,7.53-9.64,11-11.13,11.71-12.23,22.47-3.22,35.89,1.07,1.59,3.36,2.36,5.08,3.51.38-2.45,1.12-4.92,1-7.35-.07-1.49-1.82-2.84-2.18-4.39-.84-3.62-1.95-7.37-1.74-11,.31-5.41,5.2-9.66,10.17-9.95,5.45-.31,10.21,3.23,11.79,8.78,1.4,4.94.38,9.41-2.11,13.85-1.23,2.19-1.69,4.88-2.09,7.41-.13.84.85,2.36,1.68,2.69.74.3,2.19-.36,2.94-1.04,9.01-8.06,10.44-23.06,2.89-32.59-4.51-5.7-9.51-11.02-14.57-16.82ZM469.42,238.33c1.45-18.45,17.9-33.21,45.26-24.94-6.05,9.85-11.98,19.51-18.67,30.42,3.16-1.47,6.63-1.93,7.84-3.83,6.08-9.63,11.58-19.63,17.5-29.89-17.27-5.21-33.46-9.11-47.31,4.75-8.03,8.04-11.12,18.26-10.43,30.48,12.11-8.17,27.16-9.72,34.9-22.75-9.59,5.2-19.19,10.39-29.08,15.75ZM438.84,333.71c5.97,9.06,12.32,17.42,17.27,26.54,5.24,9.67,3.07,20.65,3.76,32.73-7.79-2.96-14.94-4.81-21.2-8.29-6.15-3.42-11.38-8.48-17.01-12.81,3.76,6.41,6.8,14.13,12.46,18.12,8.95,6.31,20.36,7.23,30.89,8.38,0-7.96.22-15.58-.04-23.19-.65-18.79-9.93-32.21-26.12-41.48ZM439.02,212.34c.38.32.76.63,1.14.95.61-.12,1.24-.15,1.81-.36,12.53-4.7,18.83-14.91,21.17-27.01,2.09-10.76,1.88-21.97,2.69-33-24.13.63-44.83,12.06-46.88,26.4,10.8-12.63,24.41-18.59,39.95-20.3,3.51,21.53-3.34,39.18-19.88,53.32ZM363.36,213.43c-17.7-14.73-24.99-32.43-21.41-54.13,15.9,1.46,29.39,8.14,40.7,19.5-9.07-18.55-26.56-24.99-47.09-25.63-.76,34.96,9.26,58.04,27.8,60.27ZM94.79,698.84c4.92,7.87,51.67,6.87,62.9-.75-21.26-8.08-41.78-5.64-62.9.75ZM645.24,698.64c1.83.91,2.63,1.48,3.51,1.71,17.64,4.51,35.53,4.91,53.51,2.9,1.89-.21,3.62-1.86,5.42-2.84-20.81-8.13-41.02-10.63-62.44-1.78ZM376.15,845.99c16.64,1.06,32.79,1.72,49.65-.12-12.65-11.57-38.75-11.43-49.65.12ZM476.4,248.8c.08-.5.15-1,.23-1.49,9.75,1.79,19.49,3.64,29.26,5.31,1.51.26,3.16-.28,4.75-.46-1.07-1.23-1.9-3.07-3.24-3.6-13.32-5.31-27.05-6.09-41.02-3.18-.8.17-1.42,1.26-2.12,1.93.89.5,1.76,1.37,2.68,1.42,3.15.18,6.31.07,9.47.07ZM400.53,611.79c.69,6.78,1.27,12.44,1.88,18.44,6.87-2.29,13.19-4.4,20.58-6.87-7.62-3.92-14.63-7.53-22.47-11.57ZM36.35,499.92c-6.96.71-13.24,1.06-19.4,2.08-5.28.87-5.74,2.5-3.53,6.48h22.94v-8.56ZM788.89,507.98c1.03-2.79.74-5.08-2.96-5.57-6.66-.89-13.34-1.66-20.33-2.52v8.09h23.29ZM437.99,344.09c3.04,7.39,6.08,14.78,9.25,22.51-.49.24-1.31.36-1.48.76-.64,1.46-1.29,3-1.42,4.55-.04.46,2.28,1.66,2.45,1.49,1.02-1.05,2.3-2.34,2.44-3.66,1.1-10.47-3.22-18.83-11.25-25.65ZM435.79,363.71c.27.2.54.39.8.59.37-2.58,1.57-5.39.95-7.7-1.88-7-4.39-13.84-6.84-20.68-.32-.91-1.71-1.43-2.61-2.13-.16,1.19-.71,2.51-.4,3.56,2.61,8.81,5.38,17.58,8.1,26.36ZM364.14,363.97c.36-.09.72-.17,1.08-.26,2.42-8.24,4.84-16.48,7.26-24.72.28-.95.8-1.9.81-2.85.01-.85-.53-1.7-.82-2.56-.84.54-2.16.89-2.45,1.63-2.19,5.74-4.64,11.45-6.04,17.39-.84,3.58.05,7.56.16,11.37ZM301.4,324.59c6.04,1.76,25.17-6.74,28.65-12.25-11.05,1.37-19.59,7.39-28.65,12.25ZM499.83,326.29c-4.25-5.52-23.85-13.87-30.05-13.02,9.3,6.24,18.63,10.58,30.05,13.02ZM361.2,345.17c-7.98,6.71-10.27,15.7-9.79,25.6.05.99,1.31,2.07,2.27,2.75.26.19,1.92-.8,2.11-1.48.29-1.05-.06-2.3-.27-3.45-.2-1.11-1.08-2.34-.8-3.25,2.04-6.76,4.3-13.46,6.48-20.18ZM372.92,211.94c-2.51-10.24-4.73-19.3-7.08-28.88-4.23,7.33-.94,21.42,7.08,28.88ZM428.8,210.87c8.24-7.51,11.08-23.28,6.02-26.85-2,8.93-4.01,17.89-6.02,26.85ZM449.66,184.76c-.65-.33-1.31-.66-1.96-.99-3.75,7.43-7.5,14.86-11.24,22.29,8.35-4.97,12.7-12.09,13.2-21.3ZM363.21,205.97c-2.88-7.61-5.8-15.17-11.03-21.47-.91,9.6,5.03,15.57,11.03,21.47ZM354.12,173.98c-1.48,2.57-2.78,3.84-2.77,5.1.01,1.14,1.46,2.26,2.28,3.39.94-1.02,2.5-1.96,2.65-3.09.16-1.24-.97-2.65-2.15-5.41ZM450.79,178.95c-1.77-1.72-2.76-2.68-3.76-3.65-.9,1.15-2.34,2.22-2.51,3.46-.12.92,1.34,2.83,2.22,2.92,1,.09,2.15-1.36,4.04-2.73Z"/>
      <path class="cls-1" d="M400.25,61.02c-3.92-14.42-10.68-24.68-26.07-27.36,16.44-4.79,23.03-16.91,26.11-32.72,4.42,15.03,9.9,28.75,27.6,32.62-16.53,2.06-22.69,14.01-27.65,27.46Z"/>
      <path class="cls-1" d="M360.76,56.38c0,3.32.26,6.66-.12,9.94-.16,1.41-1.65,2.66-2.53,3.98-1.15-1.27-3.23-2.48-3.31-3.81-.39-6.62-.44-13.27-.14-19.89.06-1.37,2.15-2.65,3.31-3.97,1,1.27,2.68,2.44,2.86,3.81.42,3.26.14,6.62.14,9.93-.07,0-.14,0-.21,0Z"/>
      <path class="cls-1" d="M443.36,0c2.06,2.73,4.36,4.5,4.09,5.71-.39,1.76-2.41,3.72-4.17,4.35-.82.29-3.8-2.36-3.8-3.67,0-1.74,1.98-3.47,3.88-6.39Z"/>
      <path class="cls-1" d="M358.6,12.17c-1.96-2.72-4.24-4.62-3.91-5.75.49-1.67,2.71-3.59,4.44-3.85,1.06-.16,3.53,2.51,3.6,3.99.07,1.46-2.09,3.02-4.12,5.62Z"/>
      <path class="cls-1" d="M626.69,112.93c-1.93-2.87-3.97-4.57-3.83-6.07.15-1.53,2.35-3.86,3.81-3.99,1.3-.11,3.97,2.31,3.96,3.61,0,1.74-2,3.48-3.94,6.44Z"/>
      <path class="cls-1" d="M181.33,106.09c-2.82,2.26-4.29,4.23-6.08,4.58-1.08.21-3.93-2.41-3.73-3.2.45-1.83,2-4.07,3.64-4.67,1.14-.42,3.19,1.6,6.17,3.29Z"/>
      <path class="cls-1" d="M210.72,79.26c2.04,2.48,4.07,3.91,4.24,5.53.12,1.09-2.34,3.36-3.74,3.44-1.25.07-3.51-2.02-3.7-3.38-.19-1.36,1.62-3.01,3.2-5.58Z"/>
      <path class="cls-1" d="M357.14,19.69c2,2.55,3.98,3.98,3.9,5.26-.09,1.31-2.1,3.22-3.51,3.45-1.05.17-3.38-1.81-3.5-2.99-.14-1.39,1.5-2.96,3.11-5.72Z"/>
      <path class="cls-1" d="M596.78,84.87c-2.78,1.85-4.35,3.71-5.68,3.55-1.32-.16-2.99-2.22-3.34-3.72-.19-.79,2.09-3.02,3.3-3.05,1.46-.04,2.96,1.56,5.72,3.22Z"/>
      <path class="cls-1" d="M232.56,78.65c-1.58-2.12-3.4-3.61-3.14-4.44.46-1.47,2.01-2.96,3.47-3.57.59-.25,3.18,1.96,3.04,2.71-.3,1.6-1.79,2.98-3.37,5.29Z"/>
      <path class="cls-1" d="M569.66,69.06c1.67,2.44,3.41,3.88,3.28,5.11-.13,1.25-2.11,2.31-3.29,3.46-1.06-1.09-2.94-2.15-2.97-3.27-.04-1.37,1.47-2.78,2.98-5.29Z"/>
      <path class="cls-1" d="M277.15,59.18c-2.29,1.52-3.58,3.02-4.91,3.05-1,.02-3.06-2.14-2.86-2.79.41-1.37,1.84-2.98,3.16-3.34.89-.25,2.32,1.47,4.61,3.09Z"/>
      <path class="cls-1" d="M555.09,65.45c-2.48,1.81-3.73,3.42-5.06,3.49-1.02.05-2.92-1.77-3.01-2.87-.08-1.06,1.57-3.07,2.63-3.19,1.3-.15,2.78,1.22,5.44,2.57Z"/>
      <path class="cls-1" d="M252.15,70.01c-1.53-1.85-3.17-2.97-3.21-4.14-.04-1.11,1.61-2.27,2.51-3.41,1.25,1.02,3.1,1.85,3.53,3.14.28.86-1.46,2.4-2.83,4.4Z"/>
      <path class="cls-1" d="M533.86,59.38c-1.94,1.48-3.45,3.32-4.21,3.05-1.31-.47-2.7-2.14-2.96-3.51-.14-.74,1.95-2.63,3.1-2.69,1.07-.05,2.23,1.64,4.07,3.15Z"/>
      <path class="cls-1" d="M507.2,58.83c-1.35-2.28-2.79-3.61-2.63-4.7.18-1.2,1.82-2.19,2.83-3.27,1.06,1.02,3.02,2.08,2.97,3.05-.06,1.36-1.61,2.65-3.18,4.93Z"/>
      <path class="cls-1" d="M294.37,49.39c1.5,1.98,3.17,3.23,3.05,4.26-.14,1.16-1.85,2.85-2.99,2.95-.98.08-2.9-1.68-2.99-2.75-.1-1.13,1.48-2.4,2.93-4.46Z"/>
      <path class="cls-1" d="M478.68,47.27c2.33-1.25,3.76-2.65,4.86-2.43,1.11.22,1.9,2.06,2.83,3.18-1.05.83-2.16,2.4-3.14,2.32-1.25-.1-2.39-1.52-4.55-3.07Z"/>
      <path class="cls-1" d="M193.61,99.54c-1.34-1.88-2.91-3.19-2.68-3.99.34-1.19,1.94-2.01,3-2.99.83,1.02,2.28,2,2.33,3.05.05,1.01-1.34,2.1-2.65,3.92Z"/>
      <path class="cls-1" d="M318.85,43.35c1.44,1.77,2.97,2.82,2.91,3.78-.07,1.12-1.53,2.15-2.39,3.21-1.07-.97-2.67-1.78-3.04-2.97-.25-.79,1.26-2.12,2.51-4.03Z"/>
      <path class="cls-1" d="M612.55,95.22c-1.57,1.44-2.44,2.83-3.56,3.07-.74.16-2.73-1.72-2.6-2.02.56-1.32,1.54-2.63,2.72-3.43.33-.23,1.83,1.23,3.45,2.38Z"/>
      <path class="cls-1" d="M147.88,380.23c17.24-3.86,30.01.36,38.27,12.52,5.75,8.47,6.35,17.66,3.5,27.23-.42,1.4-1.07,3.09-2.17,3.82-1.29.86-3.53,1.52-4.71.94-1.06-.52-1.74-2.84-1.73-4.36.04-5.72,1.88-11.85.4-17.08-4.25-15.13-21.6-20.76-35.25-12.19-2.11,1.32-3.99,3.02-6.14,4.28-.83.49-2.51.71-3.06.23-.83-.73-1.13-2.17-1.4-3.37-.12-.55.36-1.25.63-1.86,8.66-20.19-7.59-35.68-21.58-39.92-17.68-5.36-36.39,4.58-40.67,21.6-.75,3-.93,6.31-.56,9.38.52,4.34,2.89,7.35,7.85,7.39,1.65.01,3.48,0,4.89.7,1.09.54,2.29,2.19,2.25,3.3-.03.89-1.81,2.37-2.9,2.45-4.14.31-8.39.6-12.46-.01-1.88-.28-3.95-2.33-5.08-4.12-6.43-10.13-3.82-26.93,6.06-36.85,12.48-12.53,27.63-16.7,44.44-11.1,16.68,5.56,26.96,17.21,28.99,35.23.05.49.22.96.42,1.79Z"/>
      <path class="cls-1" d="M653.36,380.45c2.09-6.12,3.36-12.44,6.27-17.89,7.67-14.34,20.44-21.06,36.41-21.3,16.46-.25,29.44,6.8,37.59,21.14,5.29,9.31,5.84,19.45.12,29.02-1.13,1.88-3.94,3.4-6.21,3.81-3.55.64-7.32.43-10.94.07-1.16-.12-2.16-1.85-3.23-2.85,1.06-1,2-2.67,3.2-2.89,3.83-.69,8.21.29,10.53-4.15,2.63-5.04,2.68-10.37.71-15.49-1.29-3.35-3.66-6.28-5.41-9.46-.96-1.74-1.43-3.77-2.52-5.41-1.6-2.38-2.64-6-7.04-3.5-1.19.67-3.42-.07-5.01-.61-18.76-6.37-39.85,4.96-43.7,24.15-.92,4.59.89,9.7,1.3,14.58.16,1.91-.1,3.85-.16,5.77-1.94-.39-4.23-.26-5.76-1.27-5.17-3.41-10.15-6.86-16.75-6.93-15.13-.16-26.2,13.47-22.75,28.23.3,1.29,1.26,2.64,1.03,3.79-.4,1.98-1.49,3.83-2.3,5.73-1.8-.97-4.66-1.52-5.23-2.97-4.23-10.77-3.61-21.41,3.61-30.7,8.44-10.87,19.79-14.63,33.29-11.55,1.12.25,2.23.52,2.96.68Z"/>
      <path class="cls-1" d="M293.72,274.89c-7.2,6.81-14.99,14.17-23.18,21.92-8.56-3.12-14.1-10.68-18.71-19.13-.4-.74-.46-2.1-.04-2.78,4.9-7.92,9.46-16.15,18.79-19.99,2.56-1.06,3.81-.67,5.74,1.54,5.75,6.61,12.01,12.78,17.41,18.44ZM267.87,271.32c-1.19,2.18-2.41,3.47-2.41,4.76,0,.84,1.81,1.66,2.8,2.5.93-1.11,2.44-2.15,2.59-3.36.12-.92-1.5-2.05-2.99-3.89Z"/>
      <path class="cls-1" d="M225.6,274.26c9.59-4.47,14.33-12.52,19.27-20.71,4.94-8.19,13.49-11.46,22.54-13.29,4.9-.99,3.31,3.29,5.13,5.53-2.2.73-3.72,1.29-5.27,1.74-8.92,2.58-15.49,7.73-19.69,16.28-2.13,4.35-5.74,7.97-8.42,11.57,3.29,5.33,6.83,11.01,10.3,16.72,4.07,6.7,10.68,9.64,17.7,11.91-1.04,5.14-3.52,6.51-8.51,4.64-7.37-2.76-13.28-7.05-16.6-14.19-3.39-7.29-8.16-13.25-14.75-17.81-.49-.34-.74-1.02-1.7-2.4Z"/>
      <path class="cls-1" d="M594.52,339.69c-.87-.73-2.74-1.57-2.8-2.52-.08-1.24.96-3.25,2.07-3.77,8.13-3.81,16.35-7.47,24.64-10.91,19.06-7.91,38.19-15.66,57.29-23.5,2.35-.96,4.96-2.39,6.29,1.02,1.26,3.21-1.34,4.33-3.75,5.32-26.77,11.05-53.54,22.11-80.31,33.16-.92.38-1.88.66-3.42,1.2Z"/>
      <path class="cls-1" d="M657.81,415.74c7.98,0,15.98-.24,23.94.18,1.89.1,4.98,2.23,5.23,3.79.54,3.4-2.64,4.13-5.44,4.15-15.14.1-30.27.12-45.41.15-.99,0-2.21.17-2.94-.31-1.69-1.12-3.15-2.59-4.71-3.91,1.62-1.34,3.19-3.74,4.87-3.83,8.13-.4,16.29-.18,24.44-.18,0-.01,0-.02,0-.04Z"/>
      <path class="cls-1" d="M150.68,296.43c-3.21-7.57-6.25-14.73-9.49-22.39,2.65-6.5,5.75-14.12,9.24-22.68.7,2.25,1.37,3.93,1.75,5.68,1.3,5.95,3.08,11.56,8.22,15.53.67.52.76,3.29.3,3.54-7.54,4.17-7.97,11.76-9.39,18.89-.06.32-.26.6-.62,1.42Z"/>
      <path class="cls-1" d="M515.6,554.49c-1.81-9.24-7.28-14.63-15.46-18.35,9.45-2.24,13.34-8.94,15.61-17.7,2.85,8.34,6.01,15.97,16.3,17.61-9.06,3.22-13.9,9.56-16.44,18.44Z"/>
      <path class="cls-1" d="M301.96,535.89c-9.4,3.16-13.81,9.8-15.69,19.01q-7.47-12.98-16.39-18.9c9.72-1.93,13.63-8.63,15.78-17.4,3.24,7.95,5.89,16.06,16.3,17.28Z"/>
      <path class="cls-1" d="M185.46,226.8c-10.62,2.82-11.88,11.7-14.69,20.15-2.61-8.16-3.9-16.79-14.01-19.89,9.11-2.64,11.5-10.03,13.91-18.89,4.17,7.71,5.44,16.14,14.79,18.63Z"/>
      <path class="cls-1" d="M91.8,475.8c13.45,1.32,24.73,10.78,27,23.07.3,1.61.72,3.55.1,4.88-.84,1.8-2.62,3.16-4,4.71-1.14-1.55-3.03-2.98-3.31-4.68-1.81-11.08-9.15-18.55-19.49-19.33-2.7-.2-6.61.58-5.57-3.87.44-1.9,3.44-3.21,5.27-4.78Z"/>
      <path class="cls-1" d="M681.98,503.28c1.38-14.81,15.81-27.89,29.67-26.43,1.67.18,4.13,2.27,4.46,3.84.6,2.88-1.84,3.58-4.53,3.78-12.2.91-18.81,7.03-20.74,18.94-.42,2.59-.38,6.21-4.08,5.33-1.92-.46-3.21-3.55-4.78-5.45Z"/>
      <path class="cls-1" d="M573.43,475.85c2.9,7.24,5.89,13.91,14.76,15.68-7.1,3.51-12.81,7.89-14.67,16.36-2.14-7.74-6.38-13.08-14.2-15.87,8.96-1.94,11.5-8.73,14.11-16.17Z"/>
      <path class="cls-1" d="M228.34,475.84c2.93,7,5.26,14.09,14.04,16.14-7.67,2.67-11.84,8.22-14.69,15.85-1.56-8.24-6.38-13.04-14.03-16.04,9.01-1.75,11.99-8.41,14.68-15.94Z"/>
      <path class="cls-1" d="M191.5,332c-1.63-.47-3.23-.78-4.71-1.38-9.55-3.88-19.09-7.79-28.61-11.76-2.47-1.03-5.43-2.21-3.97-5.69,1.51-3.6,4.22-1.43,6.34-.56,9.39,3.84,18.69,7.9,28.11,11.69,3.73,1.5,4.75,3.67,2.84,7.71Z"/>
      <path class="cls-1" d="M654.15,230.47c1.7-1.05,3.53-1.94,5.08-3.18,8.79-7.07,17.48-14.26,26.28-21.32,1.23-.99,2.87-2.13,4.28-2.08,2.42.1,3.05,3.88.65,5.84-9.79,7.99-19.71,15.82-29.78,23.45-1.09.82-3.47-.07-5.25-.16-.42-.85-.84-1.7-1.26-2.55Z"/>
      <path class="cls-1" d="M451.71,460.33c5.38-1.68,9.12-6.03,10.44-12.3,4.13,4.93,7.73,9.21,11.53,13.74-4.94,2.4-9.01,6.7-9.82,13.46-4.42-5.42-8.26-10.13-12.15-14.9Z"/>
      <path class="cls-1" d="M348.95,461.19c-3.31,3.98-7.05,8.46-10.49,12.58-3.07-3.98-6.57-8.52-9.78-12.69,3.03-3.73,6.55-8.05,9.81-12.07,3.25,3.79,7.01,8.16,10.46,12.18Z"/>
      <path class="cls-1" d="M163.99,283.61c1.77-4.01,3.78-4.99,6.95-3.01,6.07,3.8,12.32,7.31,18.2,11.38,1.44.99,2.83,4.13,2.28,5.49-1.34,3.34-3.94,1.13-5.75,0-7.3-4.54-14.5-9.25-21.68-13.86Z"/>
      <path class="cls-1" d="M676.32,382.63c.1-8.23,8.6-14.66,14.85-12.37,1.64.6,2.69,2.81,4.01,4.28-1.54,1.09-3.02,3-4.64,3.12-3.64.27-5.84,1.42-6.88,5.13-.36,1.3-2.7,3.29-3.36,3.03-1.79-.72-3.17-2.47-3.99-3.19Z"/>
      <path class="cls-1" d="M285.93,94.33c1.63,1.86,2.77,2.63,3.14,3.67,2.2,6.24,4.35,12.52,6.2,18.87.33,1.14-.83,2.71-1.31,4.08-1.47-.61-3.88-.87-4.27-1.9-2.44-6.32-4.59-12.77-6.4-19.3-.33-1.19,1.38-2.95,2.64-5.43Z"/>
      <path class="cls-1" d="M112.02,369.63c7.29.05,13.02,4.65,13.66,10.23.2,1.74-1.21,4.49-2.72,5.4-2.57,1.55-3.73-.91-4.33-3.1-.78-2.86-2.18-4.85-5.49-4.57-2.56.21-5.92.43-5.42-2.97.32-2.18,3.34-3.96,4.29-4.99Z"/>
      <path class="cls-1" d="M549.4,444.43c2.68-3.14,5.03-5.9,7.69-9.02,2.72,3.03,5.42,6.02,8.3,9.22-2.35,2.48-5.12,5.4-8.17,8.61-2.53-2.85-5-5.64-7.82-8.81Z"/>
      <path class="cls-1" d="M235.2,444.54c2.98-3.23,5.76-6.24,8.78-9.52,2.56,3.13,5.02,6.13,7.69,9.39-2.51,2.81-5,5.59-7.59,8.49-2.83-2.67-5.67-5.34-8.88-8.37Z"/>
      <path class="cls-1" d="M307.85,150.14c-.92,1.01-1.7,2.62-2.75,2.82-1.03.19-3.04-.8-3.37-1.72-1.9-5.27-3.54-10.65-4.99-16.07-.22-.82,1-2.89,1.55-2.89,1.4,0,3.69.5,4.05,1.42,2.04,5.21,3.61,10.61,5.51,16.44Z"/>
      <path class="cls-1" d="M151.39,333.29c6.72,2.48,12.97,4.68,19.1,7.16.78.31.97,2.07,1.44,3.15-1.14.39-2.44,1.34-3.4,1.08-6.07-1.64-12.11-3.45-18.06-5.49-.96-.33-2.15-2.25-1.95-3.13.26-1.09,1.86-1.87,2.87-2.78Z"/>
      <path class="cls-1" d="M582.11,418.94c2.43-2.82,4.68-5.43,7.36-8.53,2.57,2.84,5.15,5.69,7.13,7.88-2.51,3.02-4.8,5.78-7.49,9-2.49-2.97-4.67-5.58-7-8.36Z"/>
      <path class="cls-1" d="M212.57,427.38c-2.75-3.1-5.04-5.69-7.63-8.61,2-2.38,4.39-5.23,7.03-8.36,2.45,2.76,4.81,5.43,7.5,8.47-2.12,2.61-4.35,5.37-6.89,8.51Z"/>
      <path class="cls-1" d="M486.45,425.55c.13-3.45,3.11-6.1,6.63-5.88,3.31.21,6.45,3.48,6.01,6.64-.5,3.6-2.95,5.46-6.48,5.65-3.23.17-6.28-3.16-6.16-6.42Z"/>
      <path class="cls-1" d="M301.79,425.72c.23-3.36,2.11-5.81,5.78-5.98,3.88-.18,6.34,2.22,6.69,6,.36,3.86-2.37,5.7-5.74,6.3-3.08.54-6.58-2.8-6.73-6.31Z"/>
      <path class="cls-1" d="M551.19,474.68c-2.54,2.91-4.47,5.13-7,8.04-2.01-2.65-3.95-5.19-6.22-8.17,1.42-1.79,3.51-4.41,5.99-7.51,2.5,2.64,4.8,5.08,7.23,7.65Z"/>
      <path class="cls-1" d="M125.13,324.53c4.55,1.77,8.61,3.2,12.52,4.99.8.36,1.59,2.23,1.32,3.05-.31.93-2.04,2.23-2.78,2.03-4.46-1.21-8.86-2.68-13.15-4.39-.7-.28-1.33-2.44-.96-3.26.48-1.06,2-1.64,3.05-2.42Z"/>
      <path class="cls-1" d="M683.12,278.04c-1.13-1.02-2.45-1.65-2.6-2.49-.2-1.1.15-2.97.92-3.46,3.48-2.21,7.12-4.23,10.89-5.89.86-.38,2.76.68,3.65,1.6.51.53.37,2.76-.18,3.09-4.06,2.5-8.29,4.73-12.68,7.15Z"/>
      <path class="cls-1" d="M257.37,482.03c-7.73-7.85-7.72-8,.65-14.31,1.9,2.43,3.81,4.86,5.94,7.59-2.18,2.22-4.38,4.47-6.59,6.72Z"/>
      <path class="cls-1" d="M491.69,652.02c11.35-8.38,22.35-16.5,33.34-24.62l.96,1.07c-.35.61-.56,1.42-1.08,1.8-9.62,7.12-19.27,14.19-28.92,21.27-1.72,1.26-3.55,3.09-4.3.47Z"/>
      <path class="cls-1" d="M234.32,142.38c-1.9,1.6-3.66,4.27-5.74,4.53-2.91.38-6.39-1.56-5.83-5.06.32-2.01,3.06-4.5,5.21-5.17,3.15-.97,5.05,1.42,6.36,5.69Z"/>
      <path class="cls-1" d="M610.83,463.72c2.59,2.92,4.44,5,6.54,7.37-2.05,2.25-3.98,4.39-6.31,6.95-1.94-2.64-3.59-4.87-5.71-7.75,1.17-1.4,3.09-3.71,5.48-6.56Z"/>
      <path class="cls-1" d="M190.95,463.66c2.36,2.92,4.17,5.16,6.19,7.67-2.1,2.21-3.98,4.18-6.03,6.33-2.24-2.07-4.25-3.93-6.53-6.04,2.18-2.73,3.96-4.96,6.36-7.96Z"/>
      <path class="cls-1" d="M164.62,219.13c-3.5-2.7-6.65-5.01-9.61-7.54-.64-.55-1.07-2.16-.73-2.84.51-1.01,1.74-2.21,2.76-2.3,4.58-.43,9.83,7.44,7.58,12.68Z"/>
      <path class="cls-1" d="M100.57,316.93c3.29,1.34,6.28,2.36,9.05,3.81.85.44,1.76,2.38,1.44,3.06-.52,1.1-2.27,2.6-3.1,2.39-3.17-.81-6.27-2.07-9.2-3.56-.63-.32-.77-2.36-.5-3.46.2-.83,1.4-1.41,2.31-2.24Z"/>
      <path class="cls-1" d="M639.25,337.73c3.53-1.17,7.01-2.55,10.62-3.38.94-.22,2.88,1.03,3.25,2.01.31.83-.71,2.84-1.65,3.31-2.34,1.18-4.94,2.23-7.51,2.44-1.6.13-3.33-1.36-5-2.12l.29-2.27Z"/>
      <path class="cls-1" d="M139.1,221.96c-1.91,1.41-3.24,2.39-5.15,3.8-2.19-1.63-5.01-3.37-7.32-5.62-.86-.84-.55-2.89-.77-4.39,1.37-.19,3.12-1.01,4.04-.45,3.07,1.83,5.84,4.16,9.2,6.66Z"/>
      <path class="cls-1" d="M106.55,268.97c2.03-1.12,4.21-3.31,6.03-3.04,1.62.24,4.26,3.64,3.89,4.87-.57,1.91-3.19,4.08-5.21,4.38-1.4.21-3.24-2.53-4.88-3.95.06-.75.11-1.51.17-2.26Z"/>
      <path class="cls-1" d="M269.6,137.67c-.88-1.27-2.48-2.74-3.02-4.53-.8-2.68-4.52-6.33-.45-8.19,4.41-2.02,4.93,3.09,6.19,5.83,1.11,2.42,3.64,5.68-2.72,6.89Z"/>
      <path class="cls-1" d="M455.94,439.49c-2.52-3.07-5.26-5-5.04-6.51.27-1.93,2.68-4.38,4.64-4.94,1.16-.33,4.52,2.52,4.58,4.03.08,1.97-2.13,4.04-4.18,7.42Z"/>
      <path class="cls-1" d="M352.2,432.74c-3.38,2.17-5.43,4.5-7.07,4.25-1.74-.27-3.11-2.99-4.64-4.65,1.66-1.52,3.23-4.09,5.02-4.25,1.64-.15,3.51,2.3,6.69,4.65Z"/>
      <path class="cls-1" d="M523.52,464.13c-1.69-2.89-3.59-5.06-4.1-7.52-.22-1.06,2.74-4.04,3.77-3.83,2.26.46,4.21,2.42,6.82,4.11-2.37,2.64-4.08,4.55-6.49,7.24Z"/>
      <path class="cls-1" d="M282.82,456.84c-2.29,2.84-3.72,4.61-5.9,7.31-1.95-2.81-4.14-4.68-4.41-6.8-.18-1.4,2.71-4.65,3.68-4.45,2.36.48,4.39,2.5,6.62,3.94Z"/>
      <path class="cls-1" d="M209.26,334.74c-1.56,1.3-2.71,2.89-3.36,2.7-3.04-.87-6.03-2.06-8.8-3.56-.47-.26.17-2.58.29-3.94,1.87.27,3.87.21,5.56.9,2.02.82,3.77,2.29,6.31,3.89Z"/>
      <path class="cls-1" d="M252.08,609.39c3.33,2,6.75,3.88,9.91,6.12.57.41.09,2.3.09,3.5-2.77-1.12-5.77-1.89-8.23-3.48-1.53-.99-2.25-3.24-3.34-4.93.52-.4,1.05-.81,1.57-1.21Z"/>
      <path class="cls-1" d="M339.2,583.42c-2.77,2.31-4.5,4.83-5.94,4.67-1.78-.2-3.31-2.62-4.94-4.08,1.45-1.46,2.76-3.89,4.39-4.12,1.58-.23,3.49,1.78,6.49,3.53Z"/>
      <path class="cls-1" d="M266.15,226.44c-1.73,1.01-3.68,3.06-5.13,2.75-1.61-.35-3.61-2.74-3.81-4.44-.14-1.19,2.53-3.89,3.78-3.79,1.85.13,3.56,2.16,5.33,3.38-.06.7-.11,1.4-.17,2.11Z"/>
      <path class="cls-1" d="M468.08,577.66c2.12,2.81,4.37,4.49,4.29,6.05-.09,1.66-2.39,3.19-3.73,4.78-1.67-1.52-4.17-2.79-4.7-4.64-.36-1.24,2.08-3.28,4.14-6.19Z"/>
      <path class="cls-1" d="M227.5,285.74c-2.75,2.26-4.29,4.49-5.85,4.51-1.4.02-4.07-2.51-3.96-3.71.15-1.64,2.17-3.84,3.83-4.36,1.14-.36,3.06,1.72,5.98,3.56Z"/>
      <path class="cls-1" d="M547.98,514.47c1.98,2.94,4.02,4.65,3.97,6.29-.05,1.38-2.88,3.99-3.86,3.72-1.76-.47-3.83-2.5-4.25-4.24-.28-1.18,2.03-2.99,4.14-5.78Z"/>
      <path class="cls-1" d="M259.29,520.94c-3.02,1.85-4.88,3.87-6.2,3.56-1.61-.38-3.44-2.55-3.84-4.26-.21-.89,2.51-3.5,3.82-3.44,1.69.08,3.29,2.06,6.22,4.14Z"/>
      <path class="cls-1" d="M221.99,269.34c-1.86-2.84-3.89-4.58-3.68-5.99.22-1.47,2.6-3.61,4.03-3.61,1.34,0,3.67,2.38,3.74,3.8.07,1.48-2.04,3.07-4.08,5.79Z"/>
      <path class="cls-1" d="M433.75,439.96c2.08,2.68,4.32,4.31,4.2,5.75-.13,1.6-2.42,3.02-3.77,4.52-1.37-1.37-3.66-2.62-3.85-4.14-.19-1.52,1.72-3.3,3.41-6.13Z"/>
      <path class="cls-1" d="M366.64,440.09c2.06,2.8,4.25,4.49,4.11,5.96-.13,1.4-2.6,3.37-4.22,3.57-1.11.13-3.53-2.31-3.57-3.65-.05-1.55,1.87-3.17,3.69-5.88Z"/>
      <path class="cls-1" d="M102.57,254.32c-2.46,1.95-3.9,3.98-5.23,3.91-1.38-.07-3.55-2.08-3.7-3.42-.14-1.28,1.85-3.9,2.97-3.94,1.57-.05,3.2,1.74,5.95,3.46Z"/>
      <path class="cls-1" d="M625.14,229.26c-2.6,1.91-4.12,3.87-5.34,3.7-1.38-.2-3.12-2.17-3.46-3.65-.21-.9,1.9-3.29,3.01-3.31,1.48-.03,2.99,1.58,5.79,3.27Z"/>
      <path class="cls-1" d="M707.14,259.21c-1.71-2.3-3.72-4.08-3.4-4.78.71-1.55,2.45-3.05,4.08-3.57.68-.22,3.15,2.22,3.06,3.29-.13,1.46-1.94,2.78-3.74,5.07Z"/>
      <path class="cls-1" d="M354.14,556.91c-2.42,1.7-3.83,3.46-5.01,3.31-1.32-.16-2.42-2.06-3.61-3.2,1.18-1.16,2.25-3.04,3.58-3.25,1.15-.19,2.6,1.53,5.03,3.14Z"/>
      <path class="cls-1" d="M457,556.99c-2.4,1.62-3.85,3.36-5.05,3.2-1.26-.17-3.1-2.12-3.15-3.36-.04-1.06,2.03-2.98,3.28-3.09,1.23-.1,2.6,1.62,4.92,3.25Z"/>
      <path class="cls-1" d="M542.42,614.57c2.53-1.81,5.05-3.61,8.16-5.83.21,5.99-1.47,7.56-6.22,7.2,0,0,0,.16,0,.16.33-.33.65-.66.98-.98l.03-.12c-1.03-.18-2.06-.36-3.09-.53,0,0,.13.12.13.12Z"/>
      <path class="cls-1" d="M491.98,563.28c-1.61-1.94-3.4-3.16-3.29-4.19.13-1.29,1.65-3.1,2.88-3.4.91-.22,3.28,1.63,3.28,2.55,0,1.41-1.5,2.81-2.86,5.04Z"/>
      <path class="cls-1" d="M506.05,504.69c-1.81,1.56-3.2,3.54-4.08,3.33-1.34-.32-2.33-2.13-3.47-3.32,1.07-1.03,2.09-2.81,3.21-2.87,1.19-.06,2.45,1.52,4.34,2.85Z"/>
      <path class="cls-1" d="M323.65,508.71c-1.45-2.06-3.05-3.36-3.08-4.68-.02-1.02,2.23-3.09,2.98-2.89,1.39.37,3.02,1.91,3.38,3.28.23.87-1.66,2.29-3.28,4.3Z"/>
      <path class="cls-1" d="M304.04,504.87c-2.19,1.68-3.61,3.5-4.47,3.26-1.35-.37-2.84-1.97-3.25-3.35-.21-.7,1.83-2.9,2.86-2.91,1.31-.01,2.62,1.52,4.86,3Z"/>
      <path class="cls-1" d="M452.57,531.29c-1.41-2.15-2.99-3.5-2.84-4.62.15-1.14,2.01-2.83,3.12-2.83,1.11,0,3.23,1.92,3.12,2.77-.18,1.4-1.79,2.62-3.4,4.68Z"/>
      <path class="cls-1" d="M476.78,508.95c-1.19-2.36-2.52-3.81-2.4-5.14.09-1,2.48-2.79,3.09-2.52,1.29.57,2.74,2.19,2.88,3.51.11.97-1.76,2.15-3.57,4.15Z"/>
      <path class="cls-1" d="M314.28,558.27c-1.86,1.55-2.97,3.22-4.1,3.22-1.17,0-2.34-1.6-3.51-2.5,1.04-1.21,1.9-3.01,3.2-3.43.88-.28,2.38,1.38,4.41,2.7Z"/>
      <path class="cls-1" d="M119.17,207.92c-2.01,1.37-3.65,2.95-4.04,2.68-1.47-.99-2.64-2.52-3.59-4.05-.12-.19,2.1-2.51,2.63-2.3,1.58.62,2.86,2.01,5,3.67Z"/>
      <path class="cls-1" d="M509.7,571.27c-1.9,1.67-3,3.4-4.16,3.44-1,.03-2.79-1.81-2.88-2.93-.08-.99,1.58-2.83,2.68-3.02,1.05-.18,2.39,1.3,4.36,2.51Z"/>
      <path class="cls-1" d="M348.46,522.28c1.41,2.15,2.92,3.46,2.78,4.54-.15,1.11-1.96,2.81-2.97,2.75-1.05-.06-2.69-1.84-2.79-2.98-.09-1.07,1.49-2.29,2.98-4.32Z"/>
      <path class="cls-1" d="M642.88,169.18c1.31,2.26,2.61,3.52,2.57,4.74-.03.93-1.95,2.69-2.66,2.52-1.23-.29-2.94-1.73-3.03-2.8-.09-1.09,1.53-2.32,3.12-4.46Z"/>
      <path class="cls-1" d="M296.62,567.22c1.39,2.15,2.89,3.46,2.73,4.5-.18,1.12-1.92,1.99-2.99,2.97-.97-1.07-2.61-2.07-2.72-3.22-.1-1.03,1.47-2.23,2.98-4.25Z"/>
      <path class="cls-1" d="M658.92,403.76c-1.78,1.64-2.85,3.35-3.74,3.26-1.27-.13-2.4-1.57-3.59-2.45.85-.99,1.63-2.68,2.58-2.78,1.22-.14,2.59,1,4.75,1.97Z"/>
      <path class="cls-1" d="M164.34,173.48c-2.01,1.51-3.12,2.9-4.44,3.12-.71.12-2.63-1.93-2.46-2.64.28-1.21,1.64-2.69,2.82-3,.85-.23,2.15,1.26,4.08,2.53Z"/>
      <path class="cls-1" d="M146.71,408.41c-1.21-1.85-2.64-3.09-2.45-3.98.24-1.11,1.76-2.56,2.85-2.67.89-.09,2.89,1.76,2.75,2.41-.27,1.3-1.66,2.37-3.15,4.24Z"/>
      <path class="cls-1" d="M181.23,185.97c-1.82,1.13-3.02,2.47-4,2.32-1.02-.15-1.83-1.73-2.74-2.68,1.07-.98,2.03-2.47,3.26-2.74.73-.16,1.88,1.61,3.47,3.1Z"/>
      <path class="cls-1" d="M202.58,558.25c-1.93,1.38-3.03,2.78-4.03,2.7-1.07-.08-2.03-1.54-3.04-2.4.91-.96,1.73-2.55,2.76-2.7,1.02-.14,2.24,1.17,4.31,2.4Z"/>
      <path class="cls-1" d="M625.42,181.28c1.26,2.02,2.63,3.25,2.47,4.22-.18,1.06-1.78,1.88-2.76,2.8-.91-1-2.44-1.94-2.55-3.02-.09-.96,1.39-2.08,2.84-4Z"/>
      <path class="cls-1" d="M778.73,444.5c-1.44-1.68-2.99-2.79-2.82-3.44.35-1.3,1.64-2.34,2.54-3.48.93.73,2.68,1.54,2.62,2.18-.13,1.34-1.2,2.6-2.34,4.74Z"/>
      <path class="cls-1" d="M295.92,484.41c-1.31-1.88-2.73-3.02-2.65-4.04.08-1,1.65-2.56,2.62-2.61.88-.04,2.53,1.59,2.59,2.56.06,1.07-1.31,2.22-2.56,4.09Z"/>
      <path class="cls-1" d="M505.44,476.19c1.64,1.88,3.23,2.92,3.16,3.83-.08,1.11-1.58,2.11-2.46,3.15-.94-.89-2.42-1.66-2.65-2.71-.21-.95.93-2.2,1.95-4.27Z"/>
      <path class="cls-1" d="M80.97,527.14c-1.85,1.29-3.01,2.74-4,2.62-1.03-.12-1.89-1.74-2.82-2.71.98-.9,1.9-2.42,2.95-2.51.98-.09,2.1,1.33,3.87,2.6Z"/>
      <path class="cls-1" d="M23.75,436.6c1.29,1.91,2.71,3.1,2.57,4.07-.15,1.02-1.72,2.37-2.8,2.52-.73.1-2.38-1.66-2.39-2.6,0-1.08,1.34-2.17,2.62-3.99Z"/>
      <path class="cls-1" d="M723.95,530.91c-1.07-1.89-2.38-3.17-2.16-4.08.24-1,1.92-2.32,2.9-2.27.89.05,2.38,1.79,2.33,2.73-.05,1.01-1.57,1.95-3.08,3.61Z"/>
      <path class="cls-1" d="M531.54,500.28c-1.92,1.44-3.02,2.89-4.05,2.85-.91-.04-2.24-1.63-2.46-2.72-.13-.67,1.45-2.36,2.31-2.39,1.1-.04,2.24,1.13,4.2,2.26Z"/>
      <path class="cls-1" d="M602.83,561.94c-1.14-1.75-2.47-3.03-2.21-3.55.55-1.13,1.79-2.2,2.99-2.62.44-.15,2.26,1.7,2.17,2.48-.13,1.06-1.49,1.98-2.94,3.68Z"/>
      <path class="cls-1" d="M585.45,463.62c-.95-2.14-1.96-3.37-1.84-4.47.1-.86,1.59-1.56,2.47-2.33.76,1.07,1.98,2.1,2.11,3.24.09.81-1.31,1.79-2.74,3.56Z"/>
      <path class="cls-1" d="M357.5,494.05c-1.65,1.44-2.55,2.74-3.69,3-.57.13-2.27-1.71-2.2-2.55.08-1.01,1.37-2.38,2.4-2.69.7-.21,1.87,1.14,3.49,2.24Z"/>
      <path class="cls-1" d="M366.75,473.34c-1.5,1.36-2.35,2.75-3.29,2.82-.93.07-1.95-1.21-2.93-1.89.82-1.08,1.45-2.56,2.54-3.07.6-.28,1.96,1.09,3.68,2.15Z"/>
      <path class="cls-1" d="M541.31,617.46c-.61-.47-1.21-.94-1.82-1.41.98-.5,1.95-.99,2.93-1.49,0,0-.13-.12-.13-.12,0,.38,0,.75,0,1.13,0,0,.11-.16.11-.16-.37.72-.74,1.44-1.12,2.15l.04-.11Z"/>
      <path class="cls-1" d="M544.37,616.09s0-.16,0-.16c-.66.52-1.32,1.03-1.98,1.55l.03.11c-.01-.72-.02-1.44-.03-2.17,0,0-.11.16-.11.16.7.17,1.39.34,2.09.51Z"/>
      <path class="cls-1" d="M542.39,617.48c-.36,0-.72-.01-1.07-.02,0,0-.04.11-.04.11.38,0,.76,0,1.15.01,0,0-.03-.11-.03-.11Z"/>
      <path class="cls-1" d="M527.35,253.89c7.5,1.51,12.84,6.97,17.4,13.51,6.18,8.88,6.49,9.08-.19,17.52-3.22,4.07-7.59,7.28-11.72,10.52-.88.69-3.53.45-4.43-.38-7.25-6.75-14.28-13.74-21.01-20.31,6.15-6.43,12.88-13.47,19.95-20.86ZM533.26,279.89c1.11-1.99,2.41-3.3,2.15-4.09-.43-1.27-1.89-2.19-2.92-3.26-.83,1.23-2.15,2.4-2.33,3.72-.11.81,1.51,1.86,3.09,3.63Z"/>
      <path class="cls-1" d="M575.95,275.76c-9.9,4-13.2,13.16-18.07,21.19-3.65,6.03-9.44,9.69-16.14,11.86-5.63,1.82-5.95,1.65-7.97-4.78,11.03-2.55,18.02-9.57,22.32-19.92,1.33-3.21,4.33-5.72,6.2-8.09-3.63-5.41-7.41-11.11-11.24-16.76-5.28-7.79-13.18-11.29-22.59-13.12.92-2.41,1.71-4.48,2.61-6.84,11.67,2.7,21.98,6.9,27.69,17.89,3.55,6.85,8.09,12.51,14.99,16.11.74.39,1.51.7,2.27,1.05-.02.47-.04.94-.06,1.4Z"/>
      <path class="cls-1" d="M496.07,154.05c-.39-1.58-1.41-3.32-1.04-4.69,1.24-4.64,2.9-9.17,4.52-13.7,2.63-7.34,5.21-14.7,8.19-21.9.61-1.47,2.89-2.24,4.4-3.34.52,1.76,1.91,3.82,1.43,5.24-3.96,11.62-8.21,23.15-12.54,34.64-.56,1.49-2.09,2.61-3.17,3.9-.6-.05-1.19-.1-1.79-.15Z"/>
      <path class="cls-1" d="M479.61,121.2c1.06-3.07,1.73-5.67,2.9-8.02.4-.8,2.38-1.64,3.06-1.3,1.03.51,2.28,2.13,2.15,3.11-.32,2.43-1.1,4.91-2.25,7.07-.59,1.1-2.38,2.13-3.61,2.12-.78,0-1.55-1.99-2.25-2.98Z"/>
      <path class="cls-1" d="M547.04,225.01c-2.88,2.11-4.58,4.33-6.14,4.24-1.59-.1-4.25-2.47-4.24-3.84,0-1.55,2.32-4.11,3.89-4.33,1.55-.22,3.43,1.95,6.49,3.93Z"/>
      <path class="cls-1" d="M586,286.18c-2.71,1.98-4.6,4.32-5.75,3.99-1.74-.49-3.52-2.63-4.15-4.46-.27-.8,2.44-3.75,3.53-3.62,1.86.23,3.51,2.13,6.36,4.08Z"/>
      <path class="cls-1" d="M585.49,263.01c-2.91,2.07-4.55,4.13-5.9,3.96-1.56-.2-2.86-2.38-4.27-3.7,1.31-1.34,2.5-3.55,3.98-3.76,1.42-.2,3.14,1.66,6.19,3.5Z"/>
      <path class="cls-1" d="M252.5,799.36c-2.22,1.37-3.68,2.96-4.67,2.71-1.31-.33-2.25-2.11-3.35-3.27,1.1-1.04,2.28-2.97,3.29-2.89,1.36.11,2.59,1.79,4.73,3.45Z"/>
      <path class="cls-1" d="M288.58,811.16c1.41,2.57,2.82,4.03,2.77,5.43-.04.99-2.06,1.91-3.19,2.86-.89-1.15-2.43-2.29-2.47-3.47-.04-1.21,1.39-2.47,2.89-4.82Z"/>
      <path class="cls-1" d="M517.93,816.47c-1.71,1.63-2.98,3.62-3.81,3.45-1.39-.28-2.49-1.94-3.72-3.01,1.1-1.17,2.04-2.92,3.37-3.29.87-.24,2.3,1.5,4.16,2.85Z"/>
      <path class="cls-1" d="M554.02,794.65c1.55,2.24,3.07,3.47,3.03,4.65-.04,1.09-1.75,2.11-2.72,3.16-1.01-1.03-2.67-1.96-2.83-3.11-.16-1.11,1.23-2.44,2.53-4.7Z"/>
      <path class="cls-1" d="M248.99,772.56c-1.59.99-3.12,2.6-4.78,2.75-1.16.1-2.49-1.82-3.74-2.84,1.31-1.39,2.4-3.45,3.99-3.93,1.17-.35,2.96,1.36,4.48,2.15.02.62.04,1.25.06,1.87Z"/>
      <path class="cls-1" d="M559.26,777.21c-1.68-2.73-3.19-4.27-3.44-5.99-.11-.75,2.62-2.86,3.59-2.6,1.45.4,3.17,2.2,3.46,3.66.21,1.05-1.74,2.52-3.61,4.93Z"/>
      <path class="cls-1" d="M220.68,777.06c-2.04,1.42-3.49,3.13-4.36,2.88-1.42-.42-2.47-2.12-3.67-3.27,1.21-1.14,2.35-3.08,3.63-3.17,1.15-.08,2.44,1.88,4.4,3.57Z"/>
      <path class="cls-1" d="M591.44,777.26c-2.27,1.2-3.79,2.65-4.77,2.35-1.29-.39-2.17-2.17-3.22-3.35,1.1-.93,2.37-2.74,3.27-2.58,1.41.25,2.58,1.85,4.72,3.57Z"/>
      <path class="cls-1" d="M401.64,169.75c-6.14-5.36-12.68-10.98-19.04-16.78-.68-.62-.75-2.44-.45-3.52,2.05-7.36,10.85-14.42,17.99-14.62,6.7-.19,16.27,7.05,18.27,14.15.39,1.39-.02,3.64-.96,4.65-5.53,5.93-11.33,11.6-15.8,16.11ZM404.09,148.82c-1.83-1.35-2.94-2.45-4.28-2.95-.33-.12-2.19,2.08-1.96,2.61.54,1.24,1.79,2.39,3.03,3,.42.2,1.69-1.36,3.21-2.66Z"/>
      <path class="cls-1" d="M374.59,144.92c-.22-1.05-1.25-3.04-.87-4.71,1.5-6.66,6.42-10.63,12.02-13.86,6.23-3.59,10.89-8.24,10.81-15.88,6.56-1.69,6.38-1.34,8.68,4.25,1.42,3.46,4.04,6.8,6.95,9.18,5.87,4.81,12.91,8.31,15.21,16.45.81,2.87.62,4.84-3.09,5.82-3.13-8.09-10.01-12.32-17.13-16.45-2.59-1.5-4.56-4.06-6.88-6.2-8,6.66-16.5,13.73-25.7,21.39Z"/>
      <path class="cls-1" d="M400.23,375.12c6.08,5.71,12.23,11.29,18.08,17.16,1.11,1.12,1.66,3.53,1.39,5.16-1.72,10.57-9.64,16.25-17.79,21.61-.67.44-2.12.52-2.72.09-7.87-5.6-16.28-10.91-17.94-21.53-.32-2.02.55-4.93,1.95-6.38,5.42-5.59,11.28-10.76,17.02-16.12ZM396.29,401.71c1.78,1.66,2.92,3.51,3.93,3.44,1.08-.08,2.58-1.83,2.86-3.08.18-.82-1.46-2.88-2.33-2.9-1.21-.04-2.45,1.31-4.46,2.55Z"/>
      <path class="cls-1" d="M402.66,813.11c2.16,2.64,4.11,4.04,4.36,5.7.16,1.07-2.32,3.66-3.37,3.53-1.54-.19-3.62-1.99-4.03-3.49-.33-1.2,1.49-2.99,3.04-5.73Z"/>
      <path class="cls-1" d="M363.07,834.79c-1.85,1.6-3.17,3.53-4.11,3.36-1.36-.24-2.45-2-3.66-3.11,1.04-1.01,2.04-2.75,3.14-2.83,1.23-.08,2.57,1.35,4.62,2.58Z"/>
      <path class="cls-1" d="M433.65,834.81c-1.62-1.87-3.28-2.93-3.33-4.06-.05-1.27,1.36-2.6,2.13-3.9,1.27,1.29,2.83,2.41,3.64,3.94.3.56-1.21,2.07-2.45,4.02Z"/>
      <path class="cls-1" d="M386.83,824.41c-2.67,1.11-4.1,2.17-5.51,2.13-.88-.02-1.71-1.69-2.57-2.63,1.17-1.06,2.23-2.75,3.55-2.97.95-.16,2.23,1.61,4.53,3.47Z"/>
      <path class="cls-1" d="M400.4,218.58c30.62.02,54.96,23.61,55.04,53.33.08,29.23-24.73,52.74-55.65,52.73-29.77,0-54.45-24.44-54.28-53.73.17-29.24,24.41-52.35,54.89-52.33ZM447.88,270.2c-1.26-25.57-23.76-45.74-49.48-44.35-26.34,1.43-46.83,22.46-45.61,46.68,1.31,26.05,23.74,45.68,49.37,44.76,26.38-.94,46.93-22.61,45.72-47.09Z"/>
      <path class="cls-1" d="M545.35,615.11s.02-.12.02-.12c0,0-.02.12-.02.12Z"/>
      <path class="cls-1" d="M400.49,290.96c-2.77-9.9-6.85-17.87-18.76-18.89,5.2-3.16,9.97-4.85,12.87-8.17,2.98-3.41,4.14-8.42,6.85-14.37,1.64,11.43,6.49,18.82,17.51,21.57-11.09,2.2-15.61,10.02-18.47,19.85Z"/>
    </g>
  </g>
</svg>