<?xml version="1.0" encoding="UTF-8"?>
<svg id="Layer_2" data-name="Layer 2" xmlns="http://www.w3.org/2000/svg" viewBox="0 0 697.48 696.52">
  <defs>
    <style>
      .cls-1 {
        fill: #274a53;
        stroke-width: 0px;
      }
    </style>
  </defs>
  <g id="Layer_1-2" data-name="Layer 1">
    <path class="cls-1" d="M494.59,415.9c3.68,2.98,6.39,5.69,9.56,7.66,13.99,8.69,27.91,17.53,42.27,25.59,11.48,6.45,24.24,9.03,37.4,9.72,8.08.42,10.53,3.31,10.53,11.27,0,3.77-1.53,5.24-5.32,5.49-23.9,1.58-45.96-3.93-66.19-16.72-5.01-3.17-9.89-6.54-14.82-9.83-.47.25-.93.49-1.4.74,9.73,23.56,19.47,47.11,29.2,70.67-.41.38-.81.76-1.22,1.14-25.02-7.4-50.25-13.58-77.25-14.99,1.63,2.83,2.97,5.05,4.22,7.32,11.91,21.72,10.76,44.14,3.35,66.79-1.53,4.67-5.57,5.6-9.64,2.86-5.27-3.54-6.65-6.79-4.91-13.18,5.14-18.84,3.5-36.45-9.81-51.63-5.36-6.12-11.48-11.58-17.37-17.22-2.72-2.6-5.72-4.88-8.89-7.56-1.41,13.05-3.4,25.49-3.89,38-.37,9.37,4.23,17.67,9.4,25.38,3.15,4.7,6.54,9.25,9.58,14.02,4.57,7.17,6.51,15.07,4.5,23.39-.64,2.66-2.8,5.98-5.13,6.97-3.49,1.49-4.9-2.42-6.33-4.96-3.41-6.05-6.69-12.17-10.72-19.54-1.17,3.57-1.82,5.69-2.56,7.78-4.5,12.67-12.56,23.06-21.45,32.83-12.79,14.04-25.95,27.76-35.5,44.39-1.56,2.72-3.64,4.99-6.07.61-10.05-18.14-24.67-32.61-38.31-47.87-9.39-10.5-17.02-22.07-21.08-37.2-3.77,6.43-6.92,11.79-10.06,17.17-.75,1.29-1.2,2.91-2.25,3.85-1.51,1.35-3.72,3.36-5.14,3.03-1.79-.42-3.9-2.68-4.48-4.57-2.51-8.15-1.8-16.25,2.53-23.66,3.19-5.45,6.79-10.67,10.52-15.77,9.39-12.88,12.67-26.78,8.68-42.49-1.71-6.71-2.01-13.78-2.99-20.95-.48.31-1.44.76-2.18,1.43-6.27,5.73-12.65,11.36-18.72,17.29-16.28,15.9-21.25,34.92-14.85,56.73,1.87,6.38,1.47,9.73-5.79,13.96-4.68,2.73-7.89,1.33-9.45-3.98-7.32-24.86-7.1-48.99,7.29-71.65.16-.25.16-.61.38-1.56-26.47,1.76-51.85,7.89-78.93,15.53,5.38-13.08,10.26-24.94,15.13-36.81,4.9-11.93,11.91-23.03,14.43-36.67-6.29,4.02-11.96,7.65-17.65,11.28-19.23,12.26-40.4,16.82-62.95,15.61-2.87-.15-6.67.7-6.84-4.36-.24-7.24,1.57-10.8,6.64-11.57,7.57-1.14,15.24-1.75,22.74-3.23,12.26-2.42,23.32-7.98,33.67-14.76,11.69-7.65,23.05-15.8,34.57-23.72.79-.54,1.66-.94,2.37-1.34-10.59-2.42-20.55-4.18-30.15-7.12-5.1-1.56-9.14-1.52-14.12.49-25.52,10.3-49.19,5.9-70.25-11.15-11.5-9.31-21.77-20.12-32.9-29.91-6.11-5.38-12.85-10.04-19.3-15.02-1.68-1.29-3.38-2.56-5.57-4.22,2.07-1.91,3.68-3.51,5.4-4.96,13.34-11.27,27-22.18,39.99-33.84,13.52-12.14,27.9-22.18,46.43-24.65,13.68-1.82,26.95-.43,39.49,5.58,3.53,1.69,6.65,1.68,10.46.74,9.65-2.37,19.48-4.03,29.36-6,.04.06-.2-.68-.71-1.1-17.92-14.51-36.51-28.16-58.18-36.43-9.19-3.5-19.3-4.76-29.1-6.4-8.42-1.41-10.22-3.01-10.88-11.29-.33-4.11.99-5.49,5.11-5.78,22.14-1.59,42.67,3.59,61.82,14.45,6.89,3.91,13.36,8.54,21.38,12.34-10.04-24.52-20.08-49.04-30.12-73.56.43-.4.86-.79,1.29-1.19,12.56,3.36,25.01,7.15,37.69,9.95,12.79,2.82,25.81,4.65,39.77,7.1-.96-2.25-1.26-3.29-1.8-4.19-13.88-23.15-12.96-47.6-6.25-72.49,1.03-3.82,2.83-7.46,8.01-6.05,4.99,1.36,8.99,8.02,8.28,12.66-1.37,9.01-3.42,18.08-3.3,27.1.25,18,10.47,31.11,23.58,42.25,4.68,3.98,9.54,7.75,14.87,12.07.22-1.67.38-2.85.54-4.03.84-6.26,1.15-12.66,2.62-18.77,3.82-15.86.4-30-8.88-43.05-3.57-5.02-7.35-9.91-10.55-15.15-4.18-6.84-5.21-14.47-3.13-22.16.69-2.54,3.29-4.55,5.02-6.81,2.07,1.68,4.73,2.99,6.08,5.12,3.97,6.27,7.43,12.87,11.66,19.29,3.88-20.4,17.21-34.55,30.45-48.64,10.66-11.35,20.21-23.46,28.14-36.85,2.49-4.2,4.39-4.39,6.73-.12,9.96,18.22,24.65,32.62,38.15,48,9.54,10.88,17.31,22.78,20.39,38.31,1.86-2.69,3.38-4.61,4.59-6.7,2.26-3.88,4.18-7.96,6.53-11.79,1.73-2.82,2.73-7.34,7.16-6.47,4.61.9,4.82,5.42,5.33,9.2,1.13,8.3-.85,15.89-5.63,22.73-2.57,3.69-5.25,7.3-7.91,10.93-9.34,12.71-13.32,26.54-9.83,42.35,1.74,7.87,2.42,15.97,3.62,24.3,11.01-8.83,22.08-17.4,29.9-29.21,10.34-15.62,10.41-32.63,5.6-49.96-1.28-4.62-.43-7.98,2.77-11.3,5.7-5.9,11.23-4.92,13.14,2.98,1.91,7.91,3.54,15.98,4.19,24.06,1.41,17.36-1.73,33.86-11.46,48.7-.44.67-.77,1.41-1.46,2.69,26.99-1.19,52.06-8.86,78.17-16.15-7.05,26.46-21.25,49.57-27.57,75.97,1.5-1.1,3.02-2.17,4.5-3.31,21.86-16.89,46.27-26.1,74.21-24.51,2.97.17,7.21-1.4,7.56,4.01.44,6.74-1.99,11.22-7.05,12.1-5.74,1-11.57,1.45-17.32,2.37-18.84,3.01-34.23,13.52-49.76,23.51-8.78,5.65-17,12.18-25.13,19.54,3.96.46,7.98.64,11.87,1.46,7.31,1.53,14.61,4.97,21.8,4.72,7.15-.25,14.04-4.73,21.28-6.2,24.02-4.87,45.2,1.68,63.59,17.48,12.38,10.63,24.34,21.74,36.74,32.35,5.01,4.29,10.68,7.82,16.55,12.06-2.94,2.32-5.31,4.07-7.54,5.98-11.12,9.5-22.17,19.09-33.31,28.57-7.98,6.79-15.54,14.24-24.2,20.01-21.2,14.11-43.83,15.15-67.21,5.39-2.16-.9-5.06-.74-7.44-.24-9.25,1.92-18.43,4.19-27.65,6.3-1.25.29-2.53.44-4.94.86ZM349.38,121.09c-12.22,16.98-24.26,32.31-34.71,48.65-10.39,16.23-14.21,34.74-10,53.68,3.12,14.03,8.6,27.54,13.12,41.25,1.22,3.69,2.75,7.27,4.06,10.69,2.92-.94,5.24-1.83,7.64-2.43,2.35-.59,4.78-.9,7.01-1.31,1.41-15.63,4.35-20.78,12.14-20.6,2.62.06,5.64,1.24,7.71,2.88,5.75,4.56,4.75,11.55,5.16,17.43,5.18,1.33,9.93,2.56,14.94,3.85,4.63-12.76,9.49-25.66,14-38.67,7.41-21.42,6.41-43.02-4.57-62.43-10.32-18.26-23.77-34.75-36.51-52.98ZM361.56,427.72c-.25,3.57-.16,7.26-.84,10.81-1.4,7.33-6.25,11.44-12.55,11.2-5.56-.22-9.74-4.72-10.71-11.91-.46-3.41-.46-6.89-.65-10.18-4.9-.93-9.56-1.81-14.47-2.73-.42.91-.98,1.91-1.36,2.98-4.33,12.41-8.56,24.85-12.95,37.24-7.55,21.33-6.5,42.51,4.88,61.74,10.5,17.75,23.52,34.01,35.85,51.52,10.74-14.21,20.92-27.17,30.48-40.57,4.02-5.64,7.36-11.96,9.93-18.4,7.14-17.84,7.49-36,1.06-54.21-4.86-13.74-9.69-27.5-14.42-40.93-4.96,1.2-9.59,2.32-14.25,3.45ZM274.5,377.54c-1.39-5.53-2.55-10.14-3.68-14.67-14.55-.19-20.38-3.3-20.71-11.47-.11-2.6.91-5.67,2.41-7.83,4.49-6.48,11.81-5.61,18.35-5.83,1.16-4.9,2.21-9.36,3.45-14.58-15.42-4.49-30.47-9.33-45.77-13.19-11.52-2.91-23.57-3.88-35.2-1.18-10.28,2.38-20.66,5.46-30.1,10.08-16.44,8.05-30.67,19.67-46.19,31.56,16.4,11.28,31.86,22.25,47.68,32.68,12.73,8.4,27.16,11.49,42.27,11.72,24.03.36,45.07-10.61,67.5-17.29ZM580.53,349.74c-15.19-10.2-29.15-20.08-43.6-29.17-19.16-12.06-40.44-15.64-62.41-11.54-14.64,2.73-28.83,7.91-43.2,12.06-2.64.76-5.19,1.87-7.57,2.74,1.28,5.04,2.41,9.51,3.53,13.93,13.87.4,20.52,4.23,21.05,12.03.55,7.99-5.49,11.84-21.35,13.57-1.13,4.41-2.27,8.85-3.49,13.6,1.9.85,3.64,1.79,5.48,2.44,9.58,3.35,19.16,6.68,28.78,9.91,19.81,6.66,39.79,7.94,59.8,1.08,23.87-8.19,41.37-26.16,62.98-40.65ZM502.38,206.92c-11.54,4.94-24.37,4.59-37.15,5.12-25.18,1.06-45.93,10.52-57.26,34.26-5.34,11.18-8.5,23.41-12.59,35.19-.45,1.29-.52,2.72-.82,4.42,6.02-.97,11.19-.77,15.41,3.49,4.22,4.26,5.37,9.3,3.27,16.24,13.37-3.86,25.84-6.76,37.81-11.07,18.58-6.69,30.86-19.84,36.08-39.13,1.17-4.34,1.62-8.89,3.02-13.14,3.88-11.78,8.09-23.46,12.24-35.38ZM194.73,207.26c9.3,14.92,12.07,31.56,16.04,47.86,3.76,15.46,12.85,27.46,26.8,35.09,14.26,7.8,30.31,10.33,44.46,14.27,2.2-5.4,3-11.32,6.37-14.54,3.47-3.32,9.45-4.03,15.59-6.36-3.54-10.02-7.03-21.28-11.45-32.16-9.82-24.19-28.67-36.2-54.12-38.84-14.47-1.5-29.38.66-43.7-5.31ZM303.6,413.98c-6.12,1.5-11.08.46-15.2-3.62-4.08-4.03-5.18-9.03-4.41-15.18-11.47,3.68-22.43,6.98-33.23,10.72-22.49,7.79-36.03,23.69-41.2,46.74-3,13.37-6.66,26.44-13.8,38.3-.4.66-.59,1.45-1.38,3.42,14.34-6.77,28.8-4.93,42.96-5.88,19.13-1.27,35.73-8.2,47.39-24,10.9-14.77,15.26-32.16,18.85-50.51ZM503.27,494.13c-.44-1.84-.45-2.56-.78-3.1-8.22-13.61-11.77-28.86-15.68-44.01-3.56-13.78-11.2-25.25-23.21-32.59-8.68-5.3-18.66-8.57-28.25-12.25-6.88-2.64-14.07-4.44-21.83-6.84,1.69,6.47.81,11.99-4,15.13-4.12,2.69-9.36,3.67-14.54,5.58,2.39,12.67,6.45,26.15,12.67,38.92,5.41,11.11,13.68,19.54,24.47,25.55,9.99,5.56,20.87,7.65,32.11,8.13,12.89.55,26.01-.91,39.05,5.48ZM349.11,408.19c33.35-.28,59.29-26.05,59.16-58.77-.13-32.37-27.14-58.9-59.69-58.63-32.61.27-58.82,26.62-58.69,59,.13,32.33,26.84,58.66,59.22,58.4ZM394.36,150.27c1.26-10.38-.37-20.61-6.41-28.98-12.11-16.78-25.22-32.85-38.12-49.48-6.95,7.82-13.25,14.26-18.79,21.3-7.6,9.65-15.1,19.44-21.73,29.76-5.36,8.36-6.68,18.07-5.51,29.08,14.6-21.97,28.35-43.24,45.89-63.56,15.18,21.03,29.86,41.36,44.68,61.89ZM394.89,549.1c-14.99,20.16-29.95,40.27-45.96,61.8-15.78-21.66-30.56-41.96-45.41-62.34-.12.56-.35,1.18-.38,1.79-.05,1.5-.03,3,0,4.49.31,12.95,5.85,23.88,13.83,33.53,10.37,12.54,21.3,24.62,32.12,37.06,4.22-4.75,8.46-9.22,12.36-13.97,8.96-10.92,18.22-21.65,26.47-33.09,6.18-8.58,7.93-18.83,6.96-29.27ZM552.2,395.01c10.83,1.49,21.85-.42,30.7-7.32,15.18-11.85,29.4-24.92,44-37.5.19-.16.13-.62.29-1.59-10.34-8.87-20.54-18.5-31.67-26.88-7.88-5.93-16.79-10.66-25.69-15.03-5.69-2.79-12.23-2.83-19.96-1.24,22.65,13.69,43.64,27.3,63.78,44.83-20.81,15.15-41.06,29.89-61.46,44.73ZM70.07,348.97c.85,1.07,1.35,1.93,2.06,2.57,10.37,9.38,20.59,18.94,31.21,28.01,8,6.83,16.72,12.85,27.43,14.63,4.85.8,9.87.62,14.81.89.04-.44.09-.88.13-1.32-21.54-12.71-41.9-26.99-61.37-45.12,21.15-14.87,41.8-29.38,62.29-43.79-9.2-1.03-17.81.18-25.94,4.38-19.35,9.98-34.23,25.64-50.62,39.75Z"/>
    <path class="cls-1" d="M147.31,164.64c5.85,20.16,11.43,39.36,17.02,58.62-8.85-2.63-17.14-4.93-25.3-7.64-1.74-.58-3.7-2.34-4.37-4.03-8.76-22.15-12.5-45.5-15.95-68.89-.9-6.09.84-7.73,6.24-7.04,15.66,1.99,31.41,3.48,46.95,6.17,9.19,1.59,18.05,5.09,26.98,7.72.72-4.02,1.29-8.93,2.51-13.67,1.38-5.36,4.74-7.66,8.81-6.8,4.92,1.04,7.05,4.26,6.56,9.96-1.07,12.5-1.03,24.93,2.48,37.13.26.9.19,1.91.33,3.55-23.96-5.04-47.06-12.26-72.28-15.08Z"/>
    <path class="cls-1" d="M499.47,151.78c13.44-9.13,28.6-10.27,43.66-11.91,8.93-.97,17.87-2.03,26.71-3.6,7.88-1.4,11.33-1.73,9.35,9.16-3.4,18.64-8.34,36.99-12.05,55.58-2.02,10.13-6.9,16-17.59,17.28-5.14.62-10.04,3.19-15.68,5.09,5.56-19.62,10.97-38.71,16.38-57.79-.39-.48-.78-.96-1.17-1.44-23.42,5.06-46.85,10.12-70.81,15.3,1.11-5.45,2.62-10.25,2.97-15.14.55-7.61.33-15.28.41-22.93.02-1.99-.84-4.51.07-5.87,1.72-2.55,4.15-5.55,6.82-6.23,1.98-.5,5.71,1.81,7.05,3.91,1.78,2.78,2.16,6.53,2.85,9.92.55,2.71.66,5.51,1.01,8.69Z"/>
    <path class="cls-1" d="M499.41,546.99c-1,5.78-1.67,11.19-2.94,16.45-1.02,4.24-3.67,7.17-8.62,6.47-4.15-.58-6.76-4.1-6.39-9.18.97-13.35.33-26.52-4.38-40.43,24.59,4.86,48.12,9.5,73.13,14.45-5.68-19.6-10.97-37.86-16.33-56.33,9.18,2.46,18.27,4.75,27.25,7.45,1.3.39,2.52,2.56,2.93,4.12,4.23,16.06,8.37,32.14,12.34,48.26,1.43,5.8,2.63,11.7,3.38,17.62.8,6.25-1.63,7.93-7.69,6.99-11.83-1.83-23.68-3.62-35.59-4.76-13.11-1.25-25.54-4.31-37.09-11.12Z"/>
    <path class="cls-1" d="M147.2,535.44c25.26-5.06,48.73-9.76,72.59-14.55.04.97.29,1.78.08,2.44-3.76,11.8-4.2,23.86-3.24,36.1.18,2.33-.04,5.25-1.3,7.04-3.96,5.6-11.1,4.71-13.22-1.82-1.78-5.46-2.29-11.33-3.42-17.35-16.84,9.34-35.96,10.52-54.99,12.33-6.27.59-12.44,2.24-18.63,3.49-4.49.91-6.37-.28-6.43-4.8-.04-2.97.26-6.02.94-8.91,4.59-19.58,9.33-39.13,13.98-58.69.74-3.12,2.51-4.43,5.73-5.2,8.2-1.98,16.25-4.59,25.02-7.14-5.65,18.87-11.15,37.21-17.1,57.06Z"/>
    <path class="cls-1" d="M100.75,444.39c1.15-6.1,2.25-11.94,3.28-17.43,8.64.93,17.3,2.47,26,2.63,8.67.15,17.37-1.08,25.98-1.7-10.69,14.05-39.84,22.93-55.26,16.5Z"/>
    <path class="cls-1" d="M541.49,426.99c17.7,3.79,34.95,3.68,52.05-.73,1.31,6.41,2.49,12.22,3.67,18-18.02,6.93-46.15-3.39-55.72-17.27Z"/>
    <path class="cls-1" d="M156.71,274.78c-18.07-4.27-35.17-4.41-52.38.46-1.15-6.31-2.27-12.4-3.38-18.49,15.63-5.85,45.77,3.48,55.76,18.04Z"/>
    <path class="cls-1" d="M596.8,256.88c-1.03,6.06-2.04,12.07-3.17,18.72-16.65-5.57-33.76-4.59-51.26-1.45,10.34-14.66,40.08-23.82,54.43-17.27Z"/>
    <path class="cls-1" d="M44.31,454.87c-1.93-1.92-4.59-3.51-5.6-5.83-1.31-3.01-.59-6.56,3.01-7.97,10.82-4.22,21.69-8.34,32.65-12.17,3.47-1.21,6.75.19,8.3,3.73,1.56,3.56.33,7.19-2.95,8.56-10.87,4.54-21.98,8.48-33,12.63-.45.17-.99.09-1.49.12-.31.31-.62.62-.93.93Z"/>
    <path class="cls-1" d="M653.27,244.67c1.99,1.89,4.72,3.45,5.79,5.77,1.47,3.18-.15,6.35-3.3,7.97-3.09,1.59-6.42,2.73-9.71,3.89-7.22,2.54-14.4,5.2-21.74,7.35-6.32,1.85-10.57-1.46-9.64-7.25.28-1.73,1.54-4.18,2.95-4.73,11.01-4.21,22.16-8.05,33.28-11.97.45-.16.99-.07,1.49-.1.29-.31.58-.61.88-.92Z"/>
    <path class="cls-1" d="M45.5,245.57c.98.13,2.03.1,2.94.42,10,3.54,20.06,6.94,29.95,10.79,5.33,2.08,6.95,7.3,3.15,10.53-2.09,1.78-6.16,2.54-8.93,1.92-6.28-1.41-12.33-3.88-18.42-6.06-4.2-1.5-8.45-2.99-12.45-4.94-3.25-1.58-4.49-4.99-3.04-8.04,1.08-2.26,3.89-3.7,5.94-5.51.29.3.57.59.86.89Z"/>
    <path class="cls-1" d="M650.51,453.67c-.96-.27-3.1-.68-5.1-1.44-8.22-3.13-16.44-6.29-24.59-9.61-5.34-2.17-7.32-5.57-5.86-9.36,1.45-3.75,5.53-5.44,10.52-3.71,9.56,3.32,19.07,6.83,28.47,10.58,3.49,1.39,6.53,3.93,5.22,8.42-1.03,3.53-3.59,5.5-8.66,5.11Z"/>
    <path class="cls-1" d="M215.32,101.14c-1.42,1.74-2.73,4.6-4.9,5.61-1.65.77-5.3-.04-6.51-1.47-7.66-8.98-15.01-18.23-22.17-27.62-2.18-2.86-1.24-6.19,1.42-8.54,2.75-2.43,6.29-2.56,8.57.11,7.55,8.84,14.73,18.01,21.95,27.13.77.97.87,2.45,1.65,4.78Z"/>
    <path class="cls-1" d="M482.53,100.53c1.08-2.76,1.35-4.53,2.32-5.76,6.38-8.11,12.71-16.27,19.52-24.02,1.58-1.8,4.95-3.01,7.41-2.87,4.62.26,6.85,5.74,4.05,9.9-3.42,5.09-7.43,9.8-11.23,14.63-3.19,4.05-6.17,8.33-9.8,11.95-1.6,1.6-5.15,3.11-6.76,2.37-2.39-1.09-3.86-4.22-5.49-6.21Z"/>
    <path class="cls-1" d="M188.38,630.16c-5.13.11-8.37-3.89-7.45-8.19.34-1.58,1.04-3.23,2.04-4.48,6.35-7.92,12.77-15.78,19.28-23.58,2.58-3.09,5.81-4.95,9.47-1.85,3.39,2.87,3.95,6.61,1.12,10.21-6.8,8.62-13.71,17.15-20.74,25.59-1.07,1.28-2.98,1.86-3.73,2.3Z"/>
    <path class="cls-1" d="M517.9,623.63c-1.57,2.01-2.76,4.95-4.8,5.76-1.98.78-5.83.26-7.13-1.21-7.34-8.34-14.34-16.99-21.06-25.85-2.67-3.52-1.61-8.31,1.49-10.23,3.67-2.27,6.78-.81,9.23,2.11,6.51,7.76,12.93,15.59,19.26,23.5,1.2,1.49,1.79,3.47,3.01,5.92Z"/>
    <path class="cls-1" d="M91.14,469.42c-1.17,1.3-2.84,4.41-5.44,5.81-7.58,4.07-15.47,7.59-23.35,11.06-4.77,2.1-8.34.79-10.05-3.11-1.71-3.89-.32-7.49,4.17-9.74,7.99-4.02,16-8.04,24.17-11.68,5.39-2.4,10.54.68,10.5,7.66Z"/>
    <path class="cls-1" d="M57.38,211.33c2.35.69,3.52.89,4.56,1.36,7.73,3.48,15.51,6.84,23.08,10.65,2.2,1.1,4.5,3.21,5.41,5.41,2.06,5-3.09,10.7-8.24,8.7-9.42-3.66-18.59-8.06-27.45-12.92-1.85-1.02-2.86-5.54-2.41-8.13.36-2.07,3.53-3.65,5.04-5.06Z"/>
    <path class="cls-1" d="M612.82,460.47c2.32.65,3.52.8,4.55,1.3,8.09,3.92,16.29,7.64,24.1,12.05,2.17,1.23,4.13,4.45,4.44,6.98.48,3.88-3.7,7.48-7.23,6.08-9.86-3.9-19.58-8.24-28.94-13.2-1.77-.94-2.59-5.69-2.04-8.31.43-2.07,3.63-3.56,5.12-4.9Z"/>
    <path class="cls-1" d="M646.31,220.32c-.92,1.09-2.25,3.86-4.43,5.01-8.21,4.32-16.64,8.25-25.12,12.03-3.52,1.57-6.95.82-9.02-2.85-1.95-3.47-.94-7.93,2.84-9.84,8.73-4.41,17.59-8.59,26.59-12.4,4.3-1.82,8.95,1.84,9.13,8.06Z"/>
    <path class="cls-1" d="M519.89,575.89c.76.23,2.36.39,3.58,1.15,6.29,3.99,12.76,7.79,18.57,12.41,2.12,1.69,3.48,5.38,3.66,8.26.37,5.92-6.71,10.26-11.1,6.51-7.27-6.2-13.91-13.26-20.1-20.57-2.89-3.42.13-7.76,5.39-7.76Z"/>
    <path class="cls-1" d="M159.86,605.47c-6.49-.27-10.29-7.9-6.55-12.92,6.23-8.35,15-13.48,24.86-16.48,1.52-.46,4.32.89,5.43,2.28.89,1.11.9,4.28-.04,5.29-6.54,7-13.39,13.73-20.27,20.4-.98.95-2.69,1.13-3.44,1.42Z"/>
    <path class="cls-1" d="M106.35,197.03c-.36,3.41-1.94,6.07-5.08,4.66-7.32-3.31-14.8-6.67-21.25-11.33-4.81-3.48-4.41-10.59-.78-14.23,3.68-3.7,9.83-3.59,14.3.81,5.83,5.74,10.63,12.27,12.81,20.09Z"/>
    <path class="cls-1" d="M611.63,173.53c6.17.09,10.29,4.35,9.19,9.54-.67,3.19-2.3,7.16-4.8,8.8-5.91,3.88-12.46,6.89-19.01,9.64-3.71,1.56-6.23-.61-5.22-4.49,2.45-9.43,7.49-17.32,15.98-22.55,1.32-.82,3.17-.79,3.87-.94Z"/>
    <path class="cls-1" d="M158.64,92.94c2.71,1.19,4.85,1.58,6.21,2.83,5.98,5.5,11.97,11.03,17.4,17.04,1.48,1.64,2.18,5.78,1.13,7.39-1,1.52-5.46,2.46-7.21,1.49-7.47-4.14-14.83-8.67-21.47-14-1.96-1.58-2.3-6.42-1.73-9.46.38-2.04,3.67-3.54,5.67-5.29Z"/>
    <path class="cls-1" d="M242.82,655.89c1.02-3.49,1.43-5.81,2.36-7.9,3.03-6.82,6.08-13.65,9.48-20.29,1.78-3.49,4.84-5.84,9.03-3.92,3.96,1.82,4.17,5.45,2.76,8.95-3.46,8.62-7.07,17.19-10.89,25.66-1.44,3.19-4.51,5.08-7.77,3.3-2.22-1.22-3.55-4.07-4.97-5.8Z"/>
    <path class="cls-1" d="M429.72,68.38c1.54-4.08,2.56-7.23,3.9-10.23,2.7-6.07,5.44-12.14,8.45-18.06,1.67-3.28,4.51-4.94,8.31-3.41,3.47,1.39,5.22,4.53,3.91,7.64-4.05,9.6-8.54,19.04-13.4,28.27-.74,1.4-4.8,2.41-6.42,1.65-2.09-.97-3.28-3.9-4.75-5.86Z"/>
    <path class="cls-1" d="M242.43,42.65c1.95-2.22,3.43-5.36,5.68-6.06,1.99-.61,6.19.81,7.04,2.51,4.47,9.02,8.47,18.31,11.92,27.76.68,1.85-1.17,5.57-2.98,7.07-1.21,1.01-5.48.49-6.54-.83-7.04-8.75-10.48-19.34-15.11-30.45Z"/>
    <path class="cls-1" d="M612.14,527.13c-2.98-1.55-5.78-2.14-7.15-3.87-4.47-5.67-8.65-11.62-12.42-17.78-.95-1.56-.79-5.09.35-6.27,1.09-1.12,4.42-1.06,6.25-.3,5.78,2.4,11.64,4.89,16.88,8.26,5.55,3.57,6.76,10.56,3.05,15.18-1.67,2.08-4.55,3.18-6.97,4.78Z"/>
    <path class="cls-1" d="M519.45,122.62c-5.09.11-8.11-4.16-5.24-7.38,6.67-7.48,13.99-14.45,21.64-20.94,2.59-2.2,6.49-.63,8.64,2.53,2.47,3.63,2.43,7.8-.77,10.44-5.96,4.91-12.48,9.14-18.93,13.43-1.73,1.15-4.01,1.46-5.33,1.92Z"/>
    <path class="cls-1" d="M83.84,526.77c-1.63-1.43-4.56-2.99-5.93-5.43-2.4-4.26-1.77-9.18,1.9-12.33,3.69-3.16,8.28-5.33,12.66-7.58,2.78-1.42,5.84-2.39,8.87-3.2,3.51-.94,5.04,1.18,4.94,4.32-.18,5.43-12.51,21.44-17.63,23.17-1.09.37-2.26.5-4.8,1.05Z"/>
    <path class="cls-1" d="M437.85,623.34c.93.7,3.43,1.65,4.32,3.42,4.25,8.43,8.31,16.98,11.94,25.69,1.55,3.72.18,7.52-3.75,9.19-3.94,1.67-6.85-.55-8.41-4.1-3.73-8.51-7.53-17.01-10.7-25.74-1.76-4.86,1-8.53,6.6-8.46Z"/>
    <path class="cls-1" d="M247.13,605.23c-.67,2.06-.81,3.09-1.31,3.92-4.45,7.4-8.87,14.82-13.51,22.11-1.84,2.89-4.6,4.46-8.12,2.76-3.5-1.69-4.38-4.99-2.93-8.02,4.01-8.33,8.35-16.51,12.99-24.5,1.6-2.76,5.01-3.76,7.9-1.77,2.12,1.46,3.56,3.89,4.97,5.51Z"/>
    <path class="cls-1" d="M459.7,599.07c1.07.78,3.69,1.77,4.81,3.66,4.23,7.12,8.15,14.45,11.83,21.88,1.82,3.67,1.12,7.4-2.82,9.43-3.76,1.94-6.41-.43-8.34-3.36-4.29-6.53-8.61-13.05-12.51-19.82-3.22-5.58-.06-11.67,7.02-11.8Z"/>
    <path class="cls-1" d="M459.48,97.69c-6.03.04-9.97-4.91-7.63-9.42,4.33-8.32,9.55-16.24,15.03-23.87,1-1.4,5.65-1.75,7.36-.64,1.66,1.07,3.02,5.24,2.22,7.02-3.57,7.99-7.79,15.71-12.19,23.29-1.09,1.88-3.74,2.86-4.8,3.63Z"/>
    <path class="cls-1" d="M247.39,91.58c-1.86,1.87-3.43,4.47-5.68,5.37-1.84.74-5.8.23-6.58-1.07-5.09-8.49-9.79-17.24-14.03-26.19-.67-1.41,1.1-5.16,2.75-6.15,1.63-.98,5.84-.72,6.68.52,5.65,8.34,10.71,17.07,15.94,25.69.15.25.06.65.09.98.28.28.56.56.84.85Z"/>
    <path class="cls-1" d="M24.53,350.44c-.02,7.29-5.39,12.59-12.65,12.49-6.81-.09-11.79-5.17-11.87-12.13-.09-7.14,5.46-12.72,12.57-12.62,6.47.08,11.97,5.73,11.95,12.26Z"/>
    <path class="cls-1" d="M348.5,696.52c-6.4.11-11.54-5.04-11.71-11.74-.18-6.8,5.38-12.89,11.84-12.97,6.63-.08,12.54,5.59,12.73,12.21.19,6.73-5.61,12.38-12.85,12.5Z"/>
    <path class="cls-1" d="M299.02,646.32c-1.09,4.71-1.91,9.8-3.52,14.63-1.1,3.32-4.1,6.14-7.67,4.61-2.38-1.02-5.43-4.43-5.32-6.63.39-8.4,1.71-16.78,3.27-25.06.3-1.62,3.24-3.88,4.9-3.83,1.97.06,4.88,1.89,5.59,3.68,1.5,3.77,1.84,8.01,2.76,12.61Z"/>
    <path class="cls-1" d="M348.44,24.39c-6.42.01-11.67-5.32-11.68-11.85-.01-6.9,5.43-12.46,12.27-12.53,6.62-.08,12.13,5.27,12.28,11.93.15,6.82-5.66,12.45-12.87,12.46Z"/>
    <path class="cls-1" d="M299,50.94c-.86,4.92-1.02,9.03-2.44,12.64-.79,2-3.61,4.21-5.68,4.39-1.69.14-4.9-2.37-5.22-4.1-1.5-8.27-2.64-16.66-2.98-25.04-.08-2.02,3.13-5.51,5.26-5.9,2.19-.4,6.24,1.6,7.14,3.59,2.11,4.72,2.83,10.07,3.92,14.42Z"/>
    <path class="cls-1" d="M416.24,653.84c-.2,7.4-2.3,11.41-6.68,11.96-4.47.55-8.35-3.42-8.96-10.53-.53-6.22-.28-12.56.23-18.8.27-3.29,1.77-6.61,6.02-6.74,4.02-.12,5.46,2.89,6.14,6.05,1.28,5.98,2.19,12.04,3.25,18.07Z"/>
    <path class="cls-1" d="M684.67,362.88c-6.89-.09-11.51-5.18-11.33-12.48.18-7.05,5.25-12.25,11.89-12.18,6.83.07,12.48,5.85,12.24,12.53-.23,6.65-6.12,12.23-12.81,12.14Z"/>
    <path class="cls-1" d="M399.37,50.48c.7-3.58,1.16-8.08,2.54-12.28,1.17-3.57,3.64-6.52,8.2-5.54,4.38.94,5.88,4.09,5.53,8.16-.58,6.76-1.19,13.53-2.22,20.23-.57,3.72-2.41,7.39-6.9,7.19-4.29-.18-5.36-3.96-5.99-7.48-.55-3.09-.73-6.24-1.17-10.28Z"/>
    <path class="cls-1" d="M99.74,142.68c-6.61-.07-11.53-5.47-11.44-12.55.09-6.9,5.11-11.6,12.33-11.56,6.58.04,11.64,4.88,11.65,11.15.02,6.97-5.85,13.03-12.55,12.96Z"/>
    <path class="cls-1" d="M100.47,556.43c6.34-.11,11.63,5.09,11.82,11.62.19,6.63-5.56,12.55-12.17,12.53-6.42-.02-11.73-5.61-11.77-12.36-.03-6.74,5.04-11.67,12.12-11.79Z"/>
    <path class="cls-1" d="M609.56,568.25c.02,6.52-5.84,12.34-12.44,12.34s-11.36-5.34-11.34-12.52c.02-6.64,5-11.62,11.64-11.64,6.79-.02,12.11,5.17,12.13,11.82Z"/>
    <path class="cls-1" d="M597.67,118.67c6.66-.03,11.87,5.01,11.9,11.52.03,6.53-5.91,12.52-12.43,12.53-6.34.01-11.56-5.73-11.49-12.63.07-6.51,5.19-11.39,12.02-11.42Z"/>
    <path class="cls-1" d="M48.49,397.94c3.66.79,8.08,1.15,11.96,2.8,2.12.9,4.52,3.93,4.58,6.06.05,1.83-2.82,5.06-4.78,5.4-6.97,1.19-14.1,1.8-21.18,1.82-4.04.01-7.25-2.45-7.52-7.14-.27-4.83,2.97-6.82,6.92-7.74,3.04-.71,6.23-.77,10.02-1.19Z"/>
    <path class="cls-1" d="M47.69,283.88c4.55.61,8.49.63,12.05,1.81,2.14.72,4.89,3.11,5.12,5.03.24,1.94-1.78,5.25-3.68,6.17-7.39,3.62-15.43,4.07-23.37,2.19-3.7-.88-6.45-3.58-6.28-7.97.17-4.41,3.31-5.91,6.97-6.47,3.26-.5,6.59-.57,9.18-.77Z"/>
    <path class="cls-1" d="M650.32,300.38c-4.07-.76-8.21-1.26-12.19-2.35-3.24-.89-6.21-3.33-5.2-6.81.66-2.28,3.54-5.07,5.83-5.51,5.99-1.17,12.22-1.68,18.32-1.49,5.8.18,8.88,3.47,8.77,7.65-.11,4-3.6,7.15-8.96,7.78-2.13.25-4.32.04-6.49.04-.03.23-.06.46-.09.68Z"/>
    <path class="cls-1" d="M650.35,414.39c-4.11-.59-8.45-.56-12.24-1.99-2.29-.87-4.94-3.88-5.15-6.15-.17-1.81,2.84-5.33,4.87-5.69,6.64-1.18,13.49-1.81,20.22-1.6,5.02.16,8.49,4.25,8.28,7.81-.22,3.64-3.91,6.72-8.95,7.2-2.31.22-4.65.04-6.98.04-.01.12-.03.25-.04.37Z"/>
    <path class="cls-1" d="M270.38,170.38c-9.89-9-15.57-19.62-13.32-33.4,10.6,7.12,17.89,25.24,13.32,33.4Z"/>
    <path class="cls-1" d="M426.77,170.72c-3.4-14.96,6.43-24,13.62-34.32,4.09,9.89-1.65,24.55-13.62,34.32Z"/>
    <path class="cls-1" d="M426.96,528.83c10.12,8.83,16.42,18.44,14.28,31.92-9.38-5.99-16.35-20.94-14.28-31.92Z"/>
    <path class="cls-1" d="M271.24,528.86c2.8,14.52-6.51,22.87-13.54,32.88-2.94-14.1,3.08-23.83,13.54-32.88Z"/>
    <path class="cls-1" d="M367.15,213.94c-1.95,5.48-2.93,10.67-5.47,14.92-5.65,9.43-18.11,9.55-24.65.73-6.53-8.82-6.06-24.77.99-33.18,6.36-7.6,17.14-7.69,22.49.66,3.18,4.96,4.47,11.14,6.65,16.88Z"/>
    <path class="cls-1" d="M367.05,487.81c-1.99,5.24-3.14,10.76-5.98,15.19-5.7,8.87-16.5,8.98-23.18.9-7.07-8.55-7.23-24.99-.33-33.64,6.67-8.36,18.5-8.03,23.82,1.27,2.71,4.74,3.71,10.45,5.67,16.29Z"/>
    <path class="cls-1" d="M210.04,333.72c8.72.5,15.15,1.88,20.25,6.84,6.65,6.45,6.35,15.34-.69,21.37-8.55,7.33-21.94,8.69-31.8,3.17-5.46-3.06-8.94-7.59-8.87-14.04.08-6.88,3.84-11.71,9.98-14.26,4.08-1.69,8.57-2.39,11.12-3.07Z"/>
    <path class="cls-1" d="M484.33,333.67c9.46.59,15.72,1.96,20.65,6.86,6.13,6.09,6.22,14.21.27,20.48-8.97,9.45-26.73,10.19-36.51,1.52-8.25-7.32-7.5-18.75,2.27-24.32,4.75-2.71,10.51-3.62,13.32-4.53Z"/>
    <path class="cls-1" d="M433.02,255.55c7.35.02,12.52,5.45,12.51,13.12-.02,7.07-5.98,12.91-13.12,12.85-6.79-.06-12.17-5.83-12.21-13.1-.03-7.45,5.39-12.89,12.82-12.87Z"/>
    <path class="cls-1" d="M265.47,255.51c7.3-.05,12.81,5.52,12.84,12.96.03,6.88-6.48,13.1-13.69,13.1-6.38,0-11.75-5.87-11.86-12.96-.12-7.37,5.4-13.05,12.71-13.1Z"/>
    <path class="cls-1" d="M252.91,432c.09-7.53,5.51-12.78,13.04-12.62,6.88.15,12.45,5.97,12.39,12.95-.06,7.12-5.91,13.02-12.99,13.09-6.93.07-12.53-5.97-12.44-13.42Z"/>
    <path class="cls-1" d="M432.38,419.53c7.47-.04,13.13,5.49,13.05,12.76-.08,7.07-6.02,12.97-13.15,13.05-6.69.07-12.35-5.9-12.38-13.07-.03-7.34,5.21-12.69,12.48-12.73Z"/>
    <path class="cls-1" d="M394.59,349.35c.15,24.78-20.66,45.21-46.2,45.34-23.8.13-44.63-20.69-44.7-44.69-.07-25.31,19.81-45.34,45.17-45.5,25.54-.16,45.57,19.47,45.73,44.84ZM348.72,326.65c-12.16,0-22.66,10.4-22.74,22.51-.07,12.1,10.39,22.93,22.28,23.07,13.64.16,24.01-9.7,23.89-22.71-.11-12.7-10.53-22.88-23.43-22.88Z"/>
  </g>
</svg>